<svg width="171" height="28" viewBox="0 0 171 28" fill="none" xmlns="http://www.w3.org/2000/svg">
<path d="M18.5729 0.399999L21.7229 1.8L3.47285 43L0.322852 41.6L18.5729 0.399999ZM40.7486 26.3H27.8486L24.3486 36H20.2486L33.4986 0.449999H35.3986L48.6986 36H44.3486L40.7486 26.3ZM29.1986 22.7H39.4986L35.5986 12.05L34.3486 6.75H34.2986L33.0486 12.15L29.1986 22.7ZM74.4467 9C74.4467 9.83333 74.3133 10.6833 74.0467 11.55C73.78 12.4167 73.38 13.2333 72.8467 14C72.3133 14.7333 71.63 15.3833 70.7967 15.95C69.9633 16.5167 68.98 16.95 67.8467 17.25V17.45C68.8467 17.6167 69.7967 17.9 70.6967 18.3C71.63 18.7 72.4467 19.25 73.1467 19.95C73.8467 20.65 74.4133 21.5 74.8467 22.5C75.28 23.5 75.4967 24.6833 75.4967 26.05C75.4967 27.85 75.1133 29.4167 74.3467 30.75C73.6133 32.05 72.63 33.1167 71.3967 33.95C70.1967 34.7833 68.8133 35.4 67.2467 35.8C65.68 36.2 64.08 36.4 62.4467 36.4C61.88 36.4 61.2133 36.4 60.4467 36.4C59.68 36.4 58.88 36.3667 58.0467 36.3C57.2133 36.2667 56.38 36.2 55.5467 36.1C54.7133 36.0333 53.98 35.9167 53.3467 35.75V1.3C54.58 1.1 56.0133 0.933331 57.6467 0.799997C59.28 0.666666 61.0633 0.6 62.9967 0.6C64.2967 0.6 65.6133 0.716666 66.9467 0.949998C68.3133 1.15 69.5467 1.56666 70.6467 2.2C71.7467 2.8 72.6467 3.65 73.3467 4.75C74.08 5.85 74.4467 7.26667 74.4467 9ZM62.8467 32.8C63.9133 32.8 64.9467 32.6833 65.9467 32.45C66.9467 32.1833 67.83 31.7833 68.5967 31.25C69.3633 30.6833 69.9633 30 70.3967 29.2C70.8633 28.4 71.0967 27.45 71.0967 26.35C71.0967 24.9833 70.8133 23.8833 70.2467 23.05C69.7133 22.2167 68.9967 21.5667 68.0967 21.1C67.23 20.6333 66.2467 20.3167 65.1467 20.15C64.0467 19.9833 62.9467 19.9 61.8467 19.9H57.4967V32.45C57.73 32.5167 58.0633 32.5667 58.4967 32.6C58.93 32.6333 59.3967 32.6667 59.8967 32.7C60.3967 32.7333 60.9133 32.7667 61.4467 32.8C61.98 32.8 62.4467 32.8 62.8467 32.8ZM60.0967 16.4C60.6633 16.4 61.3467 16.3833 62.1467 16.35C62.9467 16.3167 63.6133 16.2667 64.1467 16.2C64.9467 15.9333 65.6967 15.6167 66.3967 15.25C67.0967 14.85 67.7133 14.4 68.2467 13.9C68.8133 13.3667 69.2467 12.7667 69.5467 12.1C69.88 11.4 70.0467 10.65 70.0467 9.85C70.0467 8.75 69.83 7.85 69.3967 7.15C68.9967 6.41667 68.4467 5.83333 67.7467 5.4C67.0467 4.96667 66.2467 4.66667 65.3467 4.5C64.4467 4.3 63.53 4.2 62.5967 4.2C61.4967 4.2 60.48 4.23333 59.5467 4.3C58.6467 4.33333 57.9633 4.4 57.4967 4.5V16.4H60.0967ZM81.0959 18.5C81.0959 12.6667 82.3292 8.2 84.7959 5.1C87.2626 1.96667 90.7792 0.399999 95.3459 0.399999C97.8126 0.399999 99.9459 0.833332 101.746 1.7C103.546 2.56666 105.029 3.8 106.196 5.4C107.396 6.96667 108.279 8.86667 108.846 11.1C109.413 13.3 109.696 15.7667 109.696 18.5C109.696 24.3333 108.446 28.8167 105.946 31.95C103.479 35.05 99.9459 36.6 95.3459 36.6C92.9126 36.6 90.7959 36.1667 88.9959 35.3C87.2292 34.4333 85.7459 33.2167 84.5459 31.65C83.3792 30.05 82.5126 28.15 81.9459 25.95C81.3792 23.7167 81.0959 21.2333 81.0959 18.5ZM85.4959 18.5C85.4959 20.4333 85.6792 22.2667 86.0459 24C86.4459 25.7333 87.0459 27.2667 87.8459 28.6C88.6459 29.9 89.6626 30.95 90.8959 31.75C92.1626 32.5167 93.6459 32.9 95.3459 32.9C98.4459 32.9 100.879 31.7333 102.646 29.4C104.413 27.0333 105.296 23.4 105.296 18.5C105.296 16.6 105.096 14.7833 104.696 13.05C104.329 11.2833 103.729 9.75 102.896 8.45C102.096 7.11667 101.063 6.06667 99.7959 5.3C98.5626 4.5 97.0792 4.1 95.3459 4.1C92.2792 4.1 89.8626 5.28333 88.0959 7.65C86.3626 9.98333 85.4959 13.6 85.4959 18.5ZM136.826 0.999998H140.826V24.35C140.826 26.45 140.542 28.2667 139.976 29.8C139.442 31.3333 138.659 32.6 137.626 33.6C136.626 34.5667 135.409 35.2833 133.976 35.75C132.542 36.2167 130.959 36.45 129.226 36.45C125.092 36.45 121.976 35.5167 119.876 33.65C117.776 31.7833 116.726 28.95 116.726 25.15V0.999998H120.876V23.2C120.876 24.9667 121.042 26.4667 121.376 27.7C121.742 28.9 122.276 29.8833 122.976 30.65C123.676 31.3833 124.542 31.9167 125.576 32.25C126.642 32.5833 127.876 32.75 129.276 32.75C131.976 32.75 133.909 32.0167 135.076 30.55C136.242 29.05 136.826 26.6 136.826 23.2V0.999998ZM171.943 4.7H161.043V36H156.893V4.7H145.993V0.999998H171.943V4.7Z" fill="#0C131D"/>
</svg>
