<svg width="1100" height="120" viewBox="0 0 1100 120" fill="none" xmlns="http://www.w3.org/2000/svg">
<g clip-path="url(#clip0)">
<path d="M177.293 3.76L194.303 11.32L95.7534 233.8L78.7434 226.24L177.293 3.76ZM297.043 143.62H227.383L208.483 196H186.343L257.893 4.02999H268.153L339.973 196H316.483L297.043 143.62ZM234.673 124.18H290.293L269.233 66.67L262.483 38.05H262.213L255.463 67.21L234.673 124.18ZM479.012 50.2C479.012 54.7 478.292 59.29 476.852 63.97C475.412 68.65 473.252 73.06 470.372 77.2C467.492 81.16 463.802 84.67 459.302 87.73C454.802 90.79 449.492 93.13 443.372 94.75V95.83C448.772 96.73 453.902 98.26 458.762 100.42C463.802 102.58 468.212 105.55 471.992 109.33C475.772 113.11 478.832 117.7 481.172 123.1C483.512 128.5 484.682 134.89 484.682 142.27C484.682 151.99 482.612 160.45 478.472 167.65C474.512 174.67 469.202 180.43 462.542 184.93C456.062 189.43 448.592 192.76 440.132 194.92C431.672 197.08 423.032 198.16 414.212 198.16C411.152 198.16 407.552 198.16 403.412 198.16C399.272 198.16 394.952 197.98 390.452 197.62C385.952 197.44 381.452 197.08 376.952 196.54C372.452 196.18 368.492 195.55 365.072 194.65V8.62C371.732 7.53999 379.472 6.63999 388.292 5.91998C397.112 5.19999 406.742 4.84 417.182 4.84C424.202 4.84 431.312 5.47 438.512 6.72999C445.892 7.80999 452.552 10.06 458.492 13.48C464.432 16.72 469.292 21.31 473.072 27.25C477.032 33.19 479.012 40.84 479.012 50.2ZM416.372 178.72C422.132 178.72 427.712 178.09 433.112 176.83C438.512 175.39 443.282 173.23 447.422 170.35C451.562 167.29 454.802 163.6 457.142 159.28C459.662 154.96 460.922 149.83 460.922 143.89C460.922 136.51 459.392 130.57 456.332 126.07C453.452 121.57 449.582 118.06 444.722 115.54C440.042 113.02 434.732 111.31 428.792 110.41C422.852 109.51 416.912 109.06 410.972 109.06H387.482V176.83C388.742 177.19 390.542 177.46 392.882 177.64C395.222 177.82 397.742 178 400.442 178.18C403.142 178.36 405.932 178.54 408.812 178.72C411.692 178.72 414.212 178.72 416.372 178.72ZM401.522 90.16C404.582 90.16 408.272 90.07 412.592 89.89C416.912 89.71 420.512 89.44 423.392 89.08C427.712 87.64 431.762 85.93 435.542 83.95C439.322 81.79 442.652 79.36 445.532 76.66C448.592 73.78 450.932 70.54 452.552 66.94C454.352 63.16 455.252 59.11 455.252 54.79C455.252 48.85 454.082 43.99 451.742 40.21C449.582 36.25 446.612 33.1 442.832 30.76C439.052 28.42 434.732 26.8 429.872 25.9C425.012 24.82 420.062 24.28 415.022 24.28C409.082 24.28 403.592 24.46 398.552 24.82C393.692 25 390.002 25.36 387.482 25.9V90.16H401.522ZM514.918 101.5C514.918 70 521.578 45.88 534.898 29.14C548.218 12.22 567.208 3.76 591.868 3.76C605.188 3.76 616.708 6.09999 626.428 10.78C636.148 15.46 644.158 22.12 650.458 30.76C656.938 39.22 661.708 49.48 664.768 61.54C667.828 73.42 669.358 86.74 669.358 101.5C669.358 133 662.608 157.21 649.108 174.13C635.788 190.87 616.708 199.24 591.868 199.24C578.728 199.24 567.298 196.9 557.578 192.22C548.038 187.54 540.028 180.97 533.548 172.51C527.248 163.87 522.568 153.61 519.508 141.73C516.448 129.67 514.918 116.26 514.918 101.5ZM538.678 101.5C538.678 111.94 539.668 121.84 541.648 131.2C543.808 140.56 547.048 148.84 551.368 156.04C555.688 163.06 561.178 168.73 567.838 173.05C574.678 177.19 582.688 179.26 591.868 179.26C608.608 179.26 621.748 172.96 631.288 160.36C640.828 147.58 645.598 127.96 645.598 101.5C645.598 91.24 644.518 81.43 642.358 72.07C640.378 62.53 637.138 54.25 632.638 47.23C628.318 40.03 622.738 34.36 615.898 30.22C609.238 25.9 601.228 23.74 591.868 23.74C575.308 23.74 562.258 30.13 552.718 42.91C543.358 55.51 538.678 75.04 538.678 101.5ZM815.858 6.99999H837.458V133.09C837.458 144.43 835.928 154.24 832.868 162.52C829.988 170.8 825.758 177.64 820.178 183.04C814.778 188.26 808.208 192.13 800.468 194.65C792.728 197.17 784.178 198.43 774.818 198.43C752.498 198.43 735.668 193.39 724.328 183.31C712.988 173.23 707.318 157.93 707.318 137.41V6.99999H729.728V126.88C729.728 136.42 730.628 144.52 732.428 151.18C734.408 157.66 737.288 162.97 741.068 167.11C744.848 171.07 749.528 173.95 755.108 175.75C760.868 177.55 767.528 178.45 775.088 178.45C789.668 178.45 800.108 174.49 806.408 166.57C812.708 158.47 815.858 145.24 815.858 126.88V6.99999ZM1005.49 26.98H946.631V196H924.221V26.98H865.361V6.99999H1005.49V26.98Z" fill="white"/>
</g>
<defs>
<clipPath id="clip0">
<rect width="1100" height="228" fill="white" transform="translate(0 -20)"/>
</clipPath>
</defs>
</svg>
