<svg width="200" height="26" viewBox="0 0 200 26" fill="none" xmlns="http://www.w3.org/2000/svg">
<path d="M11.4253 0.383999L14.1343 1.588L-1.56071 37.02L-4.26971 35.816L11.4253 0.383999ZM34.3235 7.78C34.3235 8.49667 34.2088 9.22767 33.9795 9.973C33.7501 10.7183 33.4061 11.4207 32.9475 12.08C32.4888 12.7107 31.9011 13.2697 31.1845 13.757C30.4678 14.2443 29.6221 14.617 28.6475 14.875V15.047C29.5075 15.1903 30.3245 15.434 31.0985 15.778C31.9011 16.122 32.6035 16.595 33.2055 17.197C33.8075 17.799 34.2948 18.53 34.6675 19.39C35.0401 20.25 35.2265 21.2677 35.2265 22.443C35.2265 23.991 34.8968 25.3383 34.2375 26.485C33.6068 27.603 32.7611 28.5203 31.7005 29.237C30.6685 29.9537 29.4788 30.484 28.1315 30.828C26.7841 31.172 25.4081 31.344 24.0035 31.344C23.5161 31.344 22.9428 31.344 22.2835 31.344C21.6241 31.344 20.9361 31.3153 20.2195 31.258C19.5028 31.2293 18.7861 31.172 18.0695 31.086C17.3528 31.0287 16.7221 30.9283 16.1775 30.785V1.158C17.2381 0.985999 18.4708 0.842665 19.8755 0.727998C21.2801 0.613332 22.8138 0.556 24.4765 0.556C25.5945 0.556 26.7268 0.656333 27.8735 0.856999C29.0488 1.029 30.1095 1.38733 31.0555 1.932C32.0015 2.448 32.7755 3.179 33.3775 4.125C34.0081 5.071 34.3235 6.28933 34.3235 7.78ZM24.3475 28.248C25.2648 28.248 26.1535 28.1477 27.0135 27.947C27.8735 27.7177 28.6331 27.3737 29.2925 26.915C29.9518 26.4277 30.4678 25.84 30.8405 25.152C31.2418 24.464 31.4425 23.647 31.4425 22.701C31.4425 21.5257 31.1988 20.5797 30.7115 19.863C30.2528 19.1463 29.6365 18.5873 28.8625 18.186C28.1171 17.7847 27.2715 17.5123 26.3255 17.369C25.3795 17.2257 24.4335 17.154 23.4875 17.154H19.7465V27.947C19.9471 28.0043 20.2338 28.0473 20.6065 28.076C20.9791 28.1047 21.3805 28.1333 21.8105 28.162C22.2405 28.1907 22.6848 28.2193 23.1435 28.248C23.6021 28.248 24.0035 28.248 24.3475 28.248ZM21.9825 14.144C22.4698 14.144 23.0575 14.1297 23.7455 14.101C24.4335 14.0723 25.0068 14.0293 25.4655 13.972C26.1535 13.7427 26.7985 13.4703 27.4005 13.155C28.0025 12.811 28.5328 12.424 28.9915 11.994C29.4788 11.5353 29.8515 11.0193 30.1095 10.446C30.3961 9.844 30.5395 9.199 30.5395 8.511C30.5395 7.565 30.3531 6.791 29.9805 6.189C29.6365 5.55833 29.1635 5.05666 28.5615 4.684C27.9595 4.31133 27.2715 4.05333 26.4975 3.91C25.7235 3.738 24.9351 3.652 24.1325 3.652C23.1865 3.652 22.3121 3.68067 21.5095 3.738C20.7355 3.76667 20.1478 3.824 19.7465 3.91V14.144H21.9825ZM55.6078 22.658H44.5138L41.5038 31H37.9778L49.3728 0.426999H51.0068L62.4448 31H58.7038L55.6078 22.658ZM45.6748 19.562H54.5328L51.1788 10.403L50.1038 5.845H50.0608L48.9858 10.489L45.6748 19.562ZM84.6143 29.753C83.7543 30.4123 82.665 30.871 81.3463 31.129C80.0276 31.387 78.623 31.516 77.1323 31.516C75.3263 31.516 73.635 31.215 72.0583 30.613C70.4816 29.9823 69.1056 29.0363 67.9303 27.775C66.755 26.5137 65.8233 24.9083 65.1353 22.959C64.4473 20.981 64.1033 18.6447 64.1033 15.95C64.1033 13.1407 64.476 10.7613 65.2213 8.812C65.9953 6.834 66.9986 5.22867 68.2313 3.996C69.4926 2.73466 70.8973 1.81733 72.4453 1.244C73.9933 0.670666 75.57 0.383999 77.1753 0.383999C78.8953 0.383999 80.3 0.484332 81.3893 0.684998C82.4786 0.856998 83.4103 1.10066 84.1843 1.416L83.3243 4.555C81.9483 3.89567 79.9846 3.566 77.4333 3.566C76.258 3.566 75.097 3.781 73.9503 4.211C72.8036 4.641 71.7716 5.34333 70.8543 6.318C69.9656 7.29267 69.249 8.56833 68.7043 10.145C68.1596 11.7217 67.8873 13.6567 67.8873 15.95C67.8873 18.014 68.1453 19.82 68.6613 21.368C69.1773 22.916 69.8796 24.206 70.7683 25.238C71.6856 26.27 72.7463 27.044 73.9503 27.56C75.183 28.076 76.516 28.334 77.9493 28.334C79.2393 28.334 80.3573 28.205 81.3033 27.947C82.278 27.689 83.095 27.3593 83.7543 26.958L84.6143 29.753ZM95.5057 17.068H93.4847V31H89.9157V0.899998H93.4847V14.918L95.4197 14.316L105.525 0.899998H109.653L99.5907 13.843L97.7847 15.262L99.9777 16.982L110.986 31H106.471L95.5057 17.068ZM111.6 17.025H122.006V20.207H111.6V17.025ZM128.213 0.899998H144.596V4.082H131.782V13.929H143.521V17.111H131.782V27.818H144.811V31H128.213V0.899998ZM156.684 11.306L154.362 6.963H154.19L154.62 11.306V31H151.266V0.426999H153.158L167.563 20.508L169.799 24.636H170.014L169.541 20.508V0.899998H172.895V31.473H171.003L156.684 11.306ZM180.199 0.899998C180.744 0.813999 181.346 0.756666 182.005 0.727998C182.693 0.670665 183.395 0.641999 184.112 0.641999C184.857 0.613332 185.574 0.598999 186.262 0.598999C186.979 0.570333 187.638 0.556 188.24 0.556C190.648 0.556 192.726 0.928666 194.475 1.674C196.252 2.41933 197.714 3.46567 198.861 4.813C200.008 6.13167 200.853 7.72267 201.398 9.586C201.971 11.4493 202.258 13.499 202.258 15.735C202.258 17.7703 201.986 19.734 201.441 21.626C200.925 23.4893 200.094 25.152 198.947 26.614C197.8 28.0473 196.31 29.2083 194.475 30.097C192.64 30.957 190.419 31.387 187.81 31.387C187.351 31.387 186.749 31.3727 186.004 31.344C185.287 31.344 184.542 31.3153 183.768 31.258C182.994 31.2293 182.277 31.2007 181.618 31.172C180.959 31.1433 180.486 31.1003 180.199 31.043V0.899998ZM188.326 3.738C187.953 3.738 187.538 3.738 187.079 3.738C186.649 3.738 186.219 3.75233 185.789 3.781C185.359 3.80967 184.958 3.83833 184.585 3.867C184.241 3.89566 183.969 3.92433 183.768 3.953V28.033C183.911 28.0617 184.184 28.0903 184.585 28.119C184.986 28.119 185.402 28.1333 185.832 28.162C186.262 28.162 186.678 28.1763 187.079 28.205C187.48 28.205 187.753 28.205 187.896 28.205C189.903 28.205 191.58 27.861 192.927 27.173C194.303 26.485 195.392 25.5677 196.195 24.421C197.026 23.2457 197.614 21.9127 197.958 20.422C198.302 18.9027 198.474 17.3403 198.474 15.735C198.474 14.3303 198.316 12.9257 198.001 11.521C197.686 10.0877 197.141 8.79767 196.367 7.651C195.593 6.50433 194.547 5.57267 193.228 4.856C191.938 4.11067 190.304 3.738 188.326 3.738Z" fill="#0C131D"/>
</svg>
