<svg width="39" height="39" viewBox="0 0 39 39" fill="none" xmlns="http://www.w3.org/2000/svg">
<path d="M19.9401 8.17H27.8601V0.0249997H31.1001V8.17H39.0201V11.41H31.1001V19.51H27.8601V11.41H19.9401V8.17Z" fill="#0C131D"/>
<path d="M-0.0598632 28.17H7.86014V20.025H11.1001V28.17H19.0201V31.41H11.1001V39.51H7.86014V31.41H-0.0598632V28.17Z" fill="#0C131D"/>
<path d="M2.27027 15.79L7.87055 10.1897L2.11117 4.43029L4.40219 2.13926L10.1616 7.89864L15.7619 2.29836L18.0529 4.58938L12.4526 10.1897L18.1802 15.9172L15.8891 18.2083L10.1616 12.4807L4.56129 18.081L2.27027 15.79Z" fill="#0C131D"/>
<path d="M21.2703 34.79L26.8706 29.1897L21.1112 23.4303L23.4022 21.1393L29.1616 26.8986L34.7619 21.2984L37.0529 23.5894L31.4526 29.1897L37.1802 34.9172L34.8891 37.2083L29.1616 31.4807L23.5613 37.081L21.2703 34.79Z" fill="#0C131D"/>
</svg>
