<svg width="26" height="36" viewBox="0 0 26 36" fill="none" xmlns="http://www.w3.org/2000/svg">
<path d="M8.58913 3.344C8.58913 3.90933 8.48246 4.49067 8.26913 5.088C8.06646 5.67467 7.79446 6.26667 7.45313 6.864C7.12246 7.46133 6.74913 8.048 6.33313 8.624C5.91713 9.18933 5.50113 9.728 5.08513 10.24L4.30113 10.928V10.992L5.32513 10.816H8.81313V12H2.44513V11.536C2.67979 11.2907 2.96246 10.9867 3.29313 10.624C3.62379 10.2613 3.96513 9.86133 4.31713 9.424C4.67979 8.976 5.03179 8.50667 5.37313 8.016C5.72513 7.51467 6.03979 7.008 6.31713 6.496C6.60513 5.984 6.83446 5.47733 7.00513 4.976C7.17579 4.47467 7.26113 4 7.26113 3.552C7.26113 3.02933 7.11179 2.59733 6.81313 2.256C6.51446 1.904 6.06113 1.728 5.45312 1.728C5.04779 1.728 4.65313 1.81333 4.26913 1.984C3.88513 2.144 3.55446 2.33067 3.27713 2.544L2.74913 1.632C3.12246 1.312 3.56513 1.06133 4.07713 0.879999C4.58913 0.698666 5.13846 0.608 5.72513 0.608C6.18379 0.608 6.58913 0.677333 6.94113 0.815999C7.29313 0.943999 7.59179 1.13067 7.83713 1.376C8.08246 1.62133 8.26913 1.91467 8.39713 2.256C8.52513 2.58667 8.58913 2.94933 8.58913 3.344ZM10.8599 6.4C10.8599 4.48 11.1692 3.03467 11.7879 2.064C12.4172 1.09333 13.3292 0.608 14.5239 0.608C15.8145 0.608 16.7479 1.088 17.3239 2.048C17.9105 2.99733 18.2039 4.448 18.2039 6.4C18.2039 8.32 17.8892 9.76533 17.2599 10.736C16.6412 11.7067 15.7292 12.192 14.5239 12.192C13.2545 12.192 12.3265 11.6853 11.7399 10.672C11.1532 9.65867 10.8599 8.23467 10.8599 6.4ZM12.1879 6.4C12.1879 7.09333 12.2305 7.728 12.3159 8.304C12.4119 8.86933 12.5559 9.36 12.7479 9.776C12.9399 10.1813 13.1799 10.5013 13.4679 10.736C13.7665 10.96 14.1185 11.072 14.5239 11.072C15.3345 11.072 15.9265 10.6987 16.2999 9.952C16.6839 9.19467 16.8759 8.01067 16.8759 6.4C16.8759 5.71733 16.8332 5.088 16.7479 4.512C16.6732 3.936 16.5399 3.44 16.3479 3.024C16.1665 2.608 15.9265 2.288 15.6279 2.064C15.3292 1.84 14.9612 1.728 14.5239 1.728C13.7239 1.728 13.1319 2.10667 12.7479 2.864C12.3745 3.62133 12.1879 4.8 12.1879 6.4ZM24.1386 0.608L25.1466 1.056L19.3066 14.24L18.2986 13.792L24.1386 0.608ZM6.70113 21.608L7.70913 22.056L1.86913 35.24L0.861125 34.792L6.70113 21.608ZM14.2454 24.344C14.2454 24.9093 14.1387 25.4907 13.9254 26.088C13.7227 26.6747 13.4507 27.2667 13.1094 27.864C12.7787 28.4613 12.4054 29.048 11.9894 29.624C11.5734 30.1893 11.1574 30.728 10.7414 31.24L9.95738 31.928V31.992L10.9814 31.816H14.4694V33H8.10138V32.536C8.33604 32.2907 8.61871 31.9867 8.94938 31.624C9.28004 31.2613 9.62138 30.8613 9.97338 30.424C10.336 29.976 10.688 29.5067 11.0294 29.016C11.3814 28.5147 11.696 28.008 11.9734 27.496C12.2614 26.984 12.4907 26.4773 12.6614 25.976C12.832 25.4747 12.9174 25 12.9174 24.552C12.9174 24.0293 12.768 23.5973 12.4694 23.256C12.1707 22.904 11.7174 22.728 11.1094 22.728C10.704 22.728 10.3094 22.8133 9.92538 22.984C9.54138 23.144 9.21071 23.3307 8.93338 23.544L8.40538 22.632C8.77871 22.312 9.22138 22.0613 9.73338 21.88C10.2454 21.6987 10.7947 21.608 11.3814 21.608C11.84 21.608 12.2454 21.6773 12.5974 21.816C12.9494 21.944 13.248 22.1307 13.4934 22.376C13.7387 22.6213 13.9254 22.9147 14.0534 23.256C14.1814 23.5867 14.2454 23.9493 14.2454 24.344ZM16.5161 27.4C16.5161 25.48 16.8255 24.0347 17.4441 23.064C18.0735 22.0933 18.9855 21.608 20.1801 21.608C21.4708 21.608 22.4041 22.088 22.9801 23.048C23.5668 23.9973 23.8601 25.448 23.8601 27.4C23.8601 29.32 23.5455 30.7653 22.9161 31.736C22.2975 32.7067 21.3855 33.192 20.1801 33.192C18.9108 33.192 17.9828 32.6853 17.3961 31.672C16.8095 30.6587 16.5161 29.2347 16.5161 27.4ZM17.8441 27.4C17.8441 28.0933 17.8868 28.728 17.9721 29.304C18.0681 29.8693 18.2121 30.36 18.4041 30.776C18.5961 31.1813 18.8361 31.5013 19.1241 31.736C19.4228 31.96 19.7748 32.072 20.1801 32.072C20.9908 32.072 21.5828 31.6987 21.9561 30.952C22.3401 30.1947 22.5321 29.0107 22.5321 27.4C22.5321 26.7173 22.4895 26.088 22.4041 25.512C22.3295 24.936 22.1961 24.44 22.0041 24.024C21.8228 23.608 21.5828 23.288 21.2841 23.064C20.9855 22.84 20.6175 22.728 20.1801 22.728C19.3801 22.728 18.7881 23.1067 18.4041 23.864C18.0308 24.6213 17.8441 25.8 17.8441 27.4Z" fill="#0C131D"/>
</svg>
