<svg width="28" height="199" viewBox="0 0 28 199" fill="none" xmlns="http://www.w3.org/2000/svg">
<path d="M4.319 10.8946L-1.365 11.6786V11.7276L4.417 12.5606L27.3 19.6166V21.5766L4.319 28.6816L-1.365 29.5146V29.5636L4.417 30.4456L27.3 36.2276V40.1966L-7.539 30.6416V28.3876L15.442 21.4296L20.636 20.5476V20.3026L15.393 19.4206L-7.539 12.4626V10.2086L27.3 0.408602V4.7206L4.319 10.8946ZM27.3 44.7597V63.4287H23.674L23.674 48.8267H12.453L12.453 62.2037H8.827L8.827 48.8267L-3.374 48.8267L-3.374 63.6737H-7L-7 44.7597L27.3 44.7597ZM19.46 91.7082C18.6433 91.7082 17.8103 91.5776 16.961 91.3162C16.1117 91.0549 15.3113 90.6629 14.56 90.1402C13.8413 89.6176 13.2043 88.9479 12.649 88.1312C12.0937 87.3146 11.669 86.3509 11.375 85.2402H11.179C11.0157 86.2202 10.738 87.1512 10.346 88.0332C9.954 88.9479 9.415 89.7482 8.729 90.4342C8.043 91.1202 7.21 91.6756 6.23 92.1002C5.25 92.5249 4.09033 92.7372 2.751 92.7372C0.987001 92.7372 -0.548333 92.3616 -1.855 91.6102C-3.129 90.8916 -4.17433 89.9279 -4.991 88.7192C-5.80767 87.5432 -6.412 86.1876 -6.804 84.6522C-7.196 83.1169 -7.392 81.5489 -7.392 79.9482C-7.392 79.3929 -7.392 78.7396 -7.392 77.9882C-7.392 77.2369 -7.35933 76.4529 -7.294 75.6362C-7.26133 74.8196 -7.196 74.0029 -7.098 73.1862C-7.03267 72.3696 -6.91833 71.6509 -6.755 71.0302H27.006C27.202 72.2389 27.3653 73.6436 27.496 75.2442C27.6267 76.8449 27.692 78.5926 27.692 80.4872C27.692 81.7612 27.5777 83.0516 27.349 84.3582C27.153 85.6976 26.7447 86.9062 26.124 87.9842C25.536 89.0622 24.703 89.9442 23.625 90.6302C22.547 91.3489 21.1587 91.7082 19.46 91.7082ZM-3.864 80.3402C-3.864 81.3856 -3.74967 82.3982 -3.521 83.3782C-3.25967 84.3582 -2.86767 85.2239 -2.345 85.9752C-1.78967 86.7266 -1.12 87.3146 -0.336 87.7392C0.448 88.1966 1.379 88.4252 2.457 88.4252C3.79633 88.4252 4.87433 88.1476 5.691 87.5922C6.50767 87.0696 7.14467 86.3672 7.602 85.4852C8.05933 84.6359 8.36967 83.6722 8.533 82.5942C8.69633 81.5162 8.778 80.4382 8.778 79.3602V75.0972H-3.521C-3.58633 75.3259 -3.63533 75.6526 -3.668 76.0772C-3.70067 76.5019 -3.73333 76.9592 -3.766 77.4492C-3.79867 77.9392 -3.83133 78.4456 -3.864 78.9682C-3.864 79.4909 -3.864 79.9482 -3.864 80.3402ZM12.208 77.6452C12.208 78.2006 12.2243 78.8702 12.257 79.6542C12.2897 80.4382 12.3387 81.0916 12.404 81.6142C12.6653 82.3982 12.9757 83.1332 13.335 83.8192C13.727 84.5052 14.168 85.1096 14.658 85.6322C15.1807 86.1876 15.7687 86.6122 16.422 86.9062C17.108 87.2329 17.843 87.3962 18.627 87.3962C19.705 87.3962 20.587 87.1839 21.273 86.7592C21.9917 86.3672 22.5633 85.8282 22.988 85.1422C23.4127 84.4562 23.7067 83.6722 23.87 82.7902C24.066 81.9082 24.164 81.0099 24.164 80.0952C24.164 79.0172 24.1313 78.0209 24.066 77.1062C24.0333 76.2242 23.968 75.5546 23.87 75.0972H12.208V77.6452ZM27.888 111.552L26.516 114.639L-13.86 96.7545L-12.488 93.6675L27.888 111.552ZM27.3 116.968C27.398 117.588 27.4633 118.274 27.496 119.026C27.5613 119.81 27.594 120.61 27.594 121.427C27.6267 122.276 27.643 123.093 27.643 123.877C27.6757 124.693 27.692 125.445 27.692 126.131C27.692 128.875 27.2673 131.243 26.418 133.236C25.5687 135.261 24.3763 136.927 22.841 138.234C21.3383 139.54 19.5253 140.504 17.402 141.125C15.2787 141.778 12.943 142.105 10.395 142.105C8.07567 142.105 5.838 141.794 3.682 141.174C1.55867 140.586 -0.336 139.638 -2.002 138.332C-3.63533 137.025 -4.95833 135.326 -5.971 133.236C-6.951 131.145 -7.441 128.613 -7.441 125.641C-7.441 125.118 -7.42467 124.432 -7.392 123.583C-7.392 122.766 -7.35933 121.917 -7.294 121.035C-7.26133 120.153 -7.22867 119.336 -7.196 118.585C-7.16333 117.833 -7.11433 117.294 -7.049 116.968H27.3ZM24.066 126.229C24.066 125.804 24.066 125.33 24.066 124.808C24.066 124.318 24.0497 123.828 24.017 123.338C23.9843 122.848 23.9517 122.39 23.919 121.966C23.8863 121.574 23.8537 121.263 23.821 121.035H-3.619C-3.65167 121.198 -3.68433 121.508 -3.717 121.966C-3.717 122.423 -3.73333 122.897 -3.766 123.387C-3.766 123.877 -3.78233 124.35 -3.815 124.808C-3.815 125.265 -3.815 125.575 -3.815 125.739C-3.815 128.025 -3.423 129.936 -2.639 131.472C-1.855 133.04 -0.809666 134.281 0.497001 135.196C1.83633 136.143 3.35533 136.813 5.054 137.205C6.78533 137.597 8.56567 137.793 10.395 137.793C11.9957 137.793 13.5963 137.613 15.197 137.254C16.8303 136.894 18.3003 136.274 19.607 135.392C20.9137 134.51 21.9753 133.317 22.792 131.815C23.6413 130.345 24.066 128.483 24.066 126.229ZM27.3 149.028V167.697H23.674V153.095H12.453V166.472H8.827V153.095H-3.374V167.942H-7V149.028H27.3ZM3.731 184.217L-1.463 185.393V185.442L3.829 186.716L27.3 194.997V199.064L-7.539 186.079V184.266L27.3 171.036V175.495L3.731 184.217Z" fill="#0C131D"/>
</svg>
