<svg width="27" height="200" viewBox="0 0 27 200" fill="none" xmlns="http://www.w3.org/2000/svg">
<path d="M23.681 189.105L29.365 188.321V188.272L23.583 187.439L0.699998 180.383V178.423L23.681 171.318L29.365 170.485V170.436L23.583 169.554L0.699998 163.772V159.803L35.539 169.358V171.612L12.558 178.57L7.364 179.452V179.697L12.607 180.579L35.539 187.537V189.791L0.699998 199.591V195.279L23.681 189.105ZM0.699998 155.24V136.571H4.326L4.326 151.173H15.547L15.547 137.796H19.173L19.173 151.173H31.374L31.374 136.326H35L35 155.24H0.699998ZM8.54 108.292C9.35666 108.292 10.1897 108.422 11.039 108.684C11.8883 108.945 12.6887 109.337 13.44 109.86C14.1587 110.382 14.7957 111.052 15.351 111.869C15.9063 112.685 16.331 113.649 16.625 114.76H16.821C16.9843 113.78 17.262 112.849 17.654 111.967C18.046 111.052 18.585 110.252 19.271 109.566C19.957 108.88 20.79 108.324 21.77 107.9C22.75 107.475 23.9097 107.263 25.249 107.263C27.013 107.263 28.5483 107.638 29.855 108.39C31.129 109.108 32.1743 110.072 32.991 111.281C33.8077 112.457 34.412 113.812 34.804 115.348C35.196 116.883 35.392 118.451 35.392 120.052C35.392 120.607 35.392 121.26 35.392 122.012C35.392 122.763 35.3593 123.547 35.294 124.364C35.2613 125.18 35.196 125.997 35.098 126.814C35.0327 127.63 34.9183 128.349 34.755 128.97H0.994C0.797998 127.761 0.634664 126.356 0.503997 124.756C0.373332 123.155 0.308 121.407 0.308 119.513C0.308 118.239 0.422333 116.948 0.650998 115.642C0.846998 114.302 1.25533 113.094 1.876 112.016C2.464 110.938 3.297 110.056 4.375 109.37C5.453 108.651 6.84133 108.292 8.54 108.292ZM31.864 119.66C31.864 118.614 31.7497 117.602 31.521 116.622C31.2597 115.642 30.8677 114.776 30.345 114.025C29.7897 113.273 29.12 112.685 28.336 112.261C27.552 111.803 26.621 111.575 25.543 111.575C24.2037 111.575 23.1257 111.852 22.309 112.408C21.4923 112.93 20.8553 113.633 20.398 114.515C19.9407 115.364 19.6303 116.328 19.467 117.406C19.3037 118.484 19.222 119.562 19.222 120.64V124.903H31.521C31.5863 124.674 31.6353 124.347 31.668 123.923C31.7007 123.498 31.7333 123.041 31.766 122.551C31.7987 122.061 31.8313 121.554 31.864 121.032C31.864 120.509 31.864 120.052 31.864 119.66ZM15.792 122.355C15.792 121.799 15.7757 121.13 15.743 120.346C15.7103 119.562 15.6613 118.908 15.596 118.386C15.3347 117.602 15.0243 116.867 14.665 116.181C14.273 115.495 13.832 114.89 13.342 114.368C12.8193 113.812 12.2313 113.388 11.578 113.094C10.892 112.767 10.157 112.604 9.373 112.604C8.295 112.604 7.413 112.816 6.727 113.241C6.00833 113.633 5.43666 114.172 5.012 114.858C4.58733 115.544 4.29333 116.328 4.13 117.21C3.934 118.092 3.836 118.99 3.836 119.905C3.836 120.983 3.86867 121.979 3.934 122.894C3.96667 123.776 4.032 124.445 4.13 124.903H15.792V122.355ZM0.111999 88.4475L1.484 85.3605L41.86 103.246L40.488 106.333L0.111999 88.4475ZM0.699998 83.0323C0.601999 82.4116 0.536665 81.7256 0.503997 80.9743C0.438665 80.1903 0.405999 79.3899 0.405999 78.5733C0.373332 77.7239 0.356999 76.9073 0.356999 76.1233C0.324333 75.3066 0.308 74.5553 0.308 73.8693C0.308 71.1253 0.732666 68.7569 1.582 66.7643C2.43133 64.7389 3.62367 63.0729 5.159 61.7663C6.66167 60.4596 8.47467 59.4959 10.598 58.8753C12.7213 58.2219 15.057 57.8953 17.605 57.8953C19.9243 57.8953 22.162 58.2056 24.318 58.8263C26.4413 59.4143 28.336 60.3616 30.002 61.6683C31.6353 62.9749 32.9583 64.6736 33.971 66.7643C34.951 68.8549 35.441 71.3866 35.441 74.3593C35.441 74.8819 35.4247 75.5679 35.392 76.4173C35.392 77.2339 35.3593 78.0833 35.294 78.9653C35.2613 79.8473 35.2287 80.6639 35.196 81.4153C35.1633 82.1666 35.1143 82.7056 35.049 83.0323H0.699998ZM3.934 73.7713C3.934 74.1959 3.934 74.6696 3.934 75.1923C3.934 75.6823 3.95033 76.1723 3.983 76.6623C4.01567 77.1523 4.04833 77.6096 4.081 78.0343C4.11366 78.4263 4.14633 78.7366 4.179 78.9653H31.619C31.6517 78.8019 31.6843 78.4916 31.717 78.0343C31.717 77.5769 31.7333 77.1033 31.766 76.6133C31.766 76.1233 31.7823 75.6496 31.815 75.1923C31.815 74.7349 31.815 74.4246 31.815 74.2613C31.815 71.9746 31.423 70.0636 30.639 68.5283C29.855 66.9603 28.8097 65.7189 27.503 64.8043C26.1637 63.8569 24.6447 63.1873 22.946 62.7953C21.2147 62.4033 19.4343 62.2073 17.605 62.2073C16.0043 62.2073 14.4037 62.3869 12.803 62.7463C11.1697 63.1056 9.69967 63.7263 8.393 64.6083C7.08633 65.4903 6.02467 66.6826 5.208 68.1853C4.35867 69.6553 3.934 71.5173 3.934 73.7713ZM0.699998 50.9717V32.3027H4.326V46.9047H15.547V33.5277H19.173V46.9047H31.374V32.0577H35V50.9717H0.699998ZM24.269 15.7832L29.463 14.6072V14.5582L24.171 13.2842L0.699998 5.00321V0.936208L35.539 13.9212V15.7342L0.699998 28.9642V24.5052L24.269 15.7832Z" fill="#0C131D"/>
</svg>
