<svg width="200" height="20" viewBox="0 0 200 20" fill="none" xmlns="http://www.w3.org/2000/svg">
<path d="M10.6991 0.216L12.7151 1.112L1.03513 27.48L-0.980875 26.584L10.6991 0.216ZM28.5716 22.072C27.9316 22.5627 27.121 22.904 26.1396 23.096C25.1583 23.288 24.113 23.384 23.0036 23.384C21.6596 23.384 20.401 23.16 19.2276 22.712C18.0543 22.2427 17.0303 21.5387 16.1556 20.6C15.281 19.6613 14.5876 18.4667 14.0756 17.016C13.5636 15.544 13.3076 13.8053 13.3076 11.8C13.3076 9.70933 13.585 7.93867 14.1396 6.488C14.7156 5.016 15.4623 3.82133 16.3796 2.904C17.3183 1.96533 18.3636 1.28267 19.5156 0.855999C20.6676 0.429333 21.841 0.216 23.0356 0.216C24.3156 0.216 25.361 0.290666 26.1716 0.439999C26.9823 0.567998 27.6756 0.749332 28.2516 0.983999L27.6116 3.32C26.5876 2.82933 25.1263 2.584 23.2276 2.584C22.353 2.584 21.489 2.744 20.6356 3.064C19.7823 3.384 19.0143 3.90667 18.3316 4.632C17.6703 5.35733 17.137 6.30667 16.7316 7.48C16.3263 8.65333 16.1236 10.0933 16.1236 11.8C16.1236 13.336 16.3156 14.68 16.6996 15.832C17.0836 16.984 17.6063 17.944 18.2676 18.712C18.9503 19.48 19.7396 20.056 20.6356 20.44C21.553 20.824 22.545 21.016 23.6116 21.016C24.5716 21.016 25.4036 20.92 26.1076 20.728C26.833 20.536 27.441 20.2907 27.9316 19.992L28.5716 22.072ZM32.5169 0.599998H44.7089V2.968H35.1729V10.296H43.9089V12.664H35.1729V20.632H44.8689V23H32.5169V0.599998ZM49.6731 0.823999C50.4838 0.674665 51.4118 0.557332 52.4571 0.471998C53.5238 0.386666 54.4945 0.344 55.3691 0.344C56.3505 0.344 57.2785 0.450666 58.1531 0.664C59.0491 0.877333 59.8278 1.22933 60.4891 1.72C61.1718 2.21067 61.7158 2.85067 62.1211 3.64C62.5265 4.42933 62.7291 5.38933 62.7291 6.52C62.7291 8.26933 62.2491 9.688 61.2891 10.776C60.3291 11.864 59.1131 12.5893 57.6411 12.952L59.1771 14.136L64.7451 23H61.6411L55.4651 13.336L52.3291 12.856V23H49.6731V0.823999ZM55.4331 2.648C55.1558 2.648 54.8678 2.648 54.5691 2.648C54.2705 2.648 53.9825 2.65867 53.7051 2.68C53.4278 2.70133 53.1611 2.72267 52.9051 2.744C52.6705 2.76533 52.4785 2.79733 52.3291 2.84V11.096H54.8251C56.2971 11.096 57.5131 10.7333 58.4731 10.008C59.4331 9.28267 59.9131 8.152 59.9131 6.616C59.9131 5.464 59.5185 4.51467 58.7291 3.768C57.9398 3.02133 56.8411 2.648 55.4331 2.648ZM81.2309 2.968H74.2549V23H71.5989V2.968H64.6229V0.599998H81.2309V2.968ZM85.1249 0.599998H87.7809V23H85.1249V0.599998ZM93.8294 0.599998H106.021V2.968H96.4854V10.616H105.381V12.984H96.4854V23H93.8294V0.599998ZM110.969 0.599998H113.625V23H110.969V0.599998ZM134.009 22.072C133.369 22.5627 132.558 22.904 131.577 23.096C130.596 23.288 129.55 23.384 128.441 23.384C127.097 23.384 125.838 23.16 124.665 22.712C123.492 22.2427 122.468 21.5387 121.593 20.6C120.718 19.6613 120.025 18.4667 119.513 17.016C119.001 15.544 118.745 13.8053 118.745 11.8C118.745 9.70933 119.022 7.93867 119.577 6.488C120.153 5.016 120.9 3.82133 121.817 2.904C122.756 1.96533 123.801 1.28267 124.953 0.855999C126.105 0.429333 127.278 0.216 128.473 0.216C129.753 0.216 130.798 0.290666 131.609 0.439999C132.42 0.567998 133.113 0.749332 133.689 0.983999L133.049 3.32C132.025 2.82933 130.564 2.584 128.665 2.584C127.79 2.584 126.926 2.744 126.073 3.064C125.22 3.384 124.452 3.90667 123.769 4.632C123.108 5.35733 122.574 6.30667 122.169 7.48C121.764 8.65333 121.561 10.0933 121.561 11.8C121.561 13.336 121.753 14.68 122.137 15.832C122.521 16.984 123.044 17.944 123.705 18.712C124.388 19.48 125.177 20.056 126.073 20.44C126.99 20.824 127.982 21.016 129.049 21.016C130.009 21.016 130.841 20.92 131.545 20.728C132.27 20.536 132.878 20.2907 133.369 19.992L134.009 22.072ZM147.704 16.792H139.448L137.208 23H134.584L143.064 0.247999H144.28L152.792 23H150.008L147.704 16.792ZM140.312 14.488H146.904L144.408 7.672L143.608 4.28H143.576L142.776 7.736L140.312 14.488ZM168.075 2.968H161.099V23H158.443V2.968H151.467V0.599998H168.075V2.968ZM171.361 0.599998H183.553V2.968H174.017V10.296H182.753V12.664H174.017V20.632H183.713V23H171.361V0.599998ZM198.629 17.304C198.629 16.408 198.362 15.6827 197.829 15.128C197.296 14.552 196.624 14.0507 195.813 13.624C195.024 13.176 194.16 12.76 193.221 12.376C192.282 11.992 191.408 11.5333 190.597 11C189.808 10.4453 189.146 9.77333 188.613 8.984C188.08 8.17333 187.813 7.14933 187.813 5.912C187.813 4.16267 188.421 2.776 189.637 1.752C190.853 0.727999 192.581 0.216 194.821 0.216C196.122 0.216 197.306 0.312 198.373 0.504C199.44 0.696 200.272 0.941333 200.869 1.24L200.069 3.576C199.578 3.34133 198.853 3.11733 197.893 2.904C196.954 2.69067 195.888 2.584 194.693 2.584C193.285 2.584 192.229 2.904 191.525 3.544C190.821 4.16267 190.469 4.89867 190.469 5.752C190.469 6.584 190.736 7.27733 191.269 7.832C191.802 8.38667 192.464 8.888 193.253 9.336C194.064 9.76267 194.938 10.1893 195.877 10.616C196.816 11.0427 197.68 11.544 198.469 12.12C199.28 12.6747 199.952 13.3467 200.485 14.136C201.018 14.9253 201.285 15.9067 201.285 17.08C201.285 18.04 201.114 18.904 200.773 19.672C200.432 20.44 199.93 21.1013 199.269 21.656C198.608 22.2107 197.808 22.6373 196.869 22.936C195.93 23.2347 194.864 23.384 193.669 23.384C192.069 23.384 190.746 23.256 189.701 23C188.656 22.7653 187.845 22.4987 187.269 22.2L188.165 19.8C188.656 20.0773 189.381 20.3547 190.341 20.632C191.301 20.888 192.378 21.016 193.573 21.016C194.277 21.016 194.938 20.952 195.557 20.824C196.176 20.6747 196.709 20.4507 197.157 20.152C197.605 19.832 197.957 19.4373 198.213 18.968C198.49 18.4987 198.629 17.944 198.629 17.304Z" fill="black"/>
</svg>
