<svg width="1142" height="120" viewBox="0 0 1142 120" fill="none" xmlns="http://www.w3.org/2000/svg">
<g clip-path="url(#clip0)">
<path d="M239.517 5L255.267 12L164.017 218L148.267 211L239.517 5ZM379.146 175.75C374.146 179.583 367.813 182.25 360.146 183.75C352.479 185.25 344.313 186 335.646 186C325.146 186 315.313 184.25 306.146 180.75C296.979 177.083 288.979 171.583 282.146 164.25C275.313 156.917 269.896 147.583 265.896 136.25C261.896 124.75 259.896 111.167 259.896 95.5C259.896 79.1667 262.063 65.3333 266.396 54C270.896 42.5 276.729 33.1667 283.896 26C291.229 18.6667 299.396 13.3333 308.396 9.99999C317.396 6.66666 326.563 5 335.896 5C345.896 5 354.063 5.58333 360.396 6.74999C366.729 7.74999 372.146 9.16665 376.646 11L371.646 29.25C363.646 25.4167 352.229 23.5 337.396 23.5C330.563 23.5 323.813 24.75 317.146 27.25C310.479 29.75 304.479 33.8333 299.146 39.5C293.979 45.1667 289.813 52.5833 286.646 61.75C283.479 70.9167 281.896 82.1667 281.896 95.5C281.896 107.5 283.396 118 286.396 127C289.396 136 293.479 143.5 298.646 149.5C303.979 155.5 310.146 160 317.146 163C324.313 166 332.063 167.5 340.396 167.5C347.896 167.5 354.396 166.75 359.896 165.25C365.563 163.75 370.313 161.833 374.146 159.5L379.146 175.75ZM396.126 95.5C396.126 66.3333 402.293 44 414.626 28.5C426.96 12.8333 444.543 5 467.376 5C479.71 5 490.376 7.16666 499.376 11.5C508.376 15.8333 515.793 22 521.626 30C527.626 37.8333 532.043 47.3333 534.876 58.5C537.71 69.5 539.126 81.8333 539.126 95.5C539.126 124.667 532.876 147.083 520.376 162.75C508.043 178.25 490.376 186 467.376 186C455.21 186 444.626 183.833 435.626 179.5C426.793 175.167 419.376 169.083 413.376 161.25C407.543 153.25 403.21 143.75 400.376 132.75C397.543 121.583 396.126 109.167 396.126 95.5ZM418.126 95.5C418.126 105.167 419.043 114.333 420.876 123C422.876 131.667 425.876 139.333 429.876 146C433.876 152.5 438.96 157.75 445.126 161.75C451.46 165.583 458.876 167.5 467.376 167.5C482.876 167.5 495.043 161.667 503.876 150C512.71 138.167 517.126 120 517.126 95.5C517.126 86 516.126 76.9167 514.126 68.25C512.293 59.4167 509.293 51.75 505.126 45.25C501.126 38.5833 495.96 33.3333 489.626 29.5C483.46 25.5 476.043 23.5 467.376 23.5C452.043 23.5 439.96 29.4167 431.126 41.25C422.46 52.9167 418.126 71 418.126 95.5ZM574.275 7.99999C577.442 7.49999 580.942 7.16666 584.775 6.99999C588.775 6.66666 592.858 6.49999 597.025 6.49999C601.358 6.33333 605.525 6.25 609.525 6.25C613.692 6.08333 617.525 6 621.025 6C635.025 6 647.108 8.16666 657.275 12.5C667.608 16.8333 676.108 22.9167 682.775 30.75C689.442 38.4167 694.358 47.6667 697.525 58.5C700.858 69.3333 702.525 81.25 702.525 94.25C702.525 106.083 700.942 117.5 697.775 128.5C694.775 139.333 689.942 149 683.275 157.5C676.608 165.833 667.942 172.583 657.275 177.75C646.608 182.75 633.692 185.25 618.525 185.25C615.858 185.25 612.358 185.167 608.025 185C603.858 185 599.525 184.833 595.025 184.5C590.525 184.333 586.358 184.167 582.525 184C578.692 183.833 575.942 183.583 574.275 183.25V7.99999ZM621.525 24.5C619.358 24.5 616.942 24.5 614.275 24.5C611.775 24.5 609.275 24.5833 606.775 24.75C604.275 24.9167 601.942 25.0833 599.775 25.25C597.775 25.4167 596.192 25.5833 595.025 25.75V165.75C595.858 165.917 597.442 166.083 599.775 166.25C602.108 166.25 604.525 166.333 607.025 166.5C609.525 166.5 611.942 166.583 614.275 166.75C616.608 166.75 618.192 166.75 619.025 166.75C630.692 166.75 640.442 164.75 648.275 160.75C656.275 156.75 662.608 151.417 667.275 144.75C672.108 137.917 675.525 130.167 677.525 121.5C679.525 112.667 680.525 103.583 680.525 94.25C680.525 86.0833 679.608 77.9167 677.775 69.75C675.942 61.4167 672.775 53.9167 668.275 47.25C663.775 40.5833 657.692 35.1667 650.025 31C642.525 26.6667 633.025 24.5 621.525 24.5ZM737.849 7.99999H833.099V26.5H758.599V83.75H826.849V102.25H758.599V164.5H834.349V183H737.849V7.99999ZM950.882 138.5C950.882 131.5 948.799 125.833 944.632 121.5C940.466 117 935.216 113.083 928.882 109.75C922.716 106.25 915.966 103 908.632 100C901.299 97 894.466 93.4167 888.132 89.25C881.966 84.9167 876.799 79.6667 872.632 73.5C868.466 67.1667 866.382 59.1667 866.382 49.5C866.382 35.8333 871.132 25 880.632 17C890.132 9 903.632 5 921.132 5C931.299 5 940.549 5.75 948.882 7.25C957.216 8.75 963.716 10.6667 968.382 13L962.132 31.25C958.299 29.4167 952.632 27.6667 945.132 26C937.799 24.3333 929.466 23.5 920.132 23.5C909.132 23.5 900.882 26 895.382 31C889.882 35.8333 887.132 41.5833 887.132 48.25C887.132 54.75 889.216 60.1667 893.382 64.5C897.549 68.8333 902.716 72.75 908.882 76.25C915.216 79.5833 922.049 82.9167 929.382 86.25C936.716 89.5833 943.466 93.5 949.632 98C955.966 102.333 961.216 107.583 965.382 113.75C969.549 119.917 971.632 127.583 971.632 136.75C971.632 144.25 970.299 151 967.632 157C964.966 163 961.049 168.167 955.882 172.5C950.716 176.833 944.466 180.167 937.132 182.5C929.799 184.833 921.466 186 912.132 186C899.632 186 889.299 185 881.132 183C872.966 181.167 866.632 179.083 862.132 176.75L869.132 158C872.966 160.167 878.632 162.333 886.132 164.5C893.632 166.5 902.049 167.5 911.382 167.5C916.882 167.5 922.049 167 926.882 166C931.716 164.833 935.882 163.083 939.382 160.75C942.882 158.25 945.632 155.167 947.632 151.5C949.799 147.833 950.882 143.5 950.882 138.5Z" fill="white"/>
</g>
<defs>
<clipPath id="clip0">
<rect width="1142" height="228" fill="white" transform="translate(0 -24)"/>
</clipPath>
</defs>
</svg>
