<svg width="1100" height="120" viewBox="0 0 1100 120" fill="none" xmlns="http://www.w3.org/2000/svg">
<g clip-path="url(#clip0)">
<path d="M53.4976 -0.680003L70.1926 6.74L-26.5324 225.1L-43.2274 217.68L53.4976 -0.680003ZM201.504 180.315C196.204 184.378 189.491 187.205 181.364 188.795C173.238 190.385 164.581 191.18 155.394 191.18C144.264 191.18 133.841 189.325 124.124 185.615C114.408 181.728 105.928 175.898 98.6843 168.125C91.4409 160.352 85.6993 150.458 81.4593 138.445C77.2193 126.255 75.0993 111.857 75.0993 95.25C75.0993 77.9367 77.3959 63.2733 81.9893 51.26C86.7593 39.07 92.9426 29.1767 100.539 21.58C108.313 13.8067 116.969 8.15332 126.509 4.61999C136.049 1.08666 145.766 -0.680003 155.659 -0.680003C166.259 -0.680003 174.916 -0.0616726 181.629 1.17499C188.343 2.23499 194.084 3.73665 198.854 5.67999L193.554 25.025C185.074 20.9617 172.973 18.93 157.249 18.93C150.006 18.93 142.851 20.255 135.784 22.905C128.718 25.555 122.358 29.8833 116.704 35.89C111.228 41.8967 106.811 49.7583 103.454 59.475C100.098 69.1917 98.4193 81.1167 98.4193 95.25C98.4193 107.97 100.009 119.1 103.189 128.64C106.369 138.18 110.698 146.13 116.174 152.49C121.828 158.85 128.364 163.62 135.784 166.8C143.381 169.98 151.596 171.57 160.429 171.57C168.379 171.57 175.269 170.775 181.099 169.185C187.106 167.595 192.141 165.563 196.204 163.09L201.504 180.315ZM219.504 95.25C219.504 64.3333 226.04 40.66 239.114 24.23C252.187 7.62333 270.825 -0.680003 295.029 -0.680003C308.102 -0.680003 319.409 1.61666 328.949 6.20999C338.489 10.8033 346.35 17.34 352.534 25.82C358.894 34.1233 363.575 44.1933 366.579 56.03C369.582 67.69 371.084 80.7633 371.084 95.25C371.084 126.167 364.459 149.928 351.209 166.535C338.135 182.965 319.409 191.18 295.029 191.18C282.132 191.18 270.914 188.883 261.374 184.29C252.01 179.697 244.149 173.248 237.789 164.945C231.605 156.465 227.012 146.395 224.009 134.735C221.005 122.898 219.504 109.737 219.504 95.25ZM242.824 95.25C242.824 105.497 243.795 115.213 245.739 124.4C247.859 133.587 251.039 141.713 255.279 148.78C259.519 155.67 264.907 161.235 271.444 165.475C278.157 169.538 286.019 171.57 295.029 171.57C311.459 171.57 324.355 165.387 333.719 153.02C343.082 140.477 347.764 121.22 347.764 95.25C347.764 85.18 346.704 75.5517 344.584 66.365C342.64 57.0017 339.46 48.875 335.044 41.985C330.804 34.9183 325.327 29.3533 318.614 25.29C312.077 21.05 304.215 18.93 295.029 18.93C278.775 18.93 265.967 25.2017 256.604 37.745C247.417 50.1117 242.824 69.28 242.824 95.25ZM441.731 66.63L427.421 39.865H426.361L429.011 66.63V188H408.341V-0.415007H420.001L508.776 123.34L522.556 148.78H523.881L520.966 123.34V2.49999H541.636V190.915H529.976L441.731 66.63ZM706.427 22.11H648.657V188H626.662V22.11H568.892V2.49999H706.427V22.11ZM804.027 136.59H735.657L717.107 188H695.377L765.602 -0.415007H775.672L846.162 188H823.107L804.027 136.59ZM742.812 117.51H797.402L776.732 61.065L770.107 32.975H769.842L763.217 61.595L742.812 117.51ZM982.788 180.315C977.488 184.378 970.775 187.205 962.648 188.795C954.522 190.385 945.865 191.18 936.678 191.18C925.548 191.18 915.125 189.325 905.408 185.615C895.692 181.728 887.212 175.898 879.968 168.125C872.725 160.352 866.983 150.458 862.743 138.445C858.503 126.255 856.383 111.857 856.383 95.25C856.383 77.9367 858.68 63.2733 863.273 51.26C868.043 39.07 874.227 29.1767 881.823 21.58C889.597 13.8067 898.253 8.15332 907.793 4.61999C917.333 1.08666 927.05 -0.680003 936.943 -0.680003C947.543 -0.680003 956.2 -0.0616726 962.913 1.17499C969.627 2.23499 975.368 3.73665 980.138 5.67999L974.838 25.025C966.358 20.9617 954.257 18.93 938.533 18.93C931.29 18.93 924.135 20.255 917.068 22.905C910.002 25.555 903.642 29.8833 897.988 35.89C892.512 41.8967 888.095 49.7583 884.738 59.475C881.382 69.1917 879.703 81.1167 879.703 95.25C879.703 107.97 881.293 119.1 884.473 128.64C887.653 138.18 891.982 146.13 897.458 152.49C903.112 158.85 909.648 163.62 917.068 166.8C924.665 169.98 932.88 171.57 941.713 171.57C949.663 171.57 956.553 170.775 962.383 169.185C968.39 167.595 973.425 165.563 977.488 163.09L982.788 180.315ZM1127.74 22.11H1069.97V188H1047.97V22.11H990.2V2.49999H1127.74V22.11Z" fill="black"/>
</g>
<defs>
<clipPath id="clip0">
<rect width="1100" height="228" fill="white" transform="translate(0 -24)"/>
</clipPath>
</defs>
</svg>
