<svg width="200" height="38" viewBox="0 0 200 38" fill="none" xmlns="http://www.w3.org/2000/svg">
<path d="M17.2732 -1.04L20.1082 0.219999L3.68318 37.3L0.848184 36.04L17.2732 -1.04ZM42.4064 29.695C41.5064 30.385 40.3664 30.865 38.9864 31.135C37.6064 31.405 36.1364 31.54 34.5764 31.54C32.6864 31.54 30.9164 31.225 29.2664 30.595C27.6164 29.935 26.1764 28.945 24.9464 27.625C23.7164 26.305 22.7414 24.625 22.0214 22.585C21.3014 20.515 20.9414 18.07 20.9414 15.25C20.9414 12.31 21.3314 9.82 22.1114 7.78C22.9214 5.71 23.9714 4.03 25.2614 2.74C26.5814 1.42 28.0514 0.459998 29.6714 -0.140001C31.2914 -0.740001 32.9414 -1.04 34.6214 -1.04C36.4214 -1.04 37.8914 -0.935001 39.0314 -0.725002C40.1714 -0.545002 41.1464 -0.290002 41.9564 0.0399989L41.0564 3.325C39.6164 2.635 37.5614 2.29 34.8914 2.29C33.6614 2.29 32.4464 2.515 31.2464 2.965C30.0464 3.415 28.9664 4.15 28.0064 5.17C27.0764 6.19 26.3264 7.525 25.7564 9.175C25.1864 10.825 24.9014 12.85 24.9014 15.25C24.9014 17.41 25.1714 19.3 25.7114 20.92C26.2514 22.54 26.9864 23.89 27.9164 24.97C28.8764 26.05 29.9864 26.86 31.2464 27.4C32.5364 27.94 33.9314 28.21 35.4314 28.21C36.7814 28.21 37.9514 28.075 38.9414 27.805C39.9614 27.535 40.8164 27.19 41.5064 26.77L42.4064 29.695ZM45.4629 15.25C45.4629 10 46.5729 5.98 48.7929 3.19C51.0129 0.369999 54.1779 -1.04 58.2879 -1.04C60.5079 -1.04 62.4279 -0.650001 64.0479 0.129998C65.6679 0.909998 67.0029 2.02 68.0529 3.46C69.1329 4.87 69.9279 6.58 70.4379 8.59C70.9479 10.57 71.2029 12.79 71.2029 15.25C71.2029 20.5 70.0779 24.535 67.8279 27.355C65.6079 30.145 62.4279 31.54 58.2879 31.54C56.0979 31.54 54.1929 31.15 52.5729 30.37C50.9829 29.59 49.6479 28.495 48.5679 27.085C47.5179 25.645 46.7379 23.935 46.2279 21.955C45.7179 19.945 45.4629 17.71 45.4629 15.25ZM49.4229 15.25C49.4229 16.99 49.5879 18.64 49.9179 20.2C50.2779 21.76 50.8179 23.14 51.5379 24.34C52.2579 25.51 53.1729 26.455 54.2829 27.175C55.4229 27.865 56.7579 28.21 58.2879 28.21C61.0779 28.21 63.2679 27.16 64.8579 25.06C66.4479 22.93 67.2429 19.66 67.2429 15.25C67.2429 13.54 67.0629 11.905 66.7029 10.345C66.3729 8.755 65.8329 7.375 65.0829 6.205C64.3629 5.005 63.4329 4.06 62.2929 3.37C61.1829 2.65 59.8479 2.29 58.2879 2.29C55.5279 2.29 53.3529 3.355 51.7629 5.485C50.2029 7.585 49.4229 10.84 49.4229 15.25ZM83.1996 10.39L80.7696 5.845H80.5896L81.0396 10.39V31H77.5296V-0.995001H79.5096L94.5846 20.02L96.9246 24.34H97.1496L96.6546 20.02V-0.500002H100.165V31.495H98.1846L83.1996 10.39ZM128.148 2.83H118.338V31H114.603V2.83H104.793V-0.500002H128.148V2.83ZM144.722 22.27H133.112L129.962 31H126.272L138.197 -0.995001H139.907L151.877 31H147.962L144.722 22.27ZM134.327 19.03H143.597L140.087 9.445L138.962 4.675H138.917L137.792 9.535L134.327 19.03ZM175.077 29.695C174.177 30.385 173.037 30.865 171.657 31.135C170.277 31.405 168.807 31.54 167.247 31.54C165.357 31.54 163.587 31.225 161.937 30.595C160.287 29.935 158.847 28.945 157.617 27.625C156.387 26.305 155.412 24.625 154.692 22.585C153.972 20.515 153.612 18.07 153.612 15.25C153.612 12.31 154.002 9.82 154.782 7.78C155.592 5.71 156.642 4.03 157.932 2.74C159.252 1.42 160.722 0.459998 162.342 -0.140001C163.962 -0.740001 165.612 -1.04 167.292 -1.04C169.092 -1.04 170.562 -0.935001 171.702 -0.725002C172.842 -0.545002 173.817 -0.290002 174.627 0.0399989L173.727 3.325C172.287 2.635 170.232 2.29 167.562 2.29C166.332 2.29 165.117 2.515 163.917 2.965C162.717 3.415 161.637 4.15 160.677 5.17C159.747 6.19 158.997 7.525 158.427 9.175C157.857 10.825 157.572 12.85 157.572 15.25C157.572 17.41 157.842 19.3 158.382 20.92C158.922 22.54 159.657 23.89 160.587 24.97C161.547 26.05 162.657 26.86 163.917 27.4C165.207 27.94 166.602 28.21 168.102 28.21C169.452 28.21 170.622 28.075 171.612 27.805C172.632 27.535 173.487 27.19 174.177 26.77L175.077 29.695ZM199.691 2.83H189.881V31H186.146V2.83H176.336V-0.500002H199.691V2.83Z" fill="#0C131D"/>
</svg>
