<svg width="200" height="34" viewBox="0 0 200 34" fill="none" xmlns="http://www.w3.org/2000/svg">
<path d="M14.5298 0.535999L17.4908 1.852L0.33577 40.58L-2.62523 39.264L14.5298 0.535999ZM40.78 32.637C39.84 33.3577 38.6493 33.859 37.208 34.141C35.7667 34.423 34.2313 34.564 32.602 34.564C30.628 34.564 28.7793 34.235 27.056 33.577C25.3327 32.8877 23.8287 31.8537 22.544 30.475C21.2593 29.0963 20.241 27.3417 19.489 25.211C18.737 23.049 18.361 20.4953 18.361 17.55C18.361 14.4793 18.7683 11.8787 19.583 9.748C20.429 7.586 21.5257 5.83133 22.873 4.484C24.2517 3.10533 25.787 2.10266 27.479 1.476C29.171 0.849332 30.8943 0.535999 32.649 0.535999C34.529 0.535999 36.0643 0.645666 37.255 0.864998C38.4457 1.053 39.464 1.31933 40.31 1.664L39.37 5.095C37.866 4.37433 35.7197 4.014 32.931 4.014C31.6463 4.014 30.3773 4.249 29.124 4.719C27.8707 5.189 26.7427 5.95667 25.74 7.022C24.7687 8.08733 23.9853 9.48167 23.39 11.205C22.7947 12.9283 22.497 15.0433 22.497 17.55C22.497 19.806 22.779 21.78 23.343 23.472C23.907 25.164 24.6747 26.574 25.646 27.702C26.6487 28.83 27.808 29.676 29.124 30.24C30.4713 30.804 31.9283 31.086 33.495 31.086C34.905 31.086 36.127 30.945 37.161 30.663C38.2263 30.381 39.1193 30.0207 39.84 29.582L40.78 32.637ZM43.9723 17.55C43.9723 12.0667 45.1317 7.868 47.4503 4.954C49.769 2.00867 53.0747 0.535999 57.3673 0.535999C59.686 0.535999 61.6913 0.943332 63.3833 1.758C65.0753 2.57267 66.4697 3.732 67.5663 5.236C68.6943 6.70867 69.5247 8.49467 70.0573 10.594C70.59 12.662 70.8563 14.9807 70.8563 17.55C70.8563 23.0333 69.6813 27.2477 67.3313 30.193C65.0127 33.107 61.6913 34.564 57.3673 34.564C55.08 34.564 53.0903 34.1567 51.3983 33.342C49.7377 32.5273 48.3433 31.3837 47.2153 29.911C46.1187 28.407 45.304 26.621 44.7713 24.553C44.2387 22.4537 43.9723 20.1193 43.9723 17.55ZM48.1083 17.55C48.1083 19.3673 48.2807 21.0907 48.6253 22.72C49.0013 24.3493 49.5653 25.7907 50.3173 27.044C51.0693 28.266 52.025 29.253 53.1843 30.005C54.375 30.7257 55.7693 31.086 57.3673 31.086C60.2813 31.086 62.5687 29.9893 64.2293 27.796C65.89 25.5713 66.7203 22.156 66.7203 17.55C66.7203 15.764 66.5323 14.0563 66.1563 12.427C65.8117 10.7663 65.2477 9.325 64.4643 8.103C63.7123 6.84967 62.741 5.86267 61.5503 5.142C60.391 4.39 58.9967 4.014 57.3673 4.014C54.4847 4.014 52.213 5.12633 50.5523 7.351C48.923 9.54433 48.1083 12.944 48.1083 17.55ZM83.3862 12.474L80.8482 7.727H80.6602L81.1302 12.474V34H77.4642V0.582999H79.5322L95.2772 22.532L97.7212 27.044H97.9562L97.4392 22.532V1.1H101.105V34.517H99.0372L83.3862 12.474ZM130.332 4.578H120.086V34H116.185V4.578H105.939V1.1H130.332V4.578ZM147.643 24.882H135.517L132.227 34H128.373L140.828 0.582999H142.614L155.116 34H151.027L147.643 24.882ZM136.786 21.498H146.468L142.802 11.487L141.627 6.505H141.58L140.405 11.581L136.786 21.498ZM179.347 32.637C178.407 33.3577 177.217 33.859 175.775 34.141C174.334 34.423 172.799 34.564 171.169 34.564C169.195 34.564 167.347 34.235 165.623 33.577C163.9 32.8877 162.396 31.8537 161.111 30.475C159.827 29.0963 158.808 27.3417 158.056 25.211C157.304 23.049 156.928 20.4953 156.928 17.55C156.928 14.4793 157.336 11.8787 158.15 9.748C158.996 7.586 160.093 5.83133 161.44 4.484C162.819 3.10533 164.354 2.10266 166.046 1.476C167.738 0.849332 169.462 0.535999 171.216 0.535999C173.096 0.535999 174.632 0.645666 175.822 0.864998C177.013 1.053 178.031 1.31933 178.877 1.664L177.937 5.095C176.433 4.37433 174.287 4.014 171.498 4.014C170.214 4.014 168.945 4.249 167.691 4.719C166.438 5.189 165.31 5.95667 164.307 7.022C163.336 8.08733 162.553 9.48167 161.957 11.205C161.362 12.9283 161.064 15.0433 161.064 17.55C161.064 19.806 161.346 21.78 161.91 23.472C162.474 25.164 163.242 26.574 164.213 27.702C165.216 28.83 166.375 29.676 167.691 30.24C169.039 30.804 170.496 31.086 172.062 31.086C173.472 31.086 174.694 30.945 175.728 30.663C176.794 30.381 177.687 30.0207 178.407 29.582L179.347 32.637ZM205.055 4.578H194.809V34H190.908V4.578H180.662V1.1H205.055V4.578Z" fill="#0C131D"/>
</svg>
