<svg width="200" height="27" viewBox="0 0 200 27" fill="none" xmlns="http://www.w3.org/2000/svg">
<path d="M12.5298 0.535999L15.4908 1.852L-1.66423 40.58L-4.62523 39.264L12.5298 0.535999ZM38.78 32.637C37.84 33.3577 36.6493 33.859 35.208 34.141C33.7667 34.423 32.2313 34.564 30.602 34.564C28.628 34.564 26.7793 34.235 25.056 33.577C23.3327 32.8877 21.8287 31.8537 20.544 30.475C19.2593 29.0963 18.241 27.3417 17.489 25.211C16.737 23.049 16.361 20.4953 16.361 17.55C16.361 14.4793 16.7683 11.8787 17.583 9.748C18.429 7.586 19.5257 5.83133 20.873 4.484C22.2517 3.10533 23.787 2.10266 25.479 1.476C27.171 0.849332 28.8943 0.535999 30.649 0.535999C32.529 0.535999 34.0643 0.645666 35.255 0.864998C36.4457 1.053 37.464 1.31933 38.31 1.664L37.37 5.095C35.866 4.37433 33.7197 4.014 30.931 4.014C29.6463 4.014 28.3773 4.249 27.124 4.719C25.8707 5.189 24.7427 5.95667 23.74 7.022C22.7687 8.08733 21.9853 9.48167 21.39 11.205C20.7947 12.9283 20.497 15.0433 20.497 17.55C20.497 19.806 20.779 21.78 21.343 23.472C21.907 25.164 22.6747 26.574 23.646 27.702C24.6487 28.83 25.808 29.676 27.124 30.24C28.4713 30.804 29.9283 31.086 31.495 31.086C32.905 31.086 34.127 30.945 35.161 30.663C36.2263 30.381 37.1193 30.0207 37.84 29.582L38.78 32.637ZM41.9723 17.55C41.9723 12.0667 43.1317 7.868 45.4503 4.954C47.769 2.00867 51.0747 0.535999 55.3673 0.535999C57.686 0.535999 59.6913 0.943332 61.3833 1.758C63.0753 2.57267 64.4697 3.732 65.5663 5.236C66.6943 6.70867 67.5247 8.49467 68.0573 10.594C68.59 12.662 68.8563 14.9807 68.8563 17.55C68.8563 23.0333 67.6813 27.2477 65.3313 30.193C63.0127 33.107 59.6913 34.564 55.3673 34.564C53.08 34.564 51.0903 34.1567 49.3983 33.342C47.7377 32.5273 46.3433 31.3837 45.2153 29.911C44.1187 28.407 43.304 26.621 42.7713 24.553C42.2387 22.4537 41.9723 20.1193 41.9723 17.55ZM46.1083 17.55C46.1083 19.3673 46.2807 21.0907 46.6253 22.72C47.0013 24.3493 47.5653 25.7907 48.3173 27.044C49.0693 28.266 50.025 29.253 51.1843 30.005C52.375 30.7257 53.7693 31.086 55.3673 31.086C58.2813 31.086 60.5687 29.9893 62.2293 27.796C63.89 25.5713 64.7203 22.156 64.7203 17.55C64.7203 15.764 64.5323 14.0563 64.1563 12.427C63.8117 10.7663 63.2477 9.325 62.4643 8.103C61.7123 6.84967 60.741 5.86267 59.5503 5.142C58.391 4.39 56.9967 4.014 55.3673 4.014C52.4847 4.014 50.213 5.12633 48.5523 7.351C46.923 9.54433 46.1083 12.944 46.1083 17.55ZM81.3862 12.474L78.8482 7.727H78.6602L79.1302 12.474V34H75.4642V0.582999H77.5322L93.2772 22.532L95.7212 27.044H95.9562L95.4392 22.532V1.1H99.1052V34.517H97.0372L81.3862 12.474ZM128.332 4.578H118.086V34H114.185V4.578H103.939V1.1H128.332V4.578ZM145.643 24.882H133.517L130.227 34H126.373L138.828 0.582999H140.614L153.116 34H149.027L145.643 24.882ZM134.786 21.498H144.468L140.802 11.487L139.627 6.505H139.58L138.405 11.581L134.786 21.498ZM177.347 32.637C176.407 33.3577 175.217 33.859 173.775 34.141C172.334 34.423 170.799 34.564 169.169 34.564C167.195 34.564 165.347 34.235 163.623 33.577C161.9 32.8877 160.396 31.8537 159.111 30.475C157.827 29.0963 156.808 27.3417 156.056 25.211C155.304 23.049 154.928 20.4953 154.928 17.55C154.928 14.4793 155.336 11.8787 156.15 9.748C156.996 7.586 158.093 5.83133 159.44 4.484C160.819 3.10533 162.354 2.10266 164.046 1.476C165.738 0.849332 167.462 0.535999 169.216 0.535999C171.096 0.535999 172.632 0.645666 173.822 0.864998C175.013 1.053 176.031 1.31933 176.877 1.664L175.937 5.095C174.433 4.37433 172.287 4.014 169.498 4.014C168.214 4.014 166.945 4.249 165.691 4.719C164.438 5.189 163.31 5.95667 162.307 7.022C161.336 8.08733 160.553 9.48167 159.957 11.205C159.362 12.9283 159.064 15.0433 159.064 17.55C159.064 19.806 159.346 21.78 159.91 23.472C160.474 25.164 161.242 26.574 162.213 27.702C163.216 28.83 164.375 29.676 165.691 30.24C167.039 30.804 168.496 31.086 170.062 31.086C171.472 31.086 172.694 30.945 173.728 30.663C174.794 30.381 175.687 30.0207 176.407 29.582L177.347 32.637ZM203.055 4.578H192.809V34H188.908V4.578H178.662V1.1H203.055V4.578Z" fill="#EFEFEF"/>
</svg>
