<svg width="200" height="24" viewBox="0 0 200 24" fill="none" xmlns="http://www.w3.org/2000/svg">
<path d="M10.5021 0.944L12.8961 2.008L-0.973914 33.32L-3.36791 32.256L10.5021 0.944ZM14.7017 1.4H29.1797V4.212H17.8557V13.294H28.4197V16.106H17.8557V28H14.7017V1.4ZM34.3325 1.666C35.2952 1.48867 36.3972 1.34933 37.6385 1.248C38.9052 1.14667 40.0579 1.096 41.0965 1.096C42.2619 1.096 43.3639 1.22267 44.4025 1.476C45.4665 1.72933 46.3912 2.14733 47.1765 2.73C47.9872 3.31267 48.6332 4.07267 49.1145 5.01C49.5959 5.94733 49.8365 7.08733 49.8365 8.43C49.8365 10.5073 49.2665 12.192 48.1265 13.484C46.9865 14.776 45.5425 15.6373 43.7945 16.068L45.6185 17.474L52.2305 28H48.5445L41.2105 16.524L37.4865 15.954V28H34.3325V1.666ZM41.1725 3.832C40.8432 3.832 40.5012 3.832 40.1465 3.832C39.7919 3.832 39.4499 3.84467 39.1205 3.87C38.7912 3.89533 38.4745 3.92067 38.1705 3.946C37.8919 3.97133 37.6639 4.00933 37.4865 4.06V13.864H40.4505C42.1985 13.864 43.6425 13.4333 44.7825 12.572C45.9225 11.7107 46.4925 10.368 46.4925 8.544C46.4925 7.176 46.0239 6.04867 45.0865 5.162C44.1492 4.27533 42.8445 3.832 41.1725 3.832ZM54.1602 14.7C54.1602 10.2667 55.0976 6.872 56.9722 4.516C58.8469 2.13467 61.5196 0.944 64.9902 0.944C66.8649 0.944 68.4862 1.27333 69.8542 1.932C71.2222 2.59067 72.3496 3.528 73.2362 4.744C74.1482 5.93467 74.8196 7.37867 75.2502 9.076C75.6809 10.748 75.8962 12.6227 75.8962 14.7C75.8962 19.1333 74.9462 22.5407 73.0462 24.922C71.1716 27.278 68.4862 28.456 64.9902 28.456C63.1409 28.456 61.5322 28.1267 60.1642 27.468C58.8216 26.8093 57.6942 25.8847 56.7822 24.694C55.8956 23.478 55.2369 22.034 54.8062 20.362C54.3756 18.6647 54.1602 16.7773 54.1602 14.7ZM57.5042 14.7C57.5042 16.1693 57.6436 17.5627 57.9222 18.88C58.2262 20.1973 58.6822 21.3627 59.2902 22.376C59.8982 23.364 60.6709 24.162 61.6082 24.77C62.5709 25.3527 63.6982 25.644 64.9902 25.644C67.3462 25.644 69.1956 24.7573 70.5382 22.984C71.8809 21.1853 72.5522 18.424 72.5522 14.7C72.5522 13.256 72.4002 11.8753 72.0962 10.558C71.8176 9.21533 71.3616 8.05 70.7282 7.062C70.1202 6.04867 69.3349 5.25067 68.3722 4.668C67.4349 4.06 66.3076 3.756 64.9902 3.756C62.6596 3.756 60.8229 4.65533 59.4802 6.454C58.1629 8.22733 57.5042 10.976 57.5042 14.7ZM86.0268 10.596L83.9748 6.758H83.8228L84.2028 10.596V28H81.2388V0.981999H82.9108L95.6408 18.728L97.6168 22.376H97.8068L97.3888 18.728V1.4H100.353V28.418H98.6808L86.0268 10.596ZM123.983 4.212H115.699V28H112.545V4.212H104.261V1.4H123.983V4.212ZM123.706 15.65H132.902V18.462H123.706V15.65ZM138.387 1.4H152.865V4.212H141.541V12.914H151.915V15.726H141.541V25.188H153.055V28H138.387V1.4ZM163.548 10.596L161.496 6.758H161.344L161.724 10.596V28H158.76V0.981999H160.432L173.162 18.728L175.138 22.376H175.328L174.91 18.728V1.4H177.874V28.418H176.202L163.548 10.596ZM184.329 1.4C184.81 1.324 185.342 1.27333 185.925 1.248C186.533 1.19733 187.153 1.172 187.787 1.172C188.445 1.14667 189.079 1.134 189.687 1.134C190.32 1.10867 190.903 1.096 191.435 1.096C193.563 1.096 195.399 1.42533 196.945 2.084C198.515 2.74267 199.807 3.66733 200.821 4.858C201.834 6.02333 202.581 7.42933 203.063 9.076C203.569 10.7227 203.823 12.534 203.823 14.51C203.823 16.3087 203.582 18.044 203.101 19.716C202.645 21.3627 201.91 22.832 200.897 24.124C199.883 25.3907 198.566 26.4167 196.945 27.202C195.323 27.962 193.36 28.342 191.055 28.342C190.649 28.342 190.117 28.3293 189.459 28.304C188.825 28.304 188.167 28.2787 187.483 28.228C186.799 28.2027 186.165 28.1773 185.583 28.152C185 28.1267 184.582 28.0887 184.329 28.038V1.4ZM191.511 3.908C191.181 3.908 190.814 3.908 190.409 3.908C190.029 3.908 189.649 3.92067 189.269 3.946C188.889 3.97133 188.534 3.99667 188.205 4.022C187.901 4.04733 187.66 4.07267 187.483 4.098V25.378C187.609 25.4033 187.85 25.4287 188.205 25.454C188.559 25.454 188.927 25.4667 189.307 25.492C189.687 25.492 190.054 25.5047 190.409 25.53C190.763 25.53 191.004 25.53 191.131 25.53C192.904 25.53 194.386 25.226 195.577 24.618C196.793 24.01 197.755 23.1993 198.465 22.186C199.199 21.1473 199.719 19.9693 200.023 18.652C200.327 17.3093 200.479 15.9287 200.479 14.51C200.479 13.2687 200.339 12.0273 200.061 10.786C199.782 9.51933 199.301 8.37933 198.617 7.366C197.933 6.35267 197.008 5.52933 195.843 4.896C194.703 4.23733 193.259 3.908 191.511 3.908Z" fill="#0C131D"/>
</svg>
