<svg width="112" height="41" viewBox="0 0 112 41" fill="none" xmlns="http://www.w3.org/2000/svg">
<path d="M10.8318 20.1L-0.718164 -1H4.13184L12.3318 14.3L13.1818 17.35H13.2318L14.1318 14.2L21.9818 -1H26.4318L14.9818 20.05V34H10.8318V20.1ZM27.5119 16.5C27.5119 10.6667 28.7452 6.2 31.2119 3.1C33.6786 -0.0333343 37.1952 -1.6 41.7619 -1.6C44.2286 -1.6 46.3619 -1.16667 48.1619 -0.300002C49.9619 0.566665 51.4452 1.8 52.6119 3.4C53.8119 4.96667 54.6952 6.86667 55.2619 9.1C55.8286 11.3 56.1119 13.7667 56.1119 16.5C56.1119 22.3333 54.8619 26.8167 52.3619 29.95C49.8952 33.05 46.3619 34.6 41.7619 34.6C39.3286 34.6 37.2119 34.1667 35.4119 33.3C33.6452 32.4333 32.1619 31.2167 30.9619 29.65C29.7952 28.05 28.9286 26.15 28.3619 23.95C27.7952 21.7167 27.5119 19.2333 27.5119 16.5ZM31.9119 16.5C31.9119 18.4333 32.0952 20.2667 32.4619 22C32.8619 23.7333 33.4619 25.2667 34.2619 26.6C35.0619 27.9 36.0786 28.95 37.3119 29.75C38.5786 30.5167 40.0619 30.9 41.7619 30.9C44.8619 30.9 47.2952 29.7333 49.0619 27.4C50.8286 25.0333 51.7119 21.4 51.7119 16.5C51.7119 14.6 51.5119 12.7833 51.1119 11.05C50.7452 9.28333 50.1452 7.75 49.3119 6.45C48.5119 5.11667 47.4786 4.06667 46.2119 3.3C44.9786 2.5 43.4952 2.1 41.7619 2.1C38.6952 2.1 36.2786 3.28333 34.5119 5.65C32.7786 7.98333 31.9119 11.6 31.9119 16.5ZM75.2916 -1.6L78.4416 -0.200001L60.1916 41L57.0416 39.6L75.2916 -1.6ZM107.717 10.5L108.217 5.25H107.967L106.067 10.05L96.9674 25.85H95.7174L86.0674 10L84.2674 5.25H84.0174L84.7174 10.45V34H80.8174V-1H83.9174L94.8674 16.9L96.5174 20.8H96.6174L98.1674 16.8L108.617 -1H111.867V34H107.717V10.5Z" fill="#0C131D"/>
</svg>
