<svg width="200" height="27" viewBox="0 0 200 27" fill="none" xmlns="http://www.w3.org/2000/svg">
<path d="M12.8059 0.111999L15.8929 1.484L-1.99211 41.86L-5.07911 40.488L12.8059 0.111999ZM38.7522 19.271H22.2882V35H18.2212V0.699998H22.2882V15.645H38.7522V0.699998H42.8192V35H38.7522V19.271ZM49.722 17.85C49.722 12.1333 50.9307 7.756 53.348 4.718C55.7654 1.64733 59.2117 0.111999 63.687 0.111999C66.1044 0.111999 68.195 0.536665 69.959 1.386C71.723 2.23533 73.1767 3.444 74.32 5.012C75.496 6.54733 76.3617 8.40933 76.917 10.598C77.4724 12.754 77.75 15.1713 77.75 17.85C77.75 23.5667 76.525 27.9603 74.075 31.031C71.6577 34.069 68.195 35.588 63.687 35.588C61.3024 35.588 59.228 35.1633 57.464 34.314C55.7327 33.4647 54.279 32.2723 53.103 30.737C51.9597 29.169 51.1104 27.307 50.555 25.151C49.9997 22.9623 49.722 20.5287 49.722 17.85ZM54.034 17.85C54.034 19.7447 54.2137 21.5413 54.573 23.24C54.965 24.9387 55.553 26.4413 56.337 27.748C57.121 29.022 58.1174 30.051 59.326 30.835C60.5674 31.5863 62.021 31.962 63.687 31.962C66.725 31.962 69.1097 30.8187 70.841 28.532C72.5724 26.2127 73.438 22.652 73.438 17.85C73.438 15.988 73.242 14.2077 72.85 12.509C72.4907 10.7777 71.9027 9.275 71.086 8.001C70.302 6.69433 69.2894 5.66533 68.048 4.914C66.8394 4.13 65.3857 3.738 63.687 3.738C60.6817 3.738 58.3134 4.89767 56.582 7.217C54.8834 9.50367 54.034 13.048 54.034 17.85ZM105.317 8.54C105.317 9.35666 105.186 10.1897 104.925 11.039C104.664 11.8883 104.272 12.6887 103.749 13.44C103.226 14.1587 102.557 14.7957 101.74 15.351C100.923 15.9063 99.9598 16.331 98.8491 16.625V16.821C99.8291 16.9843 100.76 17.262 101.642 17.654C102.557 18.046 103.357 18.585 104.043 19.271C104.729 19.957 105.284 20.79 105.709 21.77C106.134 22.75 106.346 23.9097 106.346 25.249C106.346 27.013 105.97 28.5483 105.219 29.855C104.5 31.129 103.537 32.1743 102.328 32.991C101.152 33.8077 99.7965 34.412 98.2611 34.804C96.7258 35.196 95.1578 35.392 93.5571 35.392C93.0018 35.392 92.3485 35.392 91.5971 35.392C90.8458 35.392 90.0618 35.3593 89.2451 35.294C88.4285 35.2613 87.6118 35.196 86.7951 35.098C85.9785 35.0327 85.2598 34.9183 84.6391 34.755V0.994C85.8478 0.797998 87.2525 0.634664 88.8531 0.503997C90.4538 0.373332 92.2015 0.308 94.0961 0.308C95.3701 0.308 96.6605 0.422333 97.9671 0.650998C99.3065 0.846998 100.515 1.25533 101.593 1.876C102.671 2.464 103.553 3.297 104.239 4.375C104.958 5.453 105.317 6.84133 105.317 8.54ZM93.9491 31.864C94.9945 31.864 96.0071 31.7497 96.9871 31.521C97.9671 31.2597 98.8328 30.8677 99.5841 30.345C100.335 29.7897 100.923 29.12 101.348 28.336C101.805 27.552 102.034 26.621 102.034 25.543C102.034 24.2037 101.756 23.1257 101.201 22.309C100.678 21.4923 99.9761 20.8553 99.0941 20.398C98.2448 19.9407 97.2811 19.6303 96.2031 19.467C95.1251 19.3037 94.0471 19.222 92.9691 19.222H88.7061V31.521C88.9348 31.5863 89.2615 31.6353 89.6861 31.668C90.1108 31.7007 90.5681 31.7333 91.0581 31.766C91.5481 31.7987 92.0545 31.8313 92.5771 31.864C93.0998 31.864 93.5571 31.864 93.9491 31.864ZM91.2541 15.792C91.8095 15.792 92.4791 15.7757 93.2631 15.743C94.0471 15.7103 94.7005 15.6613 95.2231 15.596C96.0071 15.3347 96.7421 15.0243 97.4281 14.665C98.1141 14.273 98.7185 13.832 99.2411 13.342C99.7965 12.8193 100.221 12.2313 100.515 11.578C100.842 10.892 101.005 10.157 101.005 9.373C101.005 8.295 100.793 7.413 100.368 6.727C99.9761 6.00833 99.4371 5.43666 98.7511 5.012C98.0651 4.58733 97.2811 4.29333 96.3991 4.13C95.5171 3.934 94.6188 3.836 93.7041 3.836C92.6261 3.836 91.6298 3.86867 90.7151 3.934C89.8331 3.96667 89.1635 4.032 88.7061 4.13V15.792H91.2541ZM133.932 8.54C133.932 9.35666 133.802 10.1897 133.54 11.039C133.279 11.8883 132.887 12.6887 132.364 13.44C131.842 14.1587 131.172 14.7957 130.355 15.351C129.539 15.9063 128.575 16.331 127.464 16.625V16.821C128.444 16.9843 129.375 17.262 130.257 17.654C131.172 18.046 131.972 18.585 132.658 19.271C133.344 19.957 133.9 20.79 134.324 21.77C134.749 22.75 134.961 23.9097 134.961 25.249C134.961 27.013 134.586 28.5483 133.834 29.855C133.116 31.129 132.152 32.1743 130.943 32.991C129.767 33.8077 128.412 34.412 126.876 34.804C125.341 35.196 123.773 35.392 122.172 35.392C121.617 35.392 120.964 35.392 120.212 35.392C119.461 35.392 118.677 35.3593 117.86 35.294C117.044 35.2613 116.227 35.196 115.41 35.098C114.594 35.0327 113.875 34.9183 113.254 34.755V0.994C114.463 0.797998 115.868 0.634664 117.468 0.503997C119.069 0.373332 120.817 0.308 122.711 0.308C123.985 0.308 125.276 0.422333 126.582 0.650998C127.922 0.846998 129.13 1.25533 130.208 1.876C131.286 2.464 132.168 3.297 132.854 4.375C133.573 5.453 133.932 6.84133 133.932 8.54ZM122.564 31.864C123.61 31.864 124.622 31.7497 125.602 31.521C126.582 31.2597 127.448 30.8677 128.199 30.345C128.951 29.7897 129.539 29.12 129.963 28.336C130.421 27.552 130.649 26.621 130.649 25.543C130.649 24.2037 130.372 23.1257 129.816 22.309C129.294 21.4923 128.591 20.8553 127.709 20.398C126.86 19.9407 125.896 19.6303 124.818 19.467C123.74 19.3037 122.662 19.222 121.584 19.222H117.321V31.521C117.55 31.5863 117.877 31.6353 118.301 31.668C118.726 31.7007 119.183 31.7333 119.673 31.766C120.163 31.7987 120.67 31.8313 121.192 31.864C121.715 31.864 122.172 31.864 122.564 31.864ZM119.869 15.792C120.425 15.792 121.094 15.7757 121.878 15.743C122.662 15.7103 123.316 15.6613 123.838 15.596C124.622 15.3347 125.357 15.0243 126.043 14.665C126.729 14.273 127.334 13.832 127.856 13.342C128.412 12.8193 128.836 12.2313 129.13 11.578C129.457 10.892 129.62 10.157 129.62 9.373C129.62 8.295 129.408 7.413 128.983 6.727C128.591 6.00833 128.052 5.43666 127.366 5.012C126.68 4.58733 125.896 4.29333 125.014 4.13C124.132 3.934 123.234 3.836 122.319 3.836C121.241 3.836 120.245 3.86867 119.33 3.934C118.448 3.96667 117.779 4.032 117.321 4.13V15.792H119.869ZM142.801 0.699998H146.868V35H142.801V0.699998ZM156.129 0.699998H174.798V4.326H160.196V15.547H173.573V19.173H160.196V31.374H175.043V35H156.129V0.699998ZM197.884 26.278C197.884 24.906 197.476 23.7953 196.659 22.946C195.842 22.064 194.813 21.2963 193.572 20.643C192.363 19.957 191.04 19.32 189.603 18.732C188.166 18.144 186.826 17.4417 185.585 16.625C184.376 15.7757 183.364 14.7467 182.547 13.538C181.73 12.2967 181.322 10.7287 181.322 8.834C181.322 6.15533 182.253 4.032 184.115 2.464C185.977 0.895999 188.623 0.111999 192.053 0.111999C194.046 0.111999 195.859 0.258999 197.492 0.553C199.125 0.847 200.399 1.22267 201.314 1.68L200.089 5.257C199.338 4.89766 198.227 4.55467 196.757 4.228C195.32 3.90133 193.686 3.738 191.857 3.738C189.701 3.738 188.084 4.228 187.006 5.208C185.928 6.15533 185.389 7.28233 185.389 8.589C185.389 9.863 185.797 10.9247 186.614 11.774C187.431 12.6233 188.443 13.391 189.652 14.077C190.893 14.7303 192.233 15.3837 193.67 16.037C195.107 16.6903 196.43 17.458 197.639 18.34C198.88 19.1893 199.909 20.2183 200.726 21.427C201.543 22.6357 201.951 24.1383 201.951 25.935C201.951 27.405 201.69 28.728 201.167 29.904C200.644 31.08 199.877 32.0927 198.864 32.942C197.851 33.7913 196.626 34.4447 195.189 34.902C193.752 35.3593 192.118 35.588 190.289 35.588C187.839 35.588 185.814 35.392 184.213 35C182.612 34.6407 181.371 34.2323 180.489 33.775L181.861 30.1C182.612 30.5247 183.723 30.9493 185.193 31.374C186.663 31.766 188.313 31.962 190.142 31.962C191.22 31.962 192.233 31.864 193.18 31.668C194.127 31.4393 194.944 31.0963 195.63 30.639C196.316 30.149 196.855 29.5447 197.247 28.826C197.672 28.1073 197.884 27.258 197.884 26.278Z" fill="black"/>
</svg>
