<svg width="1100" height="120" viewBox="0 0 1100 120" fill="none" xmlns="http://www.w3.org/2000/svg">
<g clip-path="url(#clip0)">
<path d="M66.2875 3.76L83.2975 11.32L-15.2525 233.8L-32.2625 226.24L66.2875 3.76ZM209.257 109.33H118.537V196H96.1268V6.99999H118.537V89.35H209.257V6.99999H231.667V196H209.257V109.33ZM269.703 101.5C269.703 70 276.363 45.88 289.683 29.14C303.003 12.22 321.993 3.76 346.653 3.76C359.973 3.76 371.493 6.09999 381.213 10.78C390.933 15.46 398.943 22.12 405.243 30.76C411.723 39.22 416.493 49.48 419.553 61.54C422.613 73.42 424.143 86.74 424.143 101.5C424.143 133 417.393 157.21 403.893 174.13C390.573 190.87 371.493 199.24 346.653 199.24C333.513 199.24 322.083 196.9 312.363 192.22C302.823 187.54 294.813 180.97 288.333 172.51C282.033 163.87 277.353 153.61 274.293 141.73C271.233 129.67 269.703 116.26 269.703 101.5ZM293.463 101.5C293.463 111.94 294.453 121.84 296.433 131.2C298.593 140.56 301.833 148.84 306.153 156.04C310.473 163.06 315.963 168.73 322.623 173.05C329.463 177.19 337.473 179.26 346.653 179.26C363.393 179.26 376.533 172.96 386.073 160.36C395.613 147.58 400.383 127.96 400.383 101.5C400.383 91.24 399.303 81.43 397.143 72.07C395.163 62.53 391.923 54.25 387.423 47.23C383.103 40.03 377.523 34.36 370.683 30.22C364.023 25.9 356.013 23.74 346.653 23.74C330.093 23.74 317.043 30.13 307.503 42.91C298.143 55.51 293.463 75.04 293.463 101.5ZM576.043 50.2C576.043 54.7 575.323 59.29 573.883 63.97C572.443 68.65 570.283 73.06 567.403 77.2C564.523 81.16 560.833 84.67 556.333 87.73C551.833 90.79 546.523 93.13 540.403 94.75V95.83C545.803 96.73 550.933 98.26 555.793 100.42C560.833 102.58 565.243 105.55 569.023 109.33C572.803 113.11 575.863 117.7 578.203 123.1C580.543 128.5 581.713 134.89 581.713 142.27C581.713 151.99 579.643 160.45 575.503 167.65C571.543 174.67 566.233 180.43 559.573 184.93C553.093 189.43 545.623 192.76 537.163 194.92C528.703 197.08 520.063 198.16 511.243 198.16C508.183 198.16 504.583 198.16 500.443 198.16C496.303 198.16 491.983 197.98 487.483 197.62C482.983 197.44 478.483 197.08 473.983 196.54C469.483 196.18 465.523 195.55 462.103 194.65V8.62C468.763 7.53999 476.503 6.63999 485.323 5.91998C494.143 5.19999 503.773 4.84 514.213 4.84C521.233 4.84 528.343 5.47 535.543 6.72999C542.923 7.80999 549.583 10.06 555.523 13.48C561.463 16.72 566.323 21.31 570.103 27.25C574.063 33.19 576.043 40.84 576.043 50.2ZM513.403 178.72C519.163 178.72 524.743 178.09 530.143 176.83C535.543 175.39 540.313 173.23 544.453 170.35C548.593 167.29 551.833 163.6 554.173 159.28C556.693 154.96 557.953 149.83 557.953 143.89C557.953 136.51 556.423 130.57 553.363 126.07C550.483 121.57 546.613 118.06 541.753 115.54C537.073 113.02 531.763 111.31 525.823 110.41C519.883 109.51 513.943 109.06 508.003 109.06H484.513V176.83C485.773 177.19 487.573 177.46 489.913 177.64C492.253 177.82 494.773 178 497.473 178.18C500.173 178.36 502.963 178.54 505.843 178.72C508.723 178.72 511.243 178.72 513.403 178.72ZM498.553 90.16C501.613 90.16 505.303 90.07 509.623 89.89C513.943 89.71 517.543 89.44 520.423 89.08C524.743 87.64 528.793 85.93 532.573 83.95C536.353 81.79 539.683 79.36 542.563 76.66C545.623 73.78 547.963 70.54 549.583 66.94C551.383 63.16 552.283 59.11 552.283 54.79C552.283 48.85 551.113 43.99 548.773 40.21C546.613 36.25 543.643 33.1 539.863 30.76C536.083 28.42 531.763 26.8 526.903 25.9C522.043 24.82 517.093 24.28 512.053 24.28C506.113 24.28 500.623 24.46 495.583 24.82C490.723 25 487.033 25.36 484.513 25.9V90.16H498.553ZM733.719 50.2C733.719 54.7 732.999 59.29 731.559 63.97C730.119 68.65 727.959 73.06 725.079 77.2C722.199 81.16 718.509 84.67 714.009 87.73C709.509 90.79 704.199 93.13 698.079 94.75V95.83C703.479 96.73 708.609 98.26 713.469 100.42C718.509 102.58 722.919 105.55 726.699 109.33C730.479 113.11 733.539 117.7 735.879 123.1C738.219 128.5 739.389 134.89 739.389 142.27C739.389 151.99 737.319 160.45 733.179 167.65C729.219 174.67 723.909 180.43 717.249 184.93C710.769 189.43 703.299 192.76 694.839 194.92C686.379 197.08 677.739 198.16 668.919 198.16C665.859 198.16 662.259 198.16 658.119 198.16C653.979 198.16 649.659 197.98 645.159 197.62C640.659 197.44 636.159 197.08 631.659 196.54C627.159 196.18 623.199 195.55 619.779 194.65V8.62C626.439 7.53999 634.179 6.63999 642.999 5.91998C651.819 5.19999 661.449 4.84 671.889 4.84C678.909 4.84 686.019 5.47 693.219 6.72999C700.599 7.80999 707.259 10.06 713.199 13.48C719.139 16.72 723.999 21.31 727.779 27.25C731.739 33.19 733.719 40.84 733.719 50.2ZM671.079 178.72C676.839 178.72 682.419 178.09 687.819 176.83C693.219 175.39 697.989 173.23 702.129 170.35C706.269 167.29 709.509 163.6 711.849 159.28C714.369 154.96 715.629 149.83 715.629 143.89C715.629 136.51 714.099 130.57 711.039 126.07C708.159 121.57 704.289 118.06 699.429 115.54C694.749 113.02 689.439 111.31 683.499 110.41C677.559 109.51 671.619 109.06 665.679 109.06H642.189V176.83C643.449 177.19 645.249 177.46 647.589 177.64C649.929 177.82 652.449 178 655.149 178.18C657.849 178.36 660.639 178.54 663.519 178.72C666.399 178.72 668.919 178.72 671.079 178.72ZM656.229 90.16C659.289 90.16 662.979 90.07 667.299 89.89C671.619 89.71 675.219 89.44 678.099 89.08C682.419 87.64 686.469 85.93 690.249 83.95C694.029 81.79 697.359 79.36 700.239 76.66C703.299 73.78 705.639 70.54 707.259 66.94C709.059 63.16 709.959 59.11 709.959 54.79C709.959 48.85 708.789 43.99 706.449 40.21C704.289 36.25 701.319 33.1 697.539 30.76C693.759 28.42 689.439 26.8 684.579 25.9C679.719 24.82 674.769 24.28 669.729 24.28C663.789 24.28 658.299 24.46 653.259 24.82C648.399 25 644.709 25.36 642.189 25.9V90.16H656.229ZM782.585 6.99999H804.995V196H782.585V6.99999ZM856.029 6.99999H958.899V26.98H878.439V88.81H952.149V108.79H878.439V176.02H960.249V196H856.029V6.99999ZM1086.1 147.94C1086.1 140.38 1083.85 134.26 1079.35 129.58C1074.85 124.72 1069.18 120.49 1062.34 116.89C1055.68 113.11 1048.39 109.6 1040.47 106.36C1032.55 103.12 1025.17 99.25 1018.33 94.75C1011.67 90.07 1006.09 84.4 1001.59 77.74C997.095 70.9 994.845 62.26 994.845 51.82C994.845 37.06 999.975 25.36 1010.23 16.72C1020.49 8.07999 1035.07 3.76 1053.97 3.76C1064.95 3.76 1074.94 4.57 1083.94 6.19C1092.94 7.81 1099.96 9.88 1105 12.4L1098.25 32.11C1094.11 30.13 1087.99 28.24 1079.89 26.44C1071.97 24.64 1062.97 23.74 1052.89 23.74C1041.01 23.74 1032.1 26.44 1026.16 31.84C1020.22 37.06 1017.25 43.27 1017.25 50.47C1017.25 57.49 1019.5 63.34 1024 68.02C1028.5 72.7 1034.08 76.93 1040.74 80.71C1047.58 84.31 1054.96 87.91 1062.88 91.51C1070.8 95.11 1078.09 99.34 1084.75 104.2C1091.59 108.88 1097.26 114.55 1101.76 121.21C1106.26 127.87 1108.51 136.15 1108.51 146.05C1108.51 154.15 1107.07 161.44 1104.19 167.92C1101.31 174.4 1097.08 179.98 1091.5 184.66C1085.92 189.34 1079.17 192.94 1071.25 195.46C1063.33 197.98 1054.33 199.24 1044.25 199.24C1030.75 199.24 1019.59 198.16 1010.77 196C1001.95 194.02 995.115 191.77 990.255 189.25L997.815 169C1001.95 171.34 1008.07 173.68 1016.17 176.02C1024.27 178.18 1033.36 179.26 1043.44 179.26C1049.38 179.26 1054.96 178.72 1060.18 177.64C1065.4 176.38 1069.9 174.49 1073.68 171.97C1077.46 169.27 1080.43 165.94 1082.59 161.98C1084.93 158.02 1086.1 153.34 1086.1 147.94Z" fill="white"/>
</g>
<defs>
<clipPath id="clip0">
<rect width="1100" height="228" fill="white" transform="translate(0 -20)"/>
</clipPath>
</defs>
</svg>
