<svg width="147" height="28" viewBox="0 0 147 28" fill="none" xmlns="http://www.w3.org/2000/svg">
<path d="M18.5104 0.399999L21.6604 1.8L3.41035 43L0.260352 41.6L18.5104 0.399999ZM44.7361 36H24.0361V0.999998H28.1861V32.3H44.7361V36ZM50.8162 0.999998H54.9662V36H50.8162V0.999998ZM70.717 13.1L68.017 8.05H67.817L68.317 13.1V36H64.417V0.449999H66.617L83.367 23.8L85.967 28.6H86.217L85.667 23.8V0.999998H89.567V36.55H87.367L70.717 13.1ZM104.56 19.8H102.21V36H98.0596V0.999998H102.21V17.3L104.46 16.6L116.21 0.999998H121.01L109.31 16.05L107.21 17.7L109.76 19.7L122.56 36H117.31L104.56 19.8ZM144.377 27.1C144.377 25.7 143.96 24.5667 143.127 23.7C142.294 22.8 141.244 22.0167 139.977 21.35C138.744 20.65 137.394 20 135.927 19.4C134.46 18.8 133.094 18.0833 131.827 17.25C130.594 16.3833 129.56 15.3333 128.727 14.1C127.894 12.8333 127.477 11.2333 127.477 9.3C127.477 6.56666 128.427 4.4 130.327 2.8C132.227 1.2 134.927 0.399999 138.427 0.399999C140.46 0.399999 142.31 0.549999 143.977 0.85C145.644 1.15 146.944 1.53333 147.877 2L146.627 5.65C145.86 5.28333 144.727 4.93333 143.227 4.6C141.76 4.26667 140.094 4.1 138.227 4.1C136.027 4.1 134.377 4.6 133.277 5.6C132.177 6.56666 131.627 7.71666 131.627 9.05C131.627 10.35 132.044 11.4333 132.877 12.3C133.71 13.1667 134.744 13.95 135.977 14.65C137.244 15.3167 138.61 15.9833 140.077 16.65C141.544 17.3167 142.894 18.1 144.127 19C145.394 19.8667 146.444 20.9167 147.277 22.15C148.11 23.3833 148.527 24.9167 148.527 26.75C148.527 28.25 148.26 29.6 147.727 30.8C147.194 32 146.41 33.0333 145.377 33.9C144.344 34.7667 143.094 35.4333 141.627 35.9C140.16 36.3667 138.494 36.6 136.627 36.6C134.127 36.6 132.06 36.4 130.427 36C128.794 35.6333 127.527 35.2167 126.627 34.75L128.027 31C128.794 31.4333 129.927 31.8667 131.427 32.3C132.927 32.7 134.61 32.9 136.477 32.9C137.577 32.9 138.61 32.8 139.577 32.6C140.544 32.3667 141.377 32.0167 142.077 31.55C142.777 31.05 143.327 30.4333 143.727 29.7C144.16 28.9667 144.377 28.1 144.377 27.1Z" fill="black"/>
</svg>
