<svg width="1037" height="134" viewBox="0 0 1037 134" fill="none" xmlns="http://www.w3.org/2000/svg">
<g clip-path="url(#clip0)">
<path d="M184.758 5.64L202.398 13.48L100.198 244.2L82.558 236.36L184.758 5.64ZM331.622 205H215.702V8.99999H238.942V184.28H331.622V205ZM365.671 8.99999H388.911V205H365.671V8.99999ZM477.115 76.76L461.995 48.48H460.875L463.675 76.76V205H441.835V5.91999H454.155L547.955 136.68L562.515 163.56H563.915L560.835 136.68V8.99999H582.675V208.08H570.355L477.115 76.76ZM666.634 114.28H653.474V205H630.234V8.99999H653.474V100.28L666.074 96.36L731.874 8.99999H758.754L693.234 93.28L681.474 102.52L695.754 113.72L767.434 205H738.034L666.634 114.28ZM889.612 155.16C889.612 147.32 887.279 140.973 882.612 136.12C877.945 131.08 872.065 126.693 864.972 122.96C858.065 119.04 850.505 115.4 842.292 112.04C834.079 108.68 826.425 104.667 819.332 100C812.425 95.1467 806.639 89.2667 801.972 82.36C797.305 75.2667 794.972 66.3067 794.972 55.48C794.972 40.1733 800.292 28.04 810.932 19.08C821.572 10.12 836.692 5.64 856.292 5.64C867.679 5.64 878.039 6.48 887.372 8.16C896.705 9.84 903.985 11.9867 909.212 14.6L902.212 35.04C897.919 32.9867 891.572 31.0267 883.172 29.16C874.959 27.2933 865.625 26.36 855.172 26.36C842.852 26.36 833.612 29.16 827.452 34.76C821.292 40.1733 818.212 46.6133 818.212 54.08C818.212 61.36 820.545 67.4267 825.212 72.28C829.879 77.1333 835.665 81.52 842.572 85.44C849.665 89.1733 857.319 92.9067 865.532 96.64C873.745 100.373 881.305 104.76 888.212 109.8C895.305 114.653 901.185 120.533 905.852 127.44C910.519 134.347 912.852 142.933 912.852 153.2C912.852 161.6 911.359 169.16 908.372 175.88C905.385 182.6 900.999 188.387 895.212 193.24C889.425 198.093 882.425 201.827 874.212 204.44C865.999 207.053 856.665 208.36 846.212 208.36C832.212 208.36 820.639 207.24 811.492 205C802.345 202.947 795.252 200.613 790.212 198L798.052 177C802.345 179.427 808.692 181.853 817.092 184.28C825.492 186.52 834.919 187.64 845.372 187.64C851.532 187.64 857.319 187.08 862.732 185.96C868.145 184.653 872.812 182.693 876.732 180.08C880.652 177.28 883.732 173.827 885.972 169.72C888.399 165.613 889.612 160.76 889.612 155.16Z" fill="white"/>
</g>
<defs>
<clipPath id="clip0">
<rect width="1100" height="228" fill="white" transform="translate(-40 -13)"/>
</clipPath>
</defs>
</svg>
