<svg width="200" height="26" viewBox="0 0 200 26" fill="none" xmlns="http://www.w3.org/2000/svg">
<path d="M13.479 0.383999L16.188 1.588L0.493 37.02L-2.216 35.816L13.479 0.383999ZM36.0332 31H18.2312V0.899998H21.8002V27.818H36.0332V31ZM36.3426 15.95C36.3426 10.9333 37.4032 7.092 39.5246 4.426C41.6459 1.73133 44.6702 0.383999 48.5976 0.383999C50.7189 0.383999 52.5536 0.756666 54.1016 1.502C55.6496 2.24733 56.9252 3.308 57.9286 4.684C58.9606 6.03133 59.7202 7.66533 60.2076 9.586C60.6949 11.478 60.9386 13.5993 60.9386 15.95C60.9386 20.9667 59.8636 24.8223 57.7136 27.517C55.5922 30.183 52.5536 31.516 48.5976 31.516C46.5049 31.516 44.6846 31.1433 43.1366 30.398C41.6172 29.6527 40.3416 28.6063 39.3096 27.259C38.3062 25.883 37.5609 24.249 37.0736 22.357C36.5862 20.4363 36.3426 18.3007 36.3426 15.95ZM40.1266 15.95C40.1266 17.6127 40.2842 19.1893 40.5996 20.68C40.9436 22.1707 41.4596 23.4893 42.1476 24.636C42.8356 25.754 43.7099 26.657 44.7706 27.345C45.8599 28.0043 47.1356 28.334 48.5976 28.334C51.2636 28.334 53.3562 27.3307 54.8756 25.324C56.3949 23.2887 57.1546 20.164 57.1546 15.95C57.1546 14.316 56.9826 12.7537 56.6386 11.263C56.3232 9.74367 55.8072 8.425 55.0906 7.307C54.4026 6.16033 53.5139 5.25733 52.4246 4.598C51.3639 3.91 50.0882 3.566 48.5976 3.566C45.9602 3.566 43.8819 4.58367 42.3626 6.619C40.8719 8.62567 40.1266 11.736 40.1266 15.95ZM86.2481 29.753C85.3881 30.4123 84.2988 30.871 82.9801 31.129C81.6614 31.387 80.2568 31.516 78.7661 31.516C76.9601 31.516 75.2688 31.215 73.6921 30.613C72.1154 29.9823 70.7394 29.0363 69.5641 27.775C68.3888 26.5137 67.4571 24.9083 66.7691 22.959C66.0811 20.981 65.7371 18.6447 65.7371 15.95C65.7371 13.1407 66.1098 10.7613 66.8551 8.812C67.6291 6.834 68.6324 5.22867 69.8651 3.996C71.1264 2.73466 72.5311 1.81733 74.0791 1.244C75.6271 0.670666 77.2038 0.383999 78.8091 0.383999C80.5291 0.383999 81.9338 0.484332 83.0231 0.684998C84.1124 0.856998 85.0441 1.10066 85.8181 1.416L84.9581 4.555C83.5821 3.89567 81.6184 3.566 79.0671 3.566C77.8918 3.566 76.7308 3.781 75.5841 4.211C74.4374 4.641 73.4054 5.34333 72.4881 6.318C71.5994 7.29267 70.8828 8.56833 70.3381 10.145C69.7934 11.7217 69.5211 13.6567 69.5211 15.95C69.5211 18.014 69.7791 19.82 70.2951 21.368C70.8111 22.916 71.5134 24.206 72.4021 25.238C73.3194 26.27 74.3801 27.044 75.5841 27.56C76.8168 28.076 78.1498 28.334 79.5831 28.334C80.8731 28.334 81.9911 28.205 82.9371 27.947C83.9118 27.689 84.7288 27.3593 85.3881 26.958L86.2481 29.753ZM104.651 22.658H93.5568L90.5468 31H87.0208L98.4158 0.426999H100.05L111.488 31H107.747L104.651 22.658ZM94.7178 19.562H103.576L100.222 10.403L99.1468 5.845H99.1038L98.0288 10.489L94.7178 19.562ZM132.024 4.082H122.65V31H119.081V4.082H109.707V0.899998H132.024V4.082ZM137.256 0.899998H140.825V31H137.256V0.899998ZM147.706 15.95C147.706 10.9333 148.767 7.092 150.888 4.426C153.009 1.73133 156.034 0.383999 159.961 0.383999C162.082 0.383999 163.917 0.756666 165.465 1.502C167.013 2.24733 168.289 3.308 169.292 4.684C170.324 6.03133 171.084 7.66533 171.571 9.586C172.058 11.478 172.302 13.5993 172.302 15.95C172.302 20.9667 171.227 24.8223 169.077 27.517C166.956 30.183 163.917 31.516 159.961 31.516C157.868 31.516 156.048 31.1433 154.5 30.398C152.981 29.6527 151.705 28.6063 150.673 27.259C149.67 25.883 148.924 24.249 148.437 22.357C147.95 20.4363 147.706 18.3007 147.706 15.95ZM151.49 15.95C151.49 17.6127 151.648 19.1893 151.963 20.68C152.307 22.1707 152.823 23.4893 153.511 24.636C154.199 25.754 155.073 26.657 156.134 27.345C157.223 28.0043 158.499 28.334 159.961 28.334C162.627 28.334 164.72 27.3307 166.239 25.324C167.758 23.2887 168.518 20.164 168.518 15.95C168.518 14.316 168.346 12.7537 168.002 11.263C167.687 9.74367 167.171 8.425 166.454 7.307C165.766 6.16033 164.877 5.25733 163.788 4.598C162.727 3.91 161.452 3.566 159.961 3.566C157.324 3.566 155.245 4.58367 153.726 6.619C152.235 8.62567 151.49 11.736 151.49 15.95ZM183.765 11.306L181.443 6.963H181.271L181.701 11.306V31H178.347V0.426999H180.239L194.644 20.508L196.88 24.636H197.095L196.622 20.508V0.899998H199.976V31.473H198.084L183.765 11.306Z" fill="black"/>
</svg>
