<svg width="59" height="18" viewBox="0 0 59 18" fill="none" xmlns="http://www.w3.org/2000/svg">
<path d="M31.4385 0.257389C30.9685 0.350969 29.6527 0.842272 28.5249 1.31018C26.7391 2.03543 26.1987 2.15241 24.5775 2.17581C22.8152 2.17581 22.2043 2.03543 20.63 1.2166C20.5125 1.16981 20.442 2.03543 20.442 3.11162V5.10022L21.1704 5.26399C21.7109 5.38097 21.8518 5.52134 21.7344 5.80208C20.818 8.18841 20.63 9.10082 20.724 10.9023C20.7945 12.3996 20.959 13.0078 21.4524 13.8501C22.8857 16.3066 25.4938 17.6869 28.1959 17.4764C30.0522 17.3126 30.9215 16.9617 33.2712 15.441C35.1274 14.2244 36.0908 13.9203 37.4771 14.084L38.2995 14.1776V12.3528V10.5279H36.9367C35.0099 10.5279 33.6236 10.9958 31.5324 12.3762C28.7364 14.1776 27.632 14.435 26.0812 13.5927C24.1545 12.5867 23.6141 10.1302 24.7889 7.81408C25.6583 6.15301 26.0577 5.77869 27.3735 5.42776C28.0315 5.26399 29.3473 4.79608 30.3106 4.39836C31.6734 3.83687 32.5193 3.64971 34.0701 3.55613C35.9968 3.46255 36.5137 3.57953 38.135 4.39836C38.229 4.44515 38.2995 3.60292 38.2995 2.50334V0.514738L37.2656 0.257389C36.0438 -0.046751 32.7073 -0.046751 31.4385 0.257389Z" fill="#06BCC1"/>
<path d="M56.2744 0.561499C55.0056 1.14638 54.0657 2.0588 53.5958 3.25196L53.2903 3.97722H49.8363H46.3823L45.2075 2.85424C44.1031 1.80145 42.7873 1.16978 41.6125 1.16978C41.1426 1.16978 41.1191 1.28675 41.1191 2.90103V4.60889L41.824 4.74926C42.2704 4.84285 42.6934 5.17038 42.9988 5.66168C43.4217 6.36354 43.4687 6.85484 43.4687 10.9256V15.4409L44.4321 16.1194C45.7949 17.102 46.8523 17.4295 48.873 17.4295C50.9877 17.4295 52.7734 16.7043 54.2067 15.2772C55.8984 13.5927 56.2509 12.5399 56.3919 8.53931C56.5329 4.60889 56.6738 4.18778 58.0601 3.64968L58.906 3.29875L58.953 1.66108L59 1.14441e-05H58.2246C57.8017 1.14441e-05 56.9088 0.25736 56.2744 0.561499ZM52.8674 9.12419C52.8674 10.0366 52.7264 11.1128 52.5384 11.5339C51.857 13.1716 49.6484 14.318 47.9801 13.8968L47.1107 13.6863L47.0402 10.9022C47.0167 9.35814 47.0402 7.95442 47.0872 7.79066C47.1812 7.5567 47.9331 7.48652 50.0478 7.48652H52.8674V9.12419Z" fill="#06BCC1"/>
<path d="M2.27917 5.381C1.78574 5.52137 1.08084 5.77872 0.704898 5.96588C0 6.31681 0 6.3402 0 8.44578V10.5748L0.798885 9.8729C1.76225 9.03067 3.61848 8.56276 5.14576 8.79671C5.75667 8.8903 7.02549 9.31141 7.98885 9.73253C10.503 10.8087 11.7013 11.0661 13.9335 10.9491C15.2963 10.8789 16.1422 10.6917 16.8706 10.3408L17.8574 9.82611V7.83751C17.8574 5.82551 17.7164 5.52137 17.129 6.24662C16.0247 7.58016 12.8057 7.8843 10.456 6.8783C6.81402 5.33421 4.29988 4.88969 2.27917 5.381Z" fill="#06BCC1"/>
</svg>
