<svg width="1100" height="120" viewBox="0 0 1100 120" fill="none" xmlns="http://www.w3.org/2000/svg">
<g clip-path="url(#clip0)">
<path d="M54.2301 10.168L70.6731 17.476L-24.5919 232.54L-41.0349 225.232L54.2301 10.168ZM223.493 73.33L226.103 45.925H224.798L214.88 70.981L167.378 153.457H160.853L110.48 70.72L101.084 45.925H99.7786L103.433 73.069V196H83.0746V13.3H99.2566L156.416 106.738L165.029 127.096H165.551L173.642 106.216L228.191 13.3H245.156V196H223.493V73.33ZM289.53 13.3H388.971V32.614H311.193V92.383H382.446V111.697H311.193V176.686H390.276V196H289.53V13.3ZM511.936 149.542C511.936 142.234 509.761 136.318 505.411 131.794C501.061 127.096 495.58 123.007 488.968 119.527C482.53 115.873 475.483 112.48 467.827 109.348C460.171 106.216 453.037 102.475 446.425 98.125C439.987 93.601 434.593 88.12 430.243 81.682C425.893 75.07 423.718 66.718 423.718 56.626C423.718 42.358 428.677 31.048 438.595 22.696C448.513 14.344 462.607 10.168 480.877 10.168C491.491 10.168 501.148 10.951 509.848 12.517C518.548 14.083 525.334 16.084 530.206 18.52L523.681 37.573C519.679 35.659 513.763 33.832 505.933 32.092C498.277 30.352 489.577 29.482 479.833 29.482C468.349 29.482 459.736 32.092 453.994 37.312C448.252 42.358 445.381 48.361 445.381 55.321C445.381 62.107 447.556 67.762 451.906 72.286C456.256 76.81 461.65 80.899 468.088 84.553C474.7 88.033 481.834 91.513 489.49 94.993C497.146 98.473 504.193 102.562 510.631 107.26C517.243 111.784 522.724 117.265 527.074 123.703C531.424 130.141 533.599 138.145 533.599 147.715C533.599 155.545 532.207 162.592 529.423 168.856C526.639 175.12 522.55 180.514 517.156 185.038C511.762 189.562 505.237 193.042 497.581 195.478C489.925 197.914 481.225 199.132 471.481 199.132C458.431 199.132 447.643 198.088 439.117 196C430.591 194.086 423.979 191.911 419.281 189.475L426.589 169.9C430.591 172.162 436.507 174.424 444.337 176.686C452.167 178.774 460.954 179.818 470.698 179.818C476.44 179.818 481.834 179.296 486.88 178.252C491.926 177.034 496.276 175.207 499.93 172.771C503.584 170.161 506.455 166.942 508.543 163.114C510.805 159.286 511.936 154.762 511.936 149.542ZM650.593 149.542C650.593 142.234 648.418 136.318 644.068 131.794C639.718 127.096 634.237 123.007 627.625 119.527C621.187 115.873 614.14 112.48 606.484 109.348C598.828 106.216 591.694 102.475 585.082 98.125C578.644 93.601 573.25 88.12 568.9 81.682C564.55 75.07 562.375 66.718 562.375 56.626C562.375 42.358 567.334 31.048 577.252 22.696C587.17 14.344 601.264 10.168 619.534 10.168C630.148 10.168 639.805 10.951 648.505 12.517C657.205 14.083 663.991 16.084 668.863 18.52L662.338 37.573C658.336 35.659 652.42 33.832 644.59 32.092C636.934 30.352 628.234 29.482 618.49 29.482C607.006 29.482 598.393 32.092 592.651 37.312C586.909 42.358 584.038 48.361 584.038 55.321C584.038 62.107 586.213 67.762 590.563 72.286C594.913 76.81 600.307 80.899 606.745 84.553C613.357 88.033 620.491 91.513 628.147 94.993C635.803 98.473 642.85 102.562 649.288 107.26C655.9 111.784 661.381 117.265 665.731 123.703C670.081 130.141 672.256 138.145 672.256 147.715C672.256 155.545 670.864 162.592 668.08 168.856C665.296 175.12 661.207 180.514 655.813 185.038C650.419 189.562 643.894 193.042 636.238 195.478C628.582 197.914 619.882 199.132 610.138 199.132C597.088 199.132 586.3 198.088 577.774 196C569.248 194.086 562.636 191.911 557.938 189.475L565.246 169.9C569.248 172.162 575.164 174.424 582.994 176.686C590.824 178.774 599.611 179.818 609.355 179.818C615.097 179.818 620.491 179.296 625.537 178.252C630.583 177.034 634.933 175.207 638.587 172.771C642.241 170.161 645.112 166.942 647.2 163.114C649.462 159.286 650.593 154.762 650.593 149.542ZM793.686 145.366H726.348L708.078 196H686.676L755.841 10.429H765.759L835.185 196H812.478L793.686 145.366ZM733.395 126.574H787.161L766.803 70.981L760.278 43.315H760.017L753.492 71.503L733.395 126.574ZM914.417 104.911H975.752V185.299C972.968 187.387 969.575 189.301 965.573 191.041C961.745 192.781 957.569 194.26 953.045 195.478C948.695 196.696 944.084 197.566 939.212 198.088C934.514 198.784 929.903 199.132 925.379 199.132C913.721 199.132 903.02 197.305 893.276 193.651C883.532 189.823 875.093 184.081 867.959 176.425C860.825 168.595 855.257 158.764 851.255 146.932C847.253 134.926 845.252 120.832 845.252 104.65C845.252 87.772 847.688 73.33 852.56 61.324C857.432 49.318 863.783 39.574 871.613 32.092C879.443 24.436 888.23 18.868 897.974 15.388C907.718 11.908 917.462 10.168 927.206 10.168C937.646 10.168 946.259 10.777 953.045 11.995C959.831 13.039 965.573 14.518 970.271 16.432L964.79 35.485C956.438 31.483 944.519 29.482 929.033 29.482C921.725 29.482 914.417 30.787 907.109 33.397C899.975 35.833 893.537 40.009 887.795 45.925C882.053 51.841 877.355 59.584 873.701 69.154C870.047 78.724 868.22 90.556 868.22 104.65C868.22 117.526 869.699 128.662 872.657 138.058C875.615 147.454 879.704 155.284 884.924 161.548C890.318 167.638 896.756 172.249 904.238 175.381C911.72 178.339 919.898 179.818 928.772 179.818C939.908 179.818 949.391 177.643 957.221 173.293V122.398L914.417 117.178V104.911ZM1012.63 13.3H1112.07V32.614H1034.3V92.383H1105.55V111.697H1034.3V176.686H1113.38V196H1012.63V13.3Z" fill="white"/>
</g>
<defs>
<clipPath id="clip0">
<rect width="1100" height="228" fill="white" transform="translate(0 -15)"/>
</clipPath>
</defs>
</svg>
