<svg width="200" height="26" viewBox="0 0 200 26" fill="none" xmlns="http://www.w3.org/2000/svg">
<path d="M13.211 0.247999L16.109 1.536L-0.680953 39.44L-3.57895 38.152L13.211 0.247999ZM43.0428 11.38L43.5028 6.55H43.2728L41.5248 10.966L33.1528 25.502H32.0028L23.1248 10.92L21.4688 6.55H21.2388L21.8828 11.334V33H18.2948V0.799998H21.1468L31.2208 17.268L32.7388 20.856H32.8308L34.2568 17.176L43.8708 0.799998H46.8608V33H43.0428V11.38ZM54.6815 0.799998H72.2075V4.204H58.4995V14.738H71.0575V18.142H58.4995V29.596H72.4375V33H54.6815V0.799998ZM93.8796 24.812C93.8796 23.524 93.4963 22.4813 92.7296 21.684C91.9629 20.856 90.9969 20.1353 89.8316 19.522C88.6969 18.878 87.4549 18.28 86.1056 17.728C84.7563 17.176 83.4989 16.5167 82.3336 15.75C81.1989 14.9527 80.2483 13.9867 79.4816 12.852C78.7149 11.6867 78.3316 10.2147 78.3316 8.436C78.3316 5.92133 79.2056 3.928 80.9536 2.456C82.7016 0.983999 85.1856 0.247999 88.4056 0.247999C90.2763 0.247999 91.9783 0.385999 93.5116 0.662C95.0449 0.938 96.2409 1.29067 97.0996 1.72L95.9496 5.078C95.2443 4.74066 94.2016 4.41867 92.8216 4.112C91.4723 3.80533 89.9389 3.652 88.2216 3.652C86.1976 3.652 84.6796 4.112 83.6676 5.032C82.6556 5.92133 82.1496 6.97933 82.1496 8.206C82.1496 9.402 82.5329 10.3987 83.2996 11.196C84.0663 11.9933 85.0169 12.714 86.1516 13.358C87.3169 13.9713 88.5743 14.5847 89.9236 15.198C91.2729 15.8113 92.5149 16.532 93.6496 17.36C94.8149 18.1573 95.7809 19.1233 96.5476 20.258C97.3143 21.3927 97.6976 22.8033 97.6976 24.49C97.6976 25.87 97.4523 27.112 96.9616 28.216C96.4709 29.32 95.7503 30.2707 94.7996 31.068C93.8489 31.8653 92.6989 32.4787 91.3496 32.908C90.0003 33.3373 88.4669 33.552 86.7496 33.552C84.4496 33.552 82.5483 33.368 81.0456 33C79.5429 32.6627 78.3776 32.2793 77.5496 31.85L78.8376 28.4C79.5429 28.7987 80.5856 29.1973 81.9656 29.596C83.3456 29.964 84.8943 30.148 86.6116 30.148C87.6236 30.148 88.5743 30.056 89.4636 29.872C90.3529 29.6573 91.1196 29.3353 91.7636 28.906C92.4076 28.446 92.9136 27.8787 93.2816 27.204C93.6803 26.5293 93.8796 25.732 93.8796 24.812ZM118.317 24.812C118.317 23.524 117.934 22.4813 117.167 21.684C116.4 20.856 115.434 20.1353 114.269 19.522C113.134 18.878 111.892 18.28 110.543 17.728C109.194 17.176 107.936 16.5167 106.771 15.75C105.636 14.9527 104.686 13.9867 103.919 12.852C103.152 11.6867 102.769 10.2147 102.769 8.436C102.769 5.92133 103.643 3.928 105.391 2.456C107.139 0.983999 109.623 0.247999 112.843 0.247999C114.714 0.247999 116.416 0.385999 117.949 0.662C119.482 0.938 120.678 1.29067 121.537 1.72L120.387 5.078C119.682 4.74066 118.639 4.41867 117.259 4.112C115.91 3.80533 114.376 3.652 112.659 3.652C110.635 3.652 109.117 4.112 108.105 5.032C107.093 5.92133 106.587 6.97933 106.587 8.206C106.587 9.402 106.97 10.3987 107.737 11.196C108.504 11.9933 109.454 12.714 110.589 13.358C111.754 13.9713 113.012 14.5847 114.361 15.198C115.71 15.8113 116.952 16.532 118.087 17.36C119.252 18.1573 120.218 19.1233 120.985 20.258C121.752 21.3927 122.135 22.8033 122.135 24.49C122.135 25.87 121.89 27.112 121.399 28.216C120.908 29.32 120.188 30.2707 119.237 31.068C118.286 31.8653 117.136 32.4787 115.787 32.908C114.438 33.3373 112.904 33.552 111.187 33.552C108.887 33.552 106.986 33.368 105.483 33C103.98 32.6627 102.815 32.2793 101.987 31.85L103.275 28.4C103.98 28.7987 105.023 29.1973 106.403 29.596C107.783 29.964 109.332 30.148 111.049 30.148C112.061 30.148 113.012 30.056 113.901 29.872C114.79 29.6573 115.557 29.3353 116.201 28.906C116.845 28.446 117.351 27.8787 117.719 27.204C118.118 26.5293 118.317 25.732 118.317 24.812ZM143.537 24.076H131.669L128.449 33H124.677L136.867 0.293999H138.615L150.851 33H146.849L143.537 24.076ZM132.911 20.764H142.387L138.799 10.966L137.649 6.09H137.603L136.453 11.058L132.911 20.764ZM164.815 16.946H175.625V31.114C175.134 31.482 174.536 31.8193 173.831 32.126C173.156 32.4327 172.42 32.6933 171.623 32.908C170.856 33.1227 170.043 33.276 169.185 33.368C168.357 33.4907 167.544 33.552 166.747 33.552C164.692 33.552 162.806 33.23 161.089 32.586C159.371 31.9113 157.884 30.8993 156.627 29.55C155.369 28.17 154.388 26.4373 153.683 24.352C152.977 22.236 152.625 19.752 152.625 16.9C152.625 13.9253 153.054 11.38 153.913 9.264C154.771 7.148 155.891 5.43067 157.271 4.112C158.651 2.76266 160.199 1.78133 161.917 1.168C163.634 0.554666 165.351 0.247999 167.069 0.247999C168.909 0.247999 170.427 0.355332 171.623 0.569998C172.819 0.753997 173.831 1.01466 174.659 1.352L173.693 4.71C172.221 4.00467 170.12 3.652 167.391 3.652C166.103 3.652 164.815 3.882 163.527 4.342C162.269 4.77133 161.135 5.50733 160.123 6.55C159.111 7.59267 158.283 8.95733 157.639 10.644C156.995 12.3307 156.673 14.416 156.673 16.9C156.673 19.1693 156.933 21.132 157.455 22.788C157.976 24.444 158.697 25.824 159.617 26.928C160.567 28.0013 161.702 28.814 163.021 29.366C164.339 29.8873 165.781 30.148 167.345 30.148C169.307 30.148 170.979 29.7647 172.359 28.998V20.028L164.815 19.108V16.946ZM182.125 0.799998H199.651V4.204H185.943V14.738H198.501V18.142H185.943V29.596H199.881V33H182.125V0.799998Z" fill="black"/>
</svg>
