<svg width="193" height="26" viewBox="0 0 193 26" fill="none" xmlns="http://www.w3.org/2000/svg">
<path d="M5.67359 11.306L3.35159 6.963H3.17959L3.60959 11.306V31H0.255586V0.426999H2.14759L16.5526 20.508L18.7886 24.636H19.0036L18.5306 20.508V0.899998H21.8846V31.473H19.9926L5.67359 11.306ZM43.5072 22.658H32.4132L29.4032 31H25.8772L37.2722 0.426999H38.9062L50.3442 31H46.6032L43.5072 22.658ZM33.5742 19.562H42.4322L39.0782 10.403L38.0032 5.845H37.9602L36.8852 10.489L33.5742 19.562ZM60.2359 21.583L61.2679 26.141H61.3109L62.4289 21.497L69.6959 0.899998H73.2649L61.8699 31.473H60.2789L48.6689 0.899998H52.5819L60.2359 21.583ZM77.6663 0.899998H81.2353V31H77.6663V0.899998ZM99.812 0.383999L102.521 1.588L86.826 37.02L84.117 35.816L99.812 0.383999ZM114.712 15.993H124.817V29.237C124.359 29.581 123.8 29.8963 123.14 30.183C122.51 30.4697 121.822 30.7133 121.076 30.914C120.36 31.1147 119.6 31.258 118.797 31.344C118.023 31.4587 117.264 31.516 116.518 31.516C114.598 31.516 112.835 31.215 111.229 30.613C109.624 29.9823 108.234 29.0363 107.058 27.775C105.883 26.485 104.966 24.8653 104.306 22.916C103.647 20.938 103.317 18.616 103.317 15.95C103.317 13.1693 103.719 10.79 104.521 8.812C105.324 6.834 106.37 5.22867 107.66 3.996C108.95 2.73466 110.398 1.81733 112.003 1.244C113.609 0.670666 115.214 0.383999 116.819 0.383999C118.539 0.383999 119.958 0.484332 121.076 0.684998C122.194 0.856998 123.14 1.10066 123.914 1.416L123.011 4.555C121.635 3.89567 119.672 3.566 117.12 3.566C115.916 3.566 114.712 3.781 113.508 4.211C112.333 4.61233 111.272 5.30033 110.326 6.275C109.38 7.24967 108.606 8.52533 108.004 10.102C107.402 11.6787 107.101 13.628 107.101 15.95C107.101 18.0713 107.345 19.906 107.832 21.454C108.32 23.002 108.993 24.292 109.853 25.324C110.742 26.3273 111.803 27.087 113.035 27.603C114.268 28.0903 115.615 28.334 117.077 28.334C118.912 28.334 120.474 27.9757 121.764 27.259V18.874L114.712 18.014V15.993ZM145.212 22.658H134.118L131.108 31H127.582L138.977 0.426999H140.611L152.049 31H148.308L145.212 22.658ZM135.279 19.562H144.137L140.783 10.403L139.708 5.845H139.665L138.59 10.489L135.279 19.562ZM172.585 4.082H163.211V31H159.642V4.082H150.268V0.899998H172.585V4.082ZM177.001 0.899998H193.384V4.082H180.57V13.929H192.309V17.111H180.57V27.818H193.599V31H177.001V0.899998Z" fill="#0C131D"/>
</svg>
