<svg width="1142" height="120" viewBox="0 0 1142 120" fill="none" xmlns="http://www.w3.org/2000/svg">
<g clip-path="url(#clip0)">
<path d="M71.6704 5L87.4204 12L-3.82962 218L-19.5796 211L71.6704 5ZM130.799 68.5L117.299 43.25H116.299L118.799 68.5V183H99.2993V5.24999H110.299L194.049 122L207.049 146H208.299L205.549 122V7.99999H225.049V185.75H214.049L130.799 68.5ZM350.762 134.5H286.262L268.762 183H248.262L314.512 5.24999H324.012L390.512 183H368.762L350.762 134.5ZM293.012 116.5H344.512L325.012 63.25L318.762 36.75H318.512L312.262 63.75L293.012 116.5ZM448.022 128.25L454.022 154.75H454.272L460.772 127.75L503.022 7.99999H523.772L457.522 185.75H448.272L380.772 7.99999H403.522L448.022 128.25ZM549.362 7.99999H570.112V183H549.362V7.99999ZM676.366 95.75H735.116V172.75C732.449 174.75 729.199 176.583 725.366 178.25C721.699 179.917 717.699 181.333 713.366 182.5C709.199 183.667 704.782 184.5 700.116 185C695.616 185.667 691.199 186 686.866 186C675.699 186 665.449 184.25 656.116 180.75C646.782 177.083 638.699 171.583 631.866 164.25C625.032 156.75 619.699 147.333 615.866 136C612.032 124.5 610.116 111 610.116 95.5C610.116 79.3333 612.449 65.5 617.116 54C621.782 42.5 627.866 33.1667 635.366 26C642.866 18.6667 651.282 13.3333 660.616 9.99999C669.949 6.66666 679.282 5 688.616 5C698.616 5 706.866 5.58333 713.366 6.74999C719.866 7.74999 725.366 9.16665 729.866 11L724.616 29.25C716.616 25.4167 705.199 23.5 690.366 23.5C683.366 23.5 676.366 24.75 669.366 27.25C662.532 29.5833 656.366 33.5833 650.866 39.25C645.366 44.9167 640.866 52.3333 637.366 61.5C633.866 70.6667 632.116 82 632.116 95.5C632.116 107.833 633.532 118.5 636.366 127.5C639.199 136.5 643.116 144 648.116 150C653.282 155.833 659.449 160.25 666.616 163.25C673.782 166.083 681.616 167.5 690.116 167.5C700.782 167.5 709.866 165.417 717.366 161.25V112.5L676.366 107.5V95.75ZM853.692 134.5H789.192L771.692 183H751.192L817.442 5.24999H826.942L893.442 183H871.692L853.692 134.5ZM795.942 116.5H847.442L827.942 63.25L821.692 36.75H821.442L815.192 63.75L795.942 116.5ZM1012.84 26.5H958.336V183H937.586V26.5H883.086V7.99999H1012.84V26.5ZM1038.51 7.99999H1133.76V26.5H1059.26V83.75H1127.51V102.25H1059.26V164.5H1135.01V183H1038.51V7.99999Z" fill="white"/>
</g>
<defs>
<clipPath id="clip0">
<rect width="1142" height="228" fill="white" transform="translate(0 -24)"/>
</clipPath>
</defs>
</svg>
