<svg width="199" height="28" viewBox="0 0 199 28" fill="none" xmlns="http://www.w3.org/2000/svg">
<path d="M19.2291 0.399999L22.3791 1.8L4.1291 43L0.979102 41.6L19.2291 0.399999ZM24.7549 1.35C26.0215 1.05 27.3882 0.849999 28.8549 0.749998C30.3216 0.649999 31.7715 0.6 33.2049 0.6C34.7382 0.6 36.2882 0.749999 37.8549 1.05C39.4549 1.35 40.9049 1.9 42.2049 2.7C43.5049 3.5 44.5549 4.6 45.3549 6C46.1882 7.4 46.6049 9.18333 46.6049 11.35C46.6049 13.4833 46.2216 15.2833 45.4549 16.75C44.6882 18.2167 43.6716 19.4167 42.4049 20.35C41.1382 21.25 39.6882 21.9 38.0549 22.3C36.4216 22.7 34.7382 22.9 33.0049 22.9C32.8382 22.9 32.5549 22.9 32.1549 22.9C31.7882 22.9 31.3882 22.9 30.9549 22.9C30.5549 22.8667 30.1549 22.8333 29.7549 22.8C29.3549 22.7667 29.0715 22.7333 28.9049 22.7V36H24.7549V1.35ZM33.3049 4.2C32.4382 4.2 31.6049 4.21666 30.8049 4.25C30.0049 4.28333 29.3716 4.36667 28.9049 4.5V19C29.0715 19.0667 29.3382 19.1167 29.7049 19.15C30.0715 19.15 30.4549 19.1667 30.8549 19.2C31.2549 19.2 31.6382 19.2 32.0049 19.2C32.3715 19.2 32.6382 19.2 32.8049 19.2C33.9382 19.2 35.0549 19.1 36.1549 18.9C37.2882 18.6667 38.3049 18.2667 39.2049 17.7C40.1049 17.1333 40.8216 16.3333 41.3549 15.3C41.9216 14.2667 42.2049 12.95 42.2049 11.35C42.2049 9.98333 41.9382 8.85 41.4049 7.95C40.9049 7.01666 40.2216 6.28333 39.3549 5.75C38.5216 5.18333 37.5716 4.78333 36.5049 4.55C35.4382 4.31667 34.3716 4.2 33.3049 4.2ZM52.6846 1.35C53.9512 1.11666 55.4012 0.933331 57.0346 0.799997C58.7012 0.666666 60.2179 0.6 61.5846 0.6C63.1179 0.6 64.5679 0.766666 65.9346 1.1C67.3346 1.43333 68.5512 1.98333 69.5846 2.75C70.6512 3.51667 71.5012 4.51667 72.1346 5.75C72.7679 6.98333 73.0846 8.48333 73.0846 10.25C73.0846 12.9833 72.3346 15.2 70.8346 16.9C69.3346 18.6 67.4346 19.7333 65.1346 20.3L67.5346 22.15L76.2346 36H71.3846L61.7346 20.9L56.8346 20.15V36H52.6846V1.35ZM61.6846 4.2C61.2512 4.2 60.8012 4.2 60.3346 4.2C59.8679 4.2 59.4179 4.21666 58.9846 4.25C58.5512 4.28333 58.1346 4.31667 57.7346 4.35C57.3679 4.38333 57.0679 4.43333 56.8346 4.5V17.4H60.7346C63.0346 17.4 64.9346 16.8333 66.4346 15.7C67.9346 14.5667 68.6846 12.8 68.6846 10.4C68.6846 8.6 68.0679 7.11667 66.8346 5.95C65.6012 4.78333 63.8846 4.2 61.6846 4.2ZM78.7736 18.5C78.7736 12.6667 80.007 8.2 82.4736 5.1C84.9403 1.96667 88.457 0.399999 93.0236 0.399999C95.4903 0.399999 97.6236 0.833332 99.4236 1.7C101.224 2.56666 102.707 3.8 103.874 5.4C105.074 6.96667 105.957 8.86667 106.524 11.1C107.09 13.3 107.374 15.7667 107.374 18.5C107.374 24.3333 106.124 28.8167 103.624 31.95C101.157 35.05 97.6236 36.6 93.0236 36.6C90.5903 36.6 88.4736 36.1667 86.6736 35.3C84.907 34.4333 83.4236 33.2167 82.2236 31.65C81.057 30.05 80.1903 28.15 79.6236 25.95C79.057 23.7167 78.7736 21.2333 78.7736 18.5ZM83.1736 18.5C83.1736 20.4333 83.357 22.2667 83.7236 24C84.1236 25.7333 84.7236 27.2667 85.5236 28.6C86.3236 29.9 87.3403 30.95 88.5736 31.75C89.8403 32.5167 91.3236 32.9 93.0236 32.9C96.1236 32.9 98.557 31.7333 100.324 29.4C102.09 27.0333 102.974 23.4 102.974 18.5C102.974 16.6 102.774 14.7833 102.374 13.05C102.007 11.2833 101.407 9.75 100.574 8.45C99.7736 7.11667 98.7403 6.06667 97.4736 5.3C96.2403 4.5 94.757 4.1 93.0236 4.1C89.957 4.1 87.5403 5.28333 85.7736 7.65C84.0403 9.98333 83.1736 13.6 83.1736 18.5ZM114.403 0.999998H133.453V4.7H118.553V16.65H132.453V20.35H118.553V36H114.403V0.999998ZM141.183 0.999998H145.333V36H141.183V0.999998ZM175.484 36H154.784V0.999998H158.934V32.3H175.484V36ZM180.614 0.999998H199.664V4.7H184.764V16.15H198.414V19.85H184.764V32.3H199.914V36H180.614V0.999998Z" fill="black"/>
</svg>
