<svg width="1100" height="120" viewBox="0 0 1100 120" fill="none" xmlns="http://www.w3.org/2000/svg">
<g clip-path="url(#clip0)">
<path d="M97.1372 3.76L114.147 11.32L15.5971 233.8L-1.41285 226.24L97.1372 3.76ZM126.976 8.88999C133.816 7.26999 141.196 6.18999 149.116 5.64999C157.036 5.11 164.866 4.84 172.606 4.84C180.886 4.84 189.256 5.64999 197.716 7.26998C206.356 8.88998 214.186 11.86 221.206 16.18C228.226 20.5 233.896 26.44 238.216 34C242.716 41.56 244.966 51.19 244.966 62.89C244.966 74.41 242.896 84.13 238.756 92.05C234.616 99.97 229.126 106.45 222.286 111.49C215.446 116.35 207.616 119.86 198.796 122.02C189.976 124.18 180.886 125.26 171.526 125.26C170.626 125.26 169.096 125.26 166.936 125.26C164.956 125.26 162.796 125.26 160.456 125.26C158.296 125.08 156.136 124.9 153.976 124.72C151.816 124.54 150.286 124.36 149.386 124.18V196H126.976V8.88999ZM173.146 24.28C168.466 24.28 163.966 24.37 159.646 24.55C155.326 24.73 151.906 25.18 149.386 25.9V104.2C150.286 104.56 151.726 104.83 153.706 105.01C155.686 105.01 157.756 105.1 159.916 105.28C162.076 105.28 164.146 105.28 166.126 105.28C168.106 105.28 169.546 105.28 170.446 105.28C176.566 105.28 182.596 104.74 188.536 103.66C194.656 102.4 200.146 100.24 205.006 97.18C209.866 94.12 213.736 89.8 216.616 84.22C219.676 78.64 221.206 71.53 221.206 62.89C221.206 55.51 219.766 49.39 216.886 44.53C214.186 39.49 210.496 35.53 205.816 32.65C201.316 29.59 196.186 27.43 190.426 26.17C184.666 24.91 178.906 24.28 173.146 24.28ZM277.797 8.88999C284.637 7.62999 292.467 6.63999 301.287 5.91998C310.287 5.19999 318.477 4.84 325.857 4.84C334.137 4.84 341.967 5.74 349.347 7.54C356.907 9.33999 363.477 12.31 369.057 16.45C374.817 20.59 379.407 25.99 382.827 32.65C386.247 39.31 387.957 47.41 387.957 56.95C387.957 71.71 383.907 83.68 375.807 92.86C367.707 102.04 357.447 108.16 345.027 111.22L357.987 121.21L404.967 196H378.777L326.667 114.46L300.207 110.41V196H277.797V8.88999ZM326.397 24.28C324.057 24.28 321.627 24.28 319.107 24.28C316.587 24.28 314.157 24.37 311.817 24.55C309.477 24.73 307.227 24.91 305.067 25.09C303.087 25.27 301.467 25.54 300.207 25.9V95.56H321.267C333.687 95.56 343.947 92.5 352.047 86.38C360.147 80.26 364.197 70.72 364.197 57.76C364.197 48.04 360.867 40.03 354.207 33.73C347.547 27.43 338.277 24.28 326.397 24.28ZM418.678 101.5C418.678 70 425.338 45.88 438.658 29.14C451.978 12.22 470.968 3.76 495.628 3.76C508.948 3.76 520.468 6.09999 530.188 10.78C539.908 15.46 547.918 22.12 554.218 30.76C560.698 39.22 565.468 49.48 568.528 61.54C571.588 73.42 573.118 86.74 573.118 101.5C573.118 133 566.368 157.21 552.868 174.13C539.548 190.87 520.468 199.24 495.628 199.24C482.488 199.24 471.058 196.9 461.338 192.22C451.798 187.54 443.788 180.97 437.308 172.51C431.008 163.87 426.328 153.61 423.268 141.73C420.208 129.67 418.678 116.26 418.678 101.5ZM442.438 101.5C442.438 111.94 443.428 121.84 445.408 131.2C447.568 140.56 450.808 148.84 455.128 156.04C459.448 163.06 464.938 168.73 471.598 173.05C478.438 177.19 486.448 179.26 495.628 179.26C512.368 179.26 525.508 172.96 535.048 160.36C544.588 147.58 549.358 127.96 549.358 101.5C549.358 91.24 548.278 81.43 546.118 72.07C544.138 62.53 540.898 54.25 536.398 47.23C532.078 40.03 526.498 34.36 519.658 30.22C512.998 25.9 504.988 23.74 495.628 23.74C479.068 23.74 466.018 30.13 456.478 42.91C447.118 55.51 442.438 75.04 442.438 101.5ZM611.078 6.99999H713.948V26.98H633.488V91.51H708.548V111.49H633.488V196H611.078V6.99999ZM755.69 6.99999H778.1V196H755.69V6.99999ZM940.915 196H829.135V6.99999H851.545V176.02H940.915V196ZM968.617 6.99999H1071.49V26.98H991.027V88.81H1064.74V108.79H991.027V176.02H1072.84V196H968.617V6.99999Z" fill="white"/>
</g>
<defs>
<clipPath id="clip0">
<rect width="1100" height="228" fill="white" transform="translate(0 -20)"/>
</clipPath>
</defs>
</svg>
