<svg width="1100" height="120" viewBox="0 0 1100 120" fill="none" xmlns="http://www.w3.org/2000/svg">
<g clip-path="url(#clip0)">
<path d="M60.1024 6.136L75.6634 13.052L-14.4916 216.58L-30.0526 209.664L60.1024 6.136ZM87.3998 10.829C93.6571 9.34699 100.408 8.35899 107.654 7.86499C114.899 7.371 122.062 7.124 129.143 7.124C136.717 7.124 144.374 7.86499 152.114 9.34699C160.018 10.829 167.181 13.546 173.603 17.498C180.025 21.45 185.212 26.884 189.164 33.8C193.28 40.716 195.339 49.5257 195.339 60.229C195.339 70.7677 193.445 79.6597 189.658 86.905C185.87 94.1503 180.848 100.078 174.591 104.689C168.333 109.135 161.17 112.346 153.102 114.322C145.033 116.298 136.717 117.286 128.155 117.286C127.331 117.286 125.932 117.286 123.956 117.286C122.144 117.286 120.168 117.286 118.028 117.286C116.052 117.121 114.076 116.957 112.1 116.792C110.124 116.627 108.724 116.463 107.901 116.298V182H87.3998V10.829ZM129.637 24.908C125.355 24.908 121.239 24.9903 117.287 25.155C113.335 25.3197 110.206 25.7313 107.901 26.39V98.02C108.724 98.3493 110.041 98.5963 111.853 98.761C113.664 98.761 115.558 98.8433 117.534 99.008C119.51 99.008 121.403 99.008 123.215 99.008C125.026 99.008 126.343 99.008 127.167 99.008C132.765 99.008 138.282 98.514 143.716 97.526C149.314 96.3733 154.337 94.3973 158.783 91.598C163.229 88.7987 166.769 84.8467 169.404 79.742C172.203 74.6373 173.603 68.133 173.603 60.229C173.603 53.4777 172.285 47.879 169.651 43.433C167.181 38.8223 163.805 35.1997 159.524 32.565C155.407 29.7657 150.714 27.7897 145.445 26.637C140.175 25.4843 134.906 24.908 129.637 24.908ZM225.372 10.829C231.63 9.67632 238.793 8.77065 246.861 8.11199C255.095 7.45333 262.587 7.124 269.338 7.124C276.913 7.124 284.076 7.94733 290.827 9.594C297.743 11.2407 303.754 13.9577 308.858 17.745C314.128 21.5323 318.327 26.4723 321.455 32.565C324.584 38.6577 326.148 46.0677 326.148 54.795C326.148 68.2977 322.443 79.248 315.033 87.646C307.623 96.044 298.237 101.643 286.875 104.442L298.731 113.581L341.709 182H317.75L270.079 107.406L245.873 103.701V182H225.372V10.829ZM269.832 24.908C267.692 24.908 265.469 24.908 263.163 24.908C260.858 24.908 258.635 24.9903 256.494 25.155C254.354 25.3197 252.295 25.4843 250.319 25.649C248.508 25.8137 247.026 26.0607 245.873 26.39V90.116H265.139C276.501 90.116 285.887 87.3167 293.297 81.718C300.707 76.1193 304.412 67.392 304.412 55.536C304.412 46.644 301.366 39.3163 295.273 33.553C289.181 27.7897 280.7 24.908 269.832 24.908ZM354.252 95.55C354.252 66.7333 360.345 44.668 372.53 29.354C384.716 13.8753 402.088 6.136 424.647 6.136C436.833 6.136 447.371 8.27666 456.263 12.558C465.155 16.8393 472.483 22.932 478.246 30.836C484.174 38.5753 488.538 47.9613 491.337 58.994C494.137 69.862 495.536 82.0473 495.536 95.55C495.536 124.367 489.361 146.514 477.011 161.993C464.826 177.307 447.371 184.964 424.647 184.964C412.627 184.964 402.17 182.823 393.278 178.542C384.551 174.261 377.223 168.25 371.295 160.511C365.532 152.607 361.251 143.221 358.451 132.353C355.652 121.32 354.252 109.053 354.252 95.55ZM375.988 95.55C375.988 105.101 376.894 114.157 378.705 122.72C380.681 131.283 383.645 138.857 387.597 145.444C391.549 151.866 396.572 157.053 402.664 161.005C408.922 164.792 416.249 166.686 424.647 166.686C439.961 166.686 451.982 160.923 460.709 149.396C469.437 137.705 473.8 119.756 473.8 95.55C473.8 86.164 472.812 77.1897 470.836 68.627C469.025 59.8997 466.061 52.325 461.944 45.903C457.992 39.3163 452.888 34.1293 446.63 30.342C440.538 26.39 433.21 24.414 424.647 24.414C409.498 24.414 397.56 30.2597 388.832 41.951C380.27 53.4777 375.988 71.344 375.988 95.55ZM536.932 9.09999H557.433V143.962C557.433 157.135 554.469 167.18 548.541 174.096C542.778 181.012 533.968 184.47 522.112 184.47C520.795 184.47 519.148 184.388 517.172 184.223C515.196 184.058 513.22 183.811 511.244 183.482C509.268 183.153 507.374 182.741 505.563 182.247C503.587 181.753 502.023 181.177 500.87 180.518L504.822 162.981C509.433 165.122 514.455 166.192 519.889 166.192C526.805 166.192 531.333 163.804 533.474 159.029C535.779 154.089 536.932 147.42 536.932 139.022V9.09999ZM602.144 9.09999H696.251V27.378H622.645V83.941H690.076V102.219H622.645V163.722H697.486V182H602.144V9.09999ZM845.225 174.837C840.285 178.624 834.027 181.259 826.453 182.741C818.878 184.223 810.809 184.964 802.247 184.964C791.873 184.964 782.157 183.235 773.101 179.777C764.044 176.154 756.14 170.72 749.389 163.475C742.637 156.23 737.286 147.008 733.334 135.811C729.382 124.449 727.406 111.029 727.406 95.55C727.406 79.4127 729.546 65.7453 733.828 54.548C738.274 43.186 744.037 33.9647 751.118 26.884C758.363 19.6387 766.432 14.3693 775.324 11.076C784.216 7.78266 793.272 6.136 802.494 6.136C812.374 6.136 820.442 6.71233 826.7 7.86499C832.957 8.85299 838.309 10.2527 842.755 12.064L837.815 30.095C829.911 26.3077 818.631 24.414 803.976 24.414C797.224 24.414 790.555 25.649 783.969 28.119C777.382 30.589 771.454 34.6233 766.185 40.222C761.08 45.8207 756.963 53.1483 753.835 62.205C750.706 71.2617 749.142 82.3767 749.142 95.55C749.142 107.406 750.624 117.78 753.588 126.672C756.552 135.564 760.586 142.974 765.691 148.902C770.96 154.83 777.053 159.276 783.969 162.24C791.049 165.204 798.706 166.686 806.94 166.686C814.35 166.686 820.772 165.945 826.206 164.463C831.804 162.981 836.497 161.087 840.285 158.782L845.225 174.837ZM980.326 27.378H926.48V182H905.979V27.378H852.133V9.09999H980.326V27.378ZM1083.74 138.034C1083.74 131.118 1081.68 125.519 1077.57 121.238C1073.45 116.792 1068.26 112.922 1062.01 109.629C1055.91 106.171 1049.24 102.96 1042 99.996C1034.75 97.032 1028 93.4917 1021.74 89.375C1015.65 85.0937 1010.55 79.9067 1006.43 73.814C1002.31 67.5567 1000.26 59.6527 1000.26 50.102C1000.26 36.5993 1004.95 25.896 1014.33 17.992C1023.72 10.088 1037.06 6.136 1054.35 6.136C1064.39 6.136 1073.53 6.877 1081.77 8.359C1090 9.841 1096.42 11.7347 1101.03 14.04L1094.86 32.071C1091.07 30.2597 1085.47 28.5307 1078.06 26.884C1070.82 25.2373 1062.58 24.414 1053.36 24.414C1042.49 24.414 1034.34 26.884 1028.91 31.824C1023.47 36.5993 1020.76 42.2803 1020.76 48.867C1020.76 55.289 1022.82 60.6407 1026.93 64.922C1031.05 69.2033 1036.15 73.073 1042.25 76.531C1048.5 79.8243 1055.25 83.1177 1062.5 86.411C1069.75 89.7043 1076.41 93.574 1082.51 98.02C1088.76 102.301 1093.95 107.488 1098.07 113.581C1102.18 119.674 1104.24 127.248 1104.24 136.305C1104.24 143.715 1102.93 150.384 1100.29 156.312C1097.66 162.24 1093.79 167.345 1088.68 171.626C1083.58 175.907 1077.4 179.201 1070.16 181.506C1062.91 183.811 1054.68 184.964 1045.46 184.964C1033.11 184.964 1022.9 183.976 1014.83 182C1006.76 180.189 1000.5 178.13 996.057 175.825L1002.97 157.3C1006.76 159.441 1012.36 161.581 1019.77 163.722C1027.18 165.698 1035.49 166.686 1044.72 166.686C1050.15 166.686 1055.25 166.192 1060.03 165.204C1064.81 164.051 1068.92 162.322 1072.38 160.017C1075.84 157.547 1078.55 154.501 1080.53 150.878C1082.67 147.255 1083.74 142.974 1083.74 138.034Z" fill="white"/>
</g>
<defs>
<clipPath id="clip0">
<rect width="1100" height="228" fill="white" transform="translate(0 -24)"/>
</clipPath>
</defs>
</svg>
