<svg width="200" height="27" viewBox="0 0 200 27" fill="none" xmlns="http://www.w3.org/2000/svg">
<path d="M11.7029 0.959999L14.5379 2.22L-1.88713 39.3L-4.72213 38.04L11.7029 0.959999ZM16.6761 1.815C17.8161 1.545 19.0461 1.365 20.3661 1.275C21.6861 1.185 22.9911 1.14 24.2811 1.14C25.6611 1.14 27.0561 1.275 28.4661 1.545C29.9061 1.815 31.2111 2.31 32.3811 3.03C33.5511 3.75 34.4961 4.74 35.2161 6C35.9661 7.26 36.3411 8.865 36.3411 10.815C36.3411 12.735 35.9961 14.355 35.3061 15.675C34.6161 16.995 33.7011 18.075 32.5611 18.915C31.4211 19.725 30.1161 20.31 28.6461 20.67C27.1761 21.03 25.6611 21.21 24.1011 21.21C23.9511 21.21 23.6961 21.21 23.3361 21.21C23.0061 21.21 22.6461 21.21 22.2561 21.21C21.8961 21.18 21.5361 21.15 21.1761 21.12C20.8161 21.09 20.5611 21.06 20.4111 21.03V33H16.6761V1.815ZM24.3711 4.38C23.5911 4.38 22.8411 4.395 22.1211 4.425C21.4011 4.455 20.8311 4.53 20.4111 4.65V17.7C20.5611 17.76 20.8011 17.805 21.1311 17.835C21.4611 17.835 21.8061 17.85 22.1661 17.88C22.5261 17.88 22.8711 17.88 23.2011 17.88C23.5311 17.88 23.7711 17.88 23.9211 17.88C24.9411 17.88 25.9461 17.79 26.9361 17.61C27.9561 17.4 28.8711 17.04 29.6811 16.53C30.4911 16.02 31.1361 15.3 31.6161 14.37C32.1261 13.44 32.3811 12.255 32.3811 10.815C32.3811 9.585 32.1411 8.565 31.6611 7.755C31.2111 6.915 30.5961 6.255 29.8161 5.775C29.0661 5.265 28.2111 4.905 27.2511 4.695C26.2911 4.485 25.3311 4.38 24.3711 4.38ZM41.8128 1.815C42.9528 1.605 44.2578 1.44 45.7278 1.32C47.2278 1.2 48.5928 1.14 49.8228 1.14C51.2028 1.14 52.5078 1.29 53.7378 1.59C54.9978 1.89 56.0928 2.385 57.0228 3.075C57.9828 3.765 58.7478 4.665 59.3178 5.775C59.8878 6.885 60.1728 8.235 60.1728 9.825C60.1728 12.285 59.4978 14.28 58.1478 15.81C56.7978 17.34 55.0878 18.36 53.0178 18.87L55.1778 20.535L63.0078 33H58.6428L49.9578 19.41L45.5478 18.735V33H41.8128V1.815ZM49.9128 4.38C49.5228 4.38 49.1178 4.38 48.6978 4.38C48.2778 4.38 47.8728 4.395 47.4828 4.425C47.0928 4.455 46.7178 4.485 46.3578 4.515C46.0278 4.545 45.7578 4.59 45.5478 4.65V16.26H49.0578C51.1278 16.26 52.8378 15.75 54.1878 14.73C55.5378 13.71 56.2128 12.12 56.2128 9.96C56.2128 8.34 55.6578 7.005 54.5478 5.955C53.4378 4.905 51.8928 4.38 49.9128 4.38ZM65.2929 17.25C65.2929 12 66.4029 7.98 68.6229 5.19C70.8429 2.37 74.0079 0.959999 78.118 0.959999C80.338 0.959999 82.258 1.35 83.8779 2.13C85.4979 2.91 86.8329 4.02 87.883 5.46C88.963 6.87 89.758 8.58 90.2679 10.59C90.7779 12.57 91.033 14.79 91.033 17.25C91.033 22.5 89.908 26.535 87.658 29.355C85.438 32.145 82.258 33.54 78.118 33.54C75.9279 33.54 74.0229 33.15 72.4029 32.37C70.8129 31.59 69.4779 30.495 68.3979 29.085C67.3479 27.645 66.5679 25.935 66.0579 23.955C65.5479 21.945 65.2929 19.71 65.2929 17.25ZM69.2529 17.25C69.2529 18.99 69.4179 20.64 69.7479 22.2C70.1079 23.76 70.6479 25.14 71.3679 26.34C72.0879 27.51 73.0029 28.455 74.1129 29.175C75.2529 29.865 76.588 30.21 78.118 30.21C80.9079 30.21 83.0979 29.16 84.688 27.06C86.278 24.93 87.073 21.66 87.073 17.25C87.073 15.54 86.8929 13.905 86.5329 12.345C86.2029 10.755 85.663 9.375 84.9129 8.205C84.193 7.005 83.263 6.06 82.1229 5.37C81.0129 4.65 79.6779 4.29 78.118 4.29C75.3579 4.29 73.1829 5.355 71.5929 7.485C70.0329 9.585 69.2529 12.84 69.2529 17.25ZM98.5747 1.5H102.31V26.07C102.31 28.47 101.77 30.3 100.69 31.56C99.6397 32.82 98.0347 33.45 95.8747 33.45C95.6347 33.45 95.3347 33.435 94.9747 33.405C94.6147 33.375 94.2547 33.33 93.8947 33.27C93.5347 33.21 93.1897 33.135 92.8597 33.045C92.4997 32.955 92.2147 32.85 92.0047 32.73L92.7247 29.535C93.5647 29.925 94.4797 30.12 95.4697 30.12C96.7297 30.12 97.5547 29.685 97.9447 28.815C98.3647 27.915 98.5747 26.7 98.5747 25.17V1.5ZM110.455 1.5H127.6V4.83H114.19V15.135H126.475V18.465H114.19V29.67H127.825V33H110.455V1.5ZM154.741 31.695C153.841 32.385 152.701 32.865 151.321 33.135C149.941 33.405 148.471 33.54 146.911 33.54C145.021 33.54 143.251 33.225 141.601 32.595C139.951 31.935 138.511 30.945 137.281 29.625C136.051 28.305 135.076 26.625 134.356 24.585C133.636 22.515 133.276 20.07 133.276 17.25C133.276 14.31 133.666 11.82 134.446 9.78C135.256 7.71 136.306 6.03 137.596 4.74C138.916 3.42 140.386 2.46 142.006 1.86C143.626 1.26 145.276 0.959999 146.956 0.959999C148.756 0.959999 150.226 1.065 151.366 1.275C152.506 1.455 153.481 1.71 154.291 2.04L153.391 5.325C151.951 4.635 149.896 4.29 147.226 4.29C145.996 4.29 144.781 4.515 143.581 4.965C142.381 5.415 141.301 6.15 140.341 7.17C139.411 8.19 138.661 9.525 138.091 11.175C137.521 12.825 137.236 14.85 137.236 17.25C137.236 19.41 137.506 21.3 138.046 22.92C138.586 24.54 139.321 25.89 140.251 26.97C141.211 28.05 142.321 28.86 143.581 29.4C144.871 29.94 146.266 30.21 147.766 30.21C149.116 30.21 150.286 30.075 151.276 29.805C152.296 29.535 153.151 29.19 153.841 28.77L154.741 31.695ZM179.355 4.83H169.545V33H165.81V4.83H156V1.5H179.355V4.83ZM198.196 24.99C198.196 23.73 197.821 22.71 197.071 21.93C196.321 21.12 195.376 20.415 194.236 19.815C193.126 19.185 191.911 18.6 190.591 18.06C189.271 17.52 188.041 16.875 186.901 16.125C185.791 15.345 184.861 14.4 184.111 13.29C183.361 12.15 182.986 10.71 182.986 8.97C182.986 6.51 183.841 4.56 185.551 3.12C187.261 1.68 189.691 0.959999 192.841 0.959999C194.671 0.959999 196.336 1.095 197.836 1.365C199.336 1.635 200.506 1.98 201.346 2.4L200.221 5.685C199.531 5.355 198.511 5.04 197.161 4.74C195.841 4.44 194.341 4.29 192.661 4.29C190.681 4.29 189.196 4.74 188.206 5.64C187.216 6.51 186.721 7.545 186.721 8.745C186.721 9.915 187.096 10.89 187.846 11.67C188.596 12.45 189.526 13.155 190.636 13.785C191.776 14.385 193.006 14.985 194.326 15.585C195.646 16.185 196.861 16.89 197.971 17.7C199.111 18.48 200.056 19.425 200.806 20.535C201.556 21.645 201.931 23.025 201.931 24.675C201.931 26.025 201.691 27.24 201.211 28.32C200.731 29.4 200.026 30.33 199.096 31.11C198.166 31.89 197.041 32.49 195.721 32.91C194.401 33.33 192.901 33.54 191.221 33.54C188.971 33.54 187.111 33.36 185.641 33C184.171 32.67 183.031 32.295 182.221 31.875L183.481 28.5C184.171 28.89 185.191 29.28 186.541 29.67C187.891 30.03 189.406 30.21 191.086 30.21C192.076 30.21 193.006 30.12 193.876 29.94C194.746 29.73 195.496 29.415 196.126 28.995C196.756 28.545 197.251 27.99 197.611 27.33C198.001 26.67 198.196 25.89 198.196 24.99Z" fill="#0C131D"/>
</svg>
