<svg width="1082" height="96" viewBox="0 0 1082 96" fill="none" xmlns="http://www.w3.org/2000/svg">
<g clip-path="url(#clip0)">
<path d="M18.4857 10.048L27.6837 14.136L-25.6063 134.44L-34.8043 130.352L18.4857 10.048ZM124.995 138.966C122.659 139.647 120.372 140.085 118.133 140.28C115.894 140.572 113.656 140.718 111.417 140.718C106.55 140.718 101.781 140.183 97.1089 139.112C92.5343 138.139 88.0569 137.019 83.6769 135.754C79.3943 134.586 75.2576 133.467 71.2669 132.396C67.2763 131.423 63.4803 130.936 59.8789 130.936C57.5429 130.936 55.3043 131.228 53.1629 131.812V121.154C54.5256 120.862 55.8396 120.619 57.1049 120.424C58.3703 120.229 59.6843 120.132 61.0469 120.132C65.1349 120.132 69.1743 120.619 73.1649 121.592C77.2529 122.663 81.3896 123.782 85.5749 124.95C89.7603 126.215 94.0429 127.335 98.4229 128.308C102.803 129.379 107.426 129.914 112.293 129.914C116.576 129.914 120.81 129.427 124.995 128.454V138.966ZM30.3869 62.9C30.3869 45.8667 33.9883 32.824 41.1909 23.772C48.3936 14.6227 58.6623 10.048 71.9969 10.048C79.1996 10.048 85.4289 11.3133 90.6849 13.844C95.9409 16.3747 100.272 19.976 103.679 24.648C107.183 29.2227 109.762 34.7707 111.417 41.292C113.072 47.716 113.899 54.9187 113.899 62.9C113.899 79.9333 110.249 93.0247 102.949 102.174C95.7463 111.226 85.4289 115.752 71.9969 115.752C64.8916 115.752 58.7109 114.487 53.4549 111.956C48.2963 109.425 43.9649 105.873 40.4609 101.298C37.0543 96.626 34.5236 91.078 32.8689 84.654C31.2143 78.1327 30.3869 70.8813 30.3869 62.9ZM43.2349 62.9C43.2349 68.5453 43.7703 73.8987 44.8409 78.96C46.0089 84.0213 47.7609 88.4987 50.0969 92.392C52.4329 96.188 55.4016 99.254 59.0029 101.59C62.7016 103.829 67.0329 104.948 71.9969 104.948C81.0489 104.948 88.1543 101.541 93.3129 94.728C98.4716 87.8173 101.051 77.208 101.051 62.9C101.051 57.352 100.467 52.0473 99.2989 46.986C98.2283 41.8273 96.4763 37.35 94.0429 33.554C91.7069 29.6607 88.6896 26.5947 84.9909 24.356C81.3896 22.02 77.0583 20.852 71.9969 20.852C63.0423 20.852 55.9856 24.3073 50.8269 31.218C45.7656 38.0313 43.2349 48.592 43.2349 62.9ZM193.118 11.8H204.798V79.982C204.798 86.114 203.97 91.4187 202.316 95.896C200.758 100.373 198.471 104.072 195.454 106.992C192.534 109.815 188.981 111.907 184.796 113.27C180.61 114.633 175.987 115.314 170.926 115.314C158.856 115.314 149.756 112.589 143.624 107.138C137.492 101.687 134.426 93.414 134.426 82.318V11.8H146.544V76.624C146.544 81.7827 147.03 86.1627 148.004 89.764C149.074 93.268 150.632 96.1393 152.676 98.378C154.72 100.519 157.25 102.077 160.268 103.05C163.382 104.023 166.984 104.51 171.072 104.51C178.956 104.51 184.601 102.369 188.008 98.086C191.414 93.706 193.118 86.552 193.118 76.624V11.8ZM278.286 85.676H240.618L230.398 114H218.426L257.116 10.194H262.664L301.5 114H288.798L278.286 85.676ZM244.56 75.164H274.636L263.248 44.066L259.598 28.59H259.452L255.802 44.358L244.56 75.164ZM375.516 114H315.072V11.8H327.19V103.196H375.516V114ZM393.27 11.8H405.388V114H393.27V11.8ZM432.984 11.8H488.61V22.604H445.102V57.498H485.69V68.302H445.102V114H432.984V11.8ZM511.182 11.8H523.3V114H511.182V11.8ZM616.304 109.766C613.384 112.005 609.686 113.562 605.208 114.438C600.731 115.314 595.962 115.752 590.9 115.752C584.768 115.752 579.026 114.73 573.672 112.686C568.319 110.545 563.647 107.333 559.656 103.05C555.666 98.7673 552.502 93.3167 550.166 86.698C547.83 79.982 546.662 72.0493 546.662 62.9C546.662 53.3613 547.928 45.2827 550.458 38.664C553.086 31.948 556.493 26.4973 560.678 22.312C564.961 18.0293 569.73 14.9147 574.986 12.968C580.242 11.0213 585.596 10.048 591.046 10.048C596.886 10.048 601.656 10.3887 605.354 11.07C609.053 11.654 612.216 12.4813 614.844 13.552L611.924 24.21C607.252 21.9713 600.585 20.852 591.922 20.852C587.932 20.852 583.99 21.582 580.096 23.042C576.203 24.502 572.699 26.8867 569.584 30.196C566.567 33.5053 564.134 37.8367 562.284 43.19C560.435 48.5433 559.51 55.1133 559.51 62.9C559.51 69.908 560.386 76.04 562.138 81.296C563.89 86.552 566.275 90.932 569.292 94.436C572.407 97.94 576.008 100.568 580.096 102.32C584.282 104.072 588.808 104.948 593.674 104.948C598.054 104.948 601.85 104.51 605.062 103.634C608.372 102.758 611.146 101.639 613.384 100.276L616.304 109.766ZM678.788 85.676H641.12L630.9 114H618.928L657.618 10.194H663.166L702.002 114H689.3L678.788 85.676ZM645.062 75.164H675.138L663.75 44.066L660.1 28.59H659.954L656.304 44.358L645.062 75.164ZM771.728 22.604H739.9V114H727.782V22.604H695.954V11.8H771.728V22.604ZM789.495 11.8H801.613V114H789.495V11.8ZM824.975 62.9C824.975 45.8667 828.576 32.824 835.779 23.772C842.981 14.6227 853.25 10.048 866.585 10.048C873.787 10.048 880.017 11.3133 885.273 13.844C890.529 16.3747 894.86 19.976 898.267 24.648C901.771 29.2227 904.35 34.7707 906.005 41.292C907.659 47.716 908.487 54.9187 908.487 62.9C908.487 79.9333 904.837 93.0247 897.537 102.174C890.334 111.226 880.017 115.752 866.585 115.752C859.479 115.752 853.299 114.487 848.043 111.956C842.884 109.425 838.553 105.873 835.049 101.298C831.642 96.626 829.111 91.078 827.457 84.654C825.802 78.1327 824.975 70.8813 824.975 62.9ZM837.823 62.9C837.823 68.5453 838.358 73.8987 839.429 78.96C840.597 84.0213 842.349 88.4987 844.685 92.392C847.021 96.188 849.989 99.254 853.591 101.59C857.289 103.829 861.621 104.948 866.585 104.948C875.637 104.948 882.742 101.541 887.901 94.728C893.059 87.8173 895.639 77.208 895.639 62.9C895.639 57.352 895.055 52.0473 893.887 46.986C892.816 41.8273 891.064 37.35 888.631 33.554C886.295 29.6607 883.277 26.5947 879.579 24.356C875.977 22.02 871.646 20.852 866.585 20.852C857.63 20.852 850.573 24.3073 845.415 31.218C840.353 38.0313 837.823 48.592 837.823 62.9ZM947.41 47.132L939.526 32.386H938.942L940.402 47.132V114H929.014V10.194H935.438L984.348 78.376L991.94 92.392H992.67L991.064 78.376V11.8H1002.45V115.606H996.028L947.41 47.132ZM1073.39 88.012C1073.39 83.924 1072.17 80.6147 1069.74 78.084C1067.3 75.456 1064.24 73.1687 1060.54 71.222C1056.94 69.178 1052.99 67.28 1048.71 65.528C1044.43 63.776 1040.44 61.6833 1036.74 59.25C1033.14 56.7193 1030.12 53.6533 1027.69 50.052C1025.25 46.3533 1024.04 41.6813 1024.04 36.036C1024.04 28.0547 1026.81 21.728 1032.36 17.056C1037.91 12.384 1045.79 10.048 1056.01 10.048C1061.95 10.048 1067.35 10.486 1072.22 11.362C1077.08 12.238 1080.88 13.3573 1083.61 14.72L1079.96 25.378C1077.72 24.3073 1074.41 23.2853 1070.03 22.312C1065.75 21.3387 1060.88 20.852 1055.43 20.852C1049 20.852 1044.19 22.312 1040.97 25.232C1037.76 28.0547 1036.16 31.4127 1036.16 35.306C1036.16 39.102 1037.37 42.2653 1039.81 44.796C1042.24 47.3267 1045.26 49.614 1048.86 51.658C1052.56 53.6047 1056.55 55.5513 1060.83 57.498C1065.11 59.4447 1069.05 61.732 1072.66 64.36C1076.35 66.8907 1079.42 69.9567 1081.85 73.558C1084.29 77.1593 1085.5 81.6367 1085.5 86.99C1085.5 91.37 1084.73 95.312 1083.17 98.816C1081.61 102.32 1079.32 105.337 1076.31 107.868C1073.29 110.399 1069.64 112.345 1065.36 113.708C1061.07 115.071 1056.21 115.752 1050.76 115.752C1043.46 115.752 1037.42 115.168 1032.65 114C1027.88 112.929 1024.18 111.713 1021.56 110.35L1025.64 99.4C1027.88 100.665 1031.19 101.931 1035.57 103.196C1039.95 104.364 1044.87 104.948 1050.32 104.948C1053.53 104.948 1056.55 104.656 1059.37 104.072C1062.19 103.391 1064.63 102.369 1066.67 101.006C1068.71 99.546 1070.32 97.7453 1071.49 95.604C1072.75 93.4627 1073.39 90.932 1073.39 88.012Z" fill="white"/>
</g>
<defs>
<clipPath id="clip0">
<rect width="1100" height="228" fill="white" transform="translate(-18 -56)"/>
</clipPath>
</defs>
</svg>
