<svg width="200" height="25" viewBox="0 0 200 25" fill="none" xmlns="http://www.w3.org/2000/svg">
<path d="M12.5481 0.807999L15.1311 1.956L0.166098 35.74L-2.4169 34.592L12.5481 0.807999ZM42.4582 37.011C41.8022 37.2023 41.1599 37.3253 40.5312 37.38C39.9026 37.462 39.2739 37.503 38.6452 37.503C37.2786 37.503 35.9392 37.3527 34.6272 37.052C33.3426 36.7787 32.0852 36.4643 30.8552 36.109C29.6526 35.781 28.4909 35.4667 27.3702 35.166C26.2496 34.8927 25.1836 34.756 24.1722 34.756C23.5162 34.756 22.8876 34.838 22.2862 35.002V32.009C22.6689 31.927 23.0379 31.8587 23.3932 31.804C23.7486 31.7493 24.1176 31.722 24.5002 31.722C25.6482 31.722 26.7826 31.8587 27.9032 32.132C29.0512 32.4327 30.2129 32.747 31.3882 33.075C32.5636 33.4303 33.7662 33.7447 34.9962 34.018C36.2262 34.3187 37.5246 34.469 38.8912 34.469C40.0939 34.469 41.2829 34.3323 42.4582 34.059V37.011ZM15.8902 15.65C15.8902 10.8667 16.9016 7.204 18.9242 4.662C20.9469 2.09267 23.8306 0.807999 27.5752 0.807999C29.5979 0.807999 31.3472 1.16333 32.8232 1.874C34.2992 2.58467 35.5156 3.596 36.4722 4.908C37.4562 6.19267 38.1806 7.75067 38.6452 9.582C39.1099 11.386 39.3422 13.4087 39.3422 15.65C39.3422 20.4333 38.3172 24.1097 36.2672 26.679C34.2446 29.221 31.3472 30.492 27.5752 30.492C25.5799 30.492 23.8442 30.1367 22.3682 29.426C20.9196 28.7153 19.7032 27.7177 18.7192 26.433C17.7626 25.121 17.0519 23.563 16.5872 21.759C16.1226 19.9277 15.8902 17.8913 15.8902 15.65ZM19.4982 15.65C19.4982 17.2353 19.6486 18.7387 19.9492 20.16C20.2772 21.5813 20.7692 22.8387 21.4252 23.932C22.0812 24.998 22.9149 25.859 23.9262 26.515C24.9649 27.1437 26.1812 27.458 27.5752 27.458C30.1172 27.458 32.1126 26.5013 33.5612 24.588C35.0099 22.6473 35.7342 19.668 35.7342 15.65C35.7342 14.092 35.5702 12.6023 35.2422 11.181C34.9416 9.73233 34.4496 8.475 33.7662 7.409C33.1102 6.31567 32.2629 5.45467 31.2242 4.826C30.2129 4.17 28.9966 3.842 27.5752 3.842C25.0606 3.842 23.0789 4.81233 21.6302 6.753C20.2089 8.66633 19.4982 11.632 19.4982 15.65ZM61.5886 1.3H64.8686V20.447C64.8686 22.169 64.6362 23.6587 64.1716 24.916C63.7342 26.1733 63.0919 27.212 62.2446 28.032C61.4246 28.8247 60.4269 29.4123 59.2516 29.795C58.0762 30.1777 56.7779 30.369 55.3566 30.369C51.9672 30.369 49.4116 29.6037 47.6896 28.073C45.9676 26.5423 45.1066 24.219 45.1066 21.103V1.3H48.5096V19.504C48.5096 20.9527 48.6462 22.1827 48.9196 23.194C49.2202 24.178 49.6576 24.9843 50.2316 25.613C50.8056 26.2143 51.5162 26.6517 52.3636 26.925C53.2382 27.1983 54.2496 27.335 55.3976 27.335C57.6116 27.335 59.1969 26.7337 60.1536 25.531C61.1102 24.301 61.5886 22.292 61.5886 19.504V1.3ZM85.5057 22.046H74.9277L72.0577 30H68.6957L79.5607 0.848999H81.1187L92.0247 30H88.4577L85.5057 22.046ZM76.0347 19.094H84.4807L81.2827 10.361L80.2577 6.015H80.2167L79.1917 10.443L76.0347 19.094ZM112.81 30H95.8361V1.3H99.2391V26.966H112.81V30ZM117.796 1.3H121.199V30H117.796V1.3ZM147.48 4.334H138.542V30H135.139V4.334H126.201V1.3H147.48V4.334ZM152.47 1.3H155.873V30H152.47V1.3ZM163.622 1.3H179.243V4.334H167.025V13.723H178.218V16.757H167.025V26.966H179.448V30H163.622V1.3ZM198.56 22.702C198.56 21.554 198.218 20.6247 197.535 19.914C196.851 19.176 195.99 18.5337 194.952 17.987C193.94 17.413 192.833 16.88 191.631 16.388C190.428 15.896 189.307 15.3083 188.269 14.625C187.257 13.9143 186.41 13.0533 185.727 12.042C185.043 11.0033 184.702 9.69133 184.702 8.106C184.702 5.86466 185.481 4.088 187.039 2.776C188.597 1.464 190.811 0.807999 193.681 0.807999C195.348 0.807999 196.865 0.931 198.232 1.177C199.598 1.423 200.664 1.73733 201.43 2.12L200.405 5.113C199.776 4.81233 198.847 4.52533 197.617 4.252C196.414 3.97867 195.047 3.842 193.517 3.842C191.713 3.842 190.36 4.252 189.458 5.072C188.556 5.86466 188.105 6.80766 188.105 7.901C188.105 8.967 188.446 9.85533 189.13 10.566C189.813 11.2767 190.66 11.919 191.672 12.493C192.71 13.0397 193.831 13.5863 195.034 14.133C196.236 14.6797 197.343 15.322 198.355 16.06C199.393 16.7707 200.254 17.6317 200.938 18.643C201.621 19.6543 201.963 20.9117 201.963 22.415C201.963 23.645 201.744 24.752 201.307 25.736C200.869 26.72 200.227 27.5673 199.38 28.278C198.532 28.9887 197.507 29.5353 196.305 29.918C195.102 30.3007 193.735 30.492 192.205 30.492C190.155 30.492 188.46 30.328 187.121 30C185.781 29.6993 184.743 29.3577 184.005 28.975L185.153 25.9C185.781 26.2553 186.711 26.6107 187.941 26.966C189.171 27.294 190.551 27.458 192.082 27.458C192.984 27.458 193.831 27.376 194.624 27.212C195.416 27.0207 196.1 26.7337 196.674 26.351C197.248 25.941 197.699 25.4353 198.027 24.834C198.382 24.2327 198.56 23.522 198.56 22.702Z" fill="black"/>
</svg>
