<svg width="1100" height="120" viewBox="0 0 1100 120" fill="none" xmlns="http://www.w3.org/2000/svg">
<g clip-path="url(#clip0)">
<path d="M185.731 -2.24L202.741 5.32L104.191 227.8L87.1809 220.24L185.731 -2.24ZM300.89 141.94C300.89 134.38 298.64 128.26 294.14 123.58C289.64 118.72 283.97 114.49 277.13 110.89C270.47 107.11 263.18 103.6 255.26 100.36C247.34 97.12 239.96 93.25 233.12 88.75C226.46 84.07 220.88 78.4 216.38 71.74C211.88 64.9 209.63 56.26 209.63 45.82C209.63 31.06 214.76 19.36 225.02 10.72C235.28 2.07999 249.86 -2.24 268.76 -2.24C279.74 -2.24 289.73 -1.43 298.73 0.189998C307.73 1.81 314.75 3.88 319.79 6.4L313.04 26.11C308.9 24.13 302.78 22.24 294.68 20.44C286.76 18.64 277.76 17.74 267.68 17.74C255.8 17.74 246.89 20.44 240.95 25.84C235.01 31.06 232.04 37.27 232.04 44.47C232.04 51.49 234.29 57.34 238.79 62.02C243.29 66.7 248.87 70.93 255.53 74.71C262.37 78.31 269.75 81.91 277.67 85.51C285.59 89.11 292.88 93.34 299.54 98.2C306.38 102.88 312.05 108.55 316.55 115.21C321.05 121.87 323.3 130.15 323.3 140.05C323.3 148.15 321.86 155.44 318.98 161.92C316.1 168.4 311.87 173.98 306.29 178.66C300.71 183.34 293.96 186.94 286.04 189.46C278.12 191.98 269.12 193.24 259.04 193.24C245.54 193.24 234.38 192.16 225.56 190C216.74 188.02 209.9 185.77 205.04 183.25L212.6 163C216.74 165.34 222.86 167.68 230.96 170.02C239.06 172.18 248.15 173.26 258.23 173.26C264.17 173.26 269.75 172.72 274.97 171.64C280.19 170.38 284.69 168.49 288.47 165.97C292.25 163.27 295.22 159.94 297.38 155.98C299.72 152.02 300.89 147.34 300.89 141.94ZM394.108 102.52H381.418V190H359.008V0.999987H381.418V89.02L393.568 85.24L457.018 0.999987H482.938L419.758 82.27L408.418 91.18L422.188 101.98L491.308 190H462.958L394.108 102.52ZM528.933 0.999987H551.343V190H528.933V0.999987ZM714.157 190H602.377V0.999987H624.787V170.02H714.157V190ZM853.639 190H741.859V0.999987H764.269V170.02H853.639V190ZM966.662 141.94C966.662 134.38 964.412 128.26 959.912 123.58C955.412 118.72 949.742 114.49 942.902 110.89C936.242 107.11 928.952 103.6 921.032 100.36C913.112 97.12 905.732 93.25 898.892 88.75C892.232 84.07 886.652 78.4 882.152 71.74C877.652 64.9 875.402 56.26 875.402 45.82C875.402 31.06 880.532 19.36 890.792 10.72C901.052 2.07999 915.632 -2.24 934.532 -2.24C945.512 -2.24 955.502 -1.43 964.502 0.189998C973.502 1.81 980.522 3.88 985.562 6.4L978.812 26.11C974.672 24.13 968.552 22.24 960.452 20.44C952.532 18.64 943.532 17.74 933.452 17.74C921.572 17.74 912.662 20.44 906.722 25.84C900.782 31.06 897.812 37.27 897.812 44.47C897.812 51.49 900.062 57.34 904.562 62.02C909.062 66.7 914.642 70.93 921.302 74.71C928.142 78.31 935.522 81.91 943.442 85.51C951.362 89.11 958.652 93.34 965.312 98.2C972.152 102.88 977.822 108.55 982.322 115.21C986.822 121.87 989.072 130.15 989.072 140.05C989.072 148.15 987.632 155.44 984.752 161.92C981.872 168.4 977.642 173.98 972.062 178.66C966.482 183.34 959.732 186.94 951.812 189.46C943.892 191.98 934.892 193.24 924.812 193.24C911.312 193.24 900.152 192.16 891.332 190C882.512 188.02 875.672 185.77 870.812 183.25L878.372 163C882.512 165.34 888.632 167.68 896.732 170.02C904.832 172.18 913.922 173.26 924.002 173.26C929.942 173.26 935.522 172.72 940.742 171.64C945.962 170.38 950.462 168.49 954.242 165.97C958.022 163.27 960.992 159.94 963.152 155.98C965.492 152.02 966.662 147.34 966.662 141.94Z" fill="black"/>
</g>
<defs>
<clipPath id="clip0">
<rect width="1100" height="228" fill="white" transform="translate(0 -24)"/>
</clipPath>
</defs>
</svg>
