<svg width="168" height="40" viewBox="0 0 168 40" fill="none" xmlns="http://www.w3.org/2000/svg">
<path d="M18.6354 -2.6L21.7854 -1.2L3.53535 40L0.385352 38.6L18.6354 -2.6ZM39.9611 24.1C39.9611 22.7 39.5445 21.5667 38.7111 20.7C37.8778 19.8 36.8278 19.0167 35.5611 18.35C34.3278 17.65 32.9778 17 31.5111 16.4C30.0445 15.8 28.6778 15.0833 27.4111 14.25C26.1778 13.3833 25.1445 12.3333 24.3111 11.1C23.4778 9.83333 23.0611 8.23333 23.0611 6.3C23.0611 3.56666 24.0111 1.4 25.9111 -0.200002C27.8111 -1.8 30.5111 -2.6 34.0111 -2.6C36.0445 -2.6 37.8945 -2.45 39.5611 -2.15C41.2278 -1.85 42.5278 -1.46667 43.4611 -1L42.2111 2.65C41.4445 2.28333 40.3111 1.93333 38.8111 1.6C37.3445 1.26667 35.6778 1.1 33.8111 1.1C31.6111 1.1 29.9611 1.6 28.8611 2.6C27.7611 3.56666 27.2111 4.71666 27.2111 6.05C27.2111 7.35 27.6278 8.43333 28.4611 9.3C29.2945 10.1667 30.3278 10.95 31.5611 11.65C32.8278 12.3167 34.1945 12.9833 35.6611 13.65C37.1278 14.3167 38.4778 15.1 39.7111 16C40.9778 16.8667 42.0278 17.9167 42.8611 19.15C43.6945 20.3833 44.1111 21.9167 44.1111 23.75C44.1111 25.25 43.8445 26.6 43.3111 27.8C42.7778 29 41.9945 30.0333 40.9611 30.9C39.9278 31.7667 38.6778 32.4333 37.2111 32.9C35.7445 33.3667 34.0778 33.6 32.2111 33.6C29.7111 33.6 27.6445 33.4 26.0111 33C24.3778 32.6333 23.1111 32.2167 22.2111 31.75L23.6111 28C24.3778 28.4333 25.5111 28.8667 27.0111 29.3C28.5111 29.7 30.1945 29.9 32.0611 29.9C33.1611 29.9 34.1945 29.8 35.1611 29.6C36.1278 29.3667 36.9611 29.0167 37.6611 28.55C38.3611 28.05 38.9111 27.4333 39.3111 26.7C39.7445 25.9667 39.9611 25.1 39.9611 24.1ZM57.2236 16.8H54.8736V33H50.7236V-2H54.8736V14.3L57.1236 13.6L68.8736 -2H73.6736L61.9736 13.05L59.8736 14.7L62.4236 16.7L75.2236 33H69.9736L57.2236 16.8ZM82.1912 -2H86.3412V33H82.1912V-2ZM116.492 33H95.792V-2H99.942V29.3H116.492V33ZM142.322 33H121.622V-2H125.772V29.3H142.322V33ZM163.252 24.1C163.252 22.7 162.835 21.5667 162.002 20.7C161.169 19.8 160.119 19.0167 158.852 18.35C157.619 17.65 156.269 17 154.802 16.4C153.335 15.8 151.969 15.0833 150.702 14.25C149.469 13.3833 148.435 12.3333 147.602 11.1C146.769 9.83333 146.352 8.23333 146.352 6.3C146.352 3.56666 147.302 1.4 149.202 -0.200002C151.102 -1.8 153.802 -2.6 157.302 -2.6C159.335 -2.6 161.185 -2.45 162.852 -2.15C164.519 -1.85 165.819 -1.46667 166.752 -1L165.502 2.65C164.735 2.28333 163.602 1.93333 162.102 1.6C160.635 1.26667 158.969 1.1 157.102 1.1C154.902 1.1 153.252 1.6 152.152 2.6C151.052 3.56666 150.502 4.71666 150.502 6.05C150.502 7.35 150.919 8.43333 151.752 9.3C152.585 10.1667 153.619 10.95 154.852 11.65C156.119 12.3167 157.485 12.9833 158.952 13.65C160.419 14.3167 161.769 15.1 163.002 16C164.269 16.8667 165.319 17.9167 166.152 19.15C166.985 20.3833 167.402 21.9167 167.402 23.75C167.402 25.25 167.135 26.6 166.602 27.8C166.069 29 165.285 30.0333 164.252 30.9C163.219 31.7667 161.969 32.4333 160.502 32.9C159.035 33.3667 157.369 33.6 155.502 33.6C153.002 33.6 150.935 33.4 149.302 33C147.669 32.6333 146.402 32.2167 145.502 31.75L146.902 28C147.669 28.4333 148.802 28.8667 150.302 29.3C151.802 29.7 153.485 29.9 155.352 29.9C156.452 29.9 157.485 29.8 158.452 29.6C159.419 29.3667 160.252 29.0167 160.952 28.55C161.652 28.05 162.202 27.4333 162.602 26.7C163.035 25.9667 163.252 25.1 163.252 24.1Z" fill="#0C131D"/>
</svg>
