<svg width="165" height="36" viewBox="0 0 165 36" fill="none" xmlns="http://www.w3.org/2000/svg">
<path d="M18.6354 0.399999L21.7854 1.8L3.53535 43L0.385352 41.6L18.6354 0.399999ZM39.9611 27.1C39.9611 25.7 39.5445 24.5667 38.7111 23.7C37.8778 22.8 36.8278 22.0167 35.5611 21.35C34.3278 20.65 32.9778 20 31.5111 19.4C30.0445 18.8 28.6778 18.0833 27.4111 17.25C26.1778 16.3833 25.1445 15.3333 24.3111 14.1C23.4778 12.8333 23.0611 11.2333 23.0611 9.3C23.0611 6.56666 24.0111 4.4 25.9111 2.8C27.8111 1.2 30.5111 0.399999 34.0111 0.399999C36.0445 0.399999 37.8945 0.549999 39.5611 0.85C41.2278 1.15 42.5278 1.53333 43.4611 2L42.2111 5.65C41.4445 5.28333 40.3111 4.93333 38.8111 4.6C37.3445 4.26667 35.6778 4.1 33.8111 4.1C31.6111 4.1 29.9611 4.6 28.8611 5.6C27.7611 6.56666 27.2111 7.71666 27.2111 9.05C27.2111 10.35 27.6278 11.4333 28.4611 12.3C29.2945 13.1667 30.3278 13.95 31.5611 14.65C32.8278 15.3167 34.1945 15.9833 35.6611 16.65C37.1278 17.3167 38.4778 18.1 39.7111 19C40.9778 19.8667 42.0278 20.9167 42.8611 22.15C43.6945 23.3833 44.1111 24.9167 44.1111 26.75C44.1111 28.25 43.8445 29.6 43.3111 30.8C42.7778 32 41.9945 33.0333 40.9611 33.9C39.9278 34.7667 38.6778 35.4333 37.2111 35.9C35.7445 36.3667 34.0778 36.6 32.2111 36.6C29.7111 36.6 27.6445 36.4 26.0111 36C24.3778 35.6333 23.1111 35.2167 22.2111 34.75L23.6111 31C24.3778 31.4333 25.5111 31.8667 27.0111 32.3C28.5111 32.7 30.1945 32.9 32.0611 32.9C33.1611 32.9 34.1945 32.8 35.1611 32.6C36.1278 32.3667 36.9611 32.0167 37.6611 31.55C38.3611 31.05 38.9111 30.4333 39.3111 29.7C39.7445 28.9667 39.9611 28.1 39.9611 27.1ZM57.2236 19.8H54.8736V36H50.7236V0.999998H54.8736V17.3L57.1236 16.6L68.8736 0.999998H73.6736L61.9736 16.05L59.8736 17.7L62.4236 19.7L75.2236 36H69.9736L57.2236 19.8ZM82.1912 0.999998H86.3412V36H82.1912V0.999998ZM116.492 36H95.792V0.999998H99.942V32.3H116.492V36ZM142.322 36H121.622V0.999998H125.772V32.3H142.322V36ZM163.252 27.1C163.252 25.7 162.835 24.5667 162.002 23.7C161.169 22.8 160.119 22.0167 158.852 21.35C157.619 20.65 156.269 20 154.802 19.4C153.335 18.8 151.969 18.0833 150.702 17.25C149.469 16.3833 148.435 15.3333 147.602 14.1C146.769 12.8333 146.352 11.2333 146.352 9.3C146.352 6.56666 147.302 4.4 149.202 2.8C151.102 1.2 153.802 0.399999 157.302 0.399999C159.335 0.399999 161.185 0.549999 162.852 0.85C164.519 1.15 165.819 1.53333 166.752 2L165.502 5.65C164.735 5.28333 163.602 4.93333 162.102 4.6C160.635 4.26667 158.969 4.1 157.102 4.1C154.902 4.1 153.252 4.6 152.152 5.6C151.052 6.56666 150.502 7.71666 150.502 9.05C150.502 10.35 150.919 11.4333 151.752 12.3C152.585 13.1667 153.619 13.95 154.852 14.65C156.119 15.3167 157.485 15.9833 158.952 16.65C160.419 17.3167 161.769 18.1 163.002 19C164.269 19.8667 165.319 20.9167 166.152 22.15C166.985 23.3833 167.402 24.9167 167.402 26.75C167.402 28.25 167.135 29.6 166.602 30.8C166.069 32 165.285 33.0333 164.252 33.9C163.219 34.7667 161.969 35.4333 160.502 35.9C159.035 36.3667 157.369 36.6 155.502 36.6C153.002 36.6 150.935 36.4 149.302 36C147.669 35.6333 146.402 35.2167 145.502 34.75L146.902 31C147.669 31.4333 148.802 31.8667 150.302 32.3C151.802 32.7 153.485 32.9 155.352 32.9C156.452 32.9 157.485 32.8 158.452 32.6C159.419 32.3667 160.252 32.0167 160.952 31.55C161.652 31.05 162.202 30.4333 162.602 29.7C163.035 28.9667 163.252 28.1 163.252 27.1Z" fill="#0C131D"/>
</svg>
