<svg width="1142" height="120" viewBox="0 0 1142 120" fill="none" xmlns="http://www.w3.org/2000/svg">
<g clip-path="url(#clip0)">
<path d="M210.953 5L226.703 12L135.453 218L119.703 211L210.953 5ZM317.582 138.5C317.582 131.5 315.498 125.833 311.332 121.5C307.165 117 301.915 113.083 295.582 109.75C289.415 106.25 282.665 103 275.332 100C267.998 97 261.165 93.4167 254.832 89.25C248.665 84.9167 243.498 79.6667 239.332 73.5C235.165 67.1667 233.082 59.1667 233.082 49.5C233.082 35.8333 237.832 25 247.332 17C256.832 9 270.332 5 287.832 5C297.998 5 307.248 5.75 315.582 7.25C323.915 8.75 330.415 10.6667 335.082 13L328.832 31.25C324.998 29.4167 319.332 27.6667 311.832 26C304.498 24.3333 296.165 23.5 286.832 23.5C275.832 23.5 267.582 26 262.082 31C256.582 35.8333 253.832 41.5833 253.832 48.25C253.832 54.75 255.915 60.1667 260.082 64.5C264.248 68.8333 269.415 72.75 275.582 76.25C281.915 79.5833 288.748 82.9167 296.082 86.25C303.415 89.5833 310.165 93.5 316.332 98C322.665 102.333 327.915 107.583 332.082 113.75C336.248 119.917 338.332 127.583 338.332 136.75C338.332 144.25 336.998 151 334.332 157C331.665 163 327.748 168.167 322.582 172.5C317.415 176.833 311.165 180.167 303.832 182.5C296.498 184.833 288.165 186 278.832 186C266.332 186 255.998 185 247.832 183C239.665 181.167 233.332 179.083 228.832 176.75L235.832 158C239.665 160.167 245.332 162.333 252.832 164.5C260.332 166.5 268.748 167.5 278.082 167.5C283.582 167.5 288.748 167 293.582 166C298.415 164.833 302.582 163.083 306.082 160.75C309.582 158.25 312.332 155.167 314.332 151.5C316.498 147.833 317.582 143.5 317.582 138.5ZM364.144 95.5C364.144 66.3333 370.311 44 382.644 28.5C394.977 12.8333 412.561 5 435.394 5C447.727 5 458.394 7.16666 467.394 11.5C476.394 15.8333 483.811 22 489.644 30C495.644 37.8333 500.061 47.3333 502.894 58.5C505.727 69.5 507.144 81.8333 507.144 95.5C507.144 124.667 500.894 147.083 488.394 162.75C476.061 178.25 458.394 186 435.394 186C423.227 186 412.644 183.833 403.644 179.5C394.811 175.167 387.394 169.083 381.394 161.25C375.561 153.25 371.227 143.75 368.394 132.75C365.561 121.583 364.144 109.167 364.144 95.5ZM386.144 95.5C386.144 105.167 387.061 114.333 388.894 123C390.894 131.667 393.894 139.333 397.894 146C401.894 152.5 406.977 157.75 413.144 161.75C419.477 165.583 426.894 167.5 435.394 167.5C450.894 167.5 463.061 161.667 471.894 150C480.727 138.167 485.144 120 485.144 95.5C485.144 86 484.144 76.9167 482.144 68.25C480.311 59.4167 477.311 51.75 473.144 45.25C469.144 38.5833 463.977 33.3333 457.644 29.5C451.477 25.5 444.061 23.5 435.394 23.5C420.061 23.5 407.977 29.4167 399.144 41.25C390.477 52.9167 386.144 71 386.144 95.5ZM654.293 175.75C649.293 179.583 642.959 182.25 635.293 183.75C627.626 185.25 619.459 186 610.793 186C600.293 186 590.459 184.25 581.293 180.75C572.126 177.083 564.126 171.583 557.293 164.25C550.459 156.917 545.043 147.583 541.043 136.25C537.043 124.75 535.043 111.167 535.043 95.5C535.043 79.1667 537.209 65.3333 541.543 54C546.043 42.5 551.876 33.1667 559.043 26C566.376 18.6667 574.543 13.3333 583.543 9.99999C592.543 6.66666 601.709 5 611.043 5C621.043 5 629.209 5.58333 635.543 6.74999C641.876 7.74999 647.293 9.16665 651.793 11L646.793 29.25C638.793 25.4167 627.376 23.5 612.543 23.5C605.709 23.5 598.959 24.75 592.293 27.25C585.626 29.75 579.626 33.8333 574.293 39.5C569.126 45.1667 564.959 52.5833 561.793 61.75C558.626 70.9167 557.043 82.1667 557.043 95.5C557.043 107.5 558.543 118 561.543 127C564.543 136 568.626 143.5 573.793 149.5C579.126 155.5 585.293 160 592.293 163C599.459 166 607.209 167.5 615.543 167.5C623.043 167.5 629.543 166.75 635.043 165.25C640.709 163.75 645.459 161.833 649.293 159.5L654.293 175.75ZM689.865 7.99999H710.615V183H689.865V7.99999ZM841.119 134.5H776.619L759.119 183H738.619L804.869 5.24999H814.369L880.869 183H859.119L841.119 134.5ZM783.369 116.5H834.869L815.369 63.25L809.119 36.75H808.869L802.619 63.75L783.369 116.5ZM1007.61 183H904.109V7.99999H924.859V164.5H1007.61V183Z" fill="white"/>
</g>
<defs>
<clipPath id="clip0">
<rect width="1142" height="228" fill="white" transform="translate(0 -24)"/>
</clipPath>
</defs>
</svg>
