<svg width="1100" height="120" viewBox="0 0 1100 120" fill="none" xmlns="http://www.w3.org/2000/svg">
<g clip-path="url(#clip0)">
<path d="M60.0554 114.94L-2.31461 0.999987H23.8754L68.1554 83.62L72.7454 100.09H73.0154L77.8754 83.08L120.265 0.999987H144.295L82.4654 114.67V190H60.0554V114.94ZM150.128 95.5C150.128 64 156.788 39.88 170.108 23.14C183.428 6.22 202.418 -2.24 227.078 -2.24C240.398 -2.24 251.918 0.0999933 261.638 4.77999C271.358 9.45999 279.368 16.12 285.668 24.76C292.148 33.22 296.918 43.48 299.978 55.54C303.038 67.42 304.568 80.74 304.568 95.5C304.568 127 297.818 151.21 284.318 168.13C270.998 184.87 251.918 193.24 227.078 193.24C213.938 193.24 202.508 190.9 192.788 186.22C183.248 181.54 175.238 174.97 168.758 166.51C162.458 157.87 157.778 147.61 154.718 135.73C151.658 123.67 150.128 110.26 150.128 95.5ZM173.888 95.5C173.888 105.94 174.878 115.84 176.858 125.2C179.018 134.56 182.258 142.84 186.578 150.04C190.898 157.06 196.388 162.73 203.048 167.05C209.888 171.19 217.898 173.26 227.078 173.26C243.818 173.26 256.958 166.96 266.498 154.36C276.038 141.58 280.808 121.96 280.808 95.5C280.808 85.24 279.728 75.43 277.568 66.07C275.588 56.53 272.348 48.25 267.848 41.23C263.528 34.03 257.948 28.36 251.108 24.22C244.448 19.9 236.438 17.74 227.078 17.74C210.518 17.74 197.468 24.13 187.928 36.91C178.568 49.51 173.888 69.04 173.888 95.5ZM487.788 63.1L490.488 34.75H489.138L478.878 60.67L429.738 145.99H422.988L370.878 60.4L361.158 34.75H359.808L363.588 62.83V190H342.528V0.999987H359.268L418.398 97.66L427.308 118.72H427.848L436.218 97.12L492.648 0.999987H510.198V190H487.788V63.1ZM621.712 -2.24L638.722 5.32L540.172 227.8L523.162 220.24L621.712 -2.24ZM651.552 0.999987C654.972 0.459994 658.752 0.0999933 662.892 -0.0800151C667.212 -0.44001 671.622 -0.620008 676.122 -0.620008C680.802 -0.800006 685.302 -0.890005 689.622 -0.890005C694.122 -1.07 698.262 -1.16 702.042 -1.16C717.162 -1.16 730.212 1.18 741.192 5.85999C752.352 10.54 761.532 17.11 768.732 25.57C775.932 33.85 781.242 43.84 784.662 55.54C788.262 67.24 790.062 80.11 790.062 94.15C790.062 106.93 788.352 119.26 784.932 131.14C781.692 142.84 776.472 153.28 769.272 162.46C762.072 171.46 752.712 178.75 741.192 184.33C729.672 189.73 715.722 192.43 699.342 192.43C696.462 192.43 692.682 192.34 688.002 192.16C683.502 192.16 678.822 191.98 673.962 191.62C669.102 191.44 664.602 191.26 660.462 191.08C656.322 190.9 653.352 190.63 651.552 190.27V0.999987ZM702.582 18.82C700.242 18.82 697.632 18.82 694.752 18.82C692.052 18.82 689.352 18.91 686.652 19.09C683.952 19.27 681.432 19.45 679.092 19.63C676.932 19.81 675.222 19.99 673.962 20.17V171.37C674.862 171.55 676.572 171.73 679.092 171.91C681.612 171.91 684.222 172 686.922 172.18C689.622 172.18 692.232 172.27 694.752 172.45C697.272 172.45 698.982 172.45 699.882 172.45C712.482 172.45 723.012 170.29 731.472 165.97C740.112 161.65 746.952 155.89 751.992 148.69C757.212 141.31 760.902 132.94 763.062 123.58C765.222 114.04 766.302 104.23 766.302 94.15C766.302 85.33 765.312 76.51 763.332 67.69C761.352 58.69 757.932 50.59 753.072 43.39C748.212 36.19 741.642 30.34 733.362 25.84C725.262 21.16 715.002 18.82 702.582 18.82ZM828.212 0.999987H931.082V20.98H850.622V82.81H924.332V102.79H850.622V170.02H932.432V190H828.212V0.999987ZM1022.11 130.87L1028.59 159.49H1028.86L1035.88 130.33L1081.51 0.999987H1103.92L1032.37 192.97H1022.38L949.478 0.999987H974.048L1022.11 130.87Z" fill="black"/>
</g>
<defs>
<clipPath id="clip0">
<rect width="1100" height="228" fill="white" transform="translate(0 -24)"/>
</clipPath>
</defs>
</svg>
