<svg width="113" height="28" viewBox="0 0 113 28" fill="none" xmlns="http://www.w3.org/2000/svg">
<path d="M11.8318 22.1L0.281836 0.999998H5.13184L13.3318 16.3L14.1818 19.35H14.2318L15.1318 16.2L22.9818 0.999998H27.4318L15.9818 22.05V36H11.8318V22.1ZM28.5119 18.5C28.5119 12.6667 29.7452 8.2 32.2119 5.1C34.6786 1.96667 38.1952 0.399999 42.7619 0.399999C45.2286 0.399999 47.3619 0.833332 49.1619 1.7C50.9619 2.56666 52.4452 3.8 53.6119 5.4C54.8119 6.96667 55.6952 8.86667 56.2619 11.1C56.8286 13.3 57.1119 15.7667 57.1119 18.5C57.1119 24.3333 55.8619 28.8167 53.3619 31.95C50.8952 35.05 47.3619 36.6 42.7619 36.6C40.3286 36.6 38.2119 36.1667 36.4119 35.3C34.6452 34.4333 33.1619 33.2167 31.9619 31.65C30.7952 30.05 29.9286 28.15 29.3619 25.95C28.7952 23.7167 28.5119 21.2333 28.5119 18.5ZM32.9119 18.5C32.9119 20.4333 33.0952 22.2667 33.4619 24C33.8619 25.7333 34.4619 27.2667 35.2619 28.6C36.0619 29.9 37.0786 30.95 38.3119 31.75C39.5786 32.5167 41.0619 32.9 42.7619 32.9C45.8619 32.9 48.2952 31.7333 50.0619 29.4C51.8286 27.0333 52.7119 23.4 52.7119 18.5C52.7119 16.6 52.5119 14.7833 52.1119 13.05C51.7452 11.2833 51.1452 9.75 50.3119 8.45C49.5119 7.11667 48.4786 6.06667 47.2119 5.3C45.9786 4.5 44.4952 4.1 42.7619 4.1C39.6952 4.1 37.2786 5.28333 35.5119 7.65C33.7786 9.98333 32.9119 13.6 32.9119 18.5ZM76.2916 0.399999L79.4416 1.8L61.1916 43L58.0416 41.6L76.2916 0.399999ZM108.717 12.5L109.217 7.25H108.967L107.067 12.05L97.9674 27.85H96.7174L87.0674 12L85.2674 7.25H85.0174L85.7174 12.45V36H81.8174V0.999998H84.9174L95.8674 18.9L97.5174 22.8H97.6174L99.1674 18.8L109.617 0.999998H112.867V36H108.717V12.5Z" fill="#EFEFEF"/>
</svg>
